<svg width="124" height="171" viewBox="0 0 124 171" fill="none" xmlns="http://www.w3.org/2000/svg">
<path d="M0.5 83.0979L77.4593 84.3578V148.162C77.4593 155.52 72.7622 161.09 65.5472 164.847C58.3295 168.606 48.6697 170.5 38.9797 170.5C29.2897 170.5 19.6298 168.606 12.4121 164.847C5.19715 161.09 0.499997 155.52 0.5 148.162V83.0979Z" fill="#F2F2F2" stroke="black"/>
<path d="M77.4593 82.3671C77.4593 88.3247 73.2709 93.8134 66.2925 97.8406C59.3274 101.86 49.6719 104.362 38.9797 104.362C28.2874 104.362 18.632 101.86 11.6668 97.8406C4.6884 93.8134 0.5 88.3247 0.5 82.3671C0.5 77.3654 3.24967 73.6003 6.56501 70.8647C9.88237 68.1274 13.7137 66.4673 15.7401 65.6871C19.8043 64.1223 44.8654 56.1401 64.7265 50.9168C68.7705 49.8533 71.8153 50.943 73.8582 52.8466C75.9238 54.7713 76.9878 57.5502 76.9878 59.8718C76.9878 64.678 77.1059 68.7955 77.2238 72.4649C77.2374 72.8862 77.2509 73.3014 77.2642 73.7109C77.3673 76.8721 77.4593 79.6977 77.4593 82.3671Z" fill="#F2F2F2" stroke="black"/>
<path d="M72.5245 84.3789C72.5245 86.0806 71.6598 87.9668 69.9923 89.8638C68.3298 91.7551 65.9029 93.6169 62.8698 95.2593C56.805 98.5433 48.3762 100.918 38.9717 100.918C29.5578 100.918 21.0586 98.7566 14.9295 95.2872C8.78605 91.8096 5.11511 87.0791 5.11511 81.959C5.11511 77.6596 7.52444 74.4186 10.4407 72.0583C13.3582 69.697 16.7289 68.2643 18.5128 67.5906C20.2558 66.9324 22.2096 66.6136 23.9585 66.5174C25.7051 66.4214 27.2077 66.5492 28.0591 66.7598L67.8422 78.9074C68.9075 79.2636 70.0906 79.9803 71.0022 80.9456C71.9147 81.9117 72.5245 83.0919 72.5245 84.3789Z" fill="#F2F2F2" stroke="black" stroke-width="0.950918"/>
<mask id="mask0" mask-type="alpha" maskUnits="userSpaceOnUse" x="4" y="66" width="69" height="36">
<path d="M72.5245 84.3789C72.5245 86.0806 71.6598 87.9668 69.9923 89.8638C68.3298 91.7551 65.9029 93.6169 62.8698 95.2593C56.805 98.5433 48.3762 100.918 38.9717 100.918C29.5578 100.918 21.0586 98.7566 14.9295 95.2872C8.78605 91.8096 5.11511 87.0791 5.11511 81.959C5.11511 77.6596 7.52444 74.4186 10.4407 72.0583C13.3582 69.697 16.7289 68.2643 18.5128 67.5906C20.2558 66.9324 22.2096 66.6136 23.9585 66.5174C25.7051 66.4214 27.2077 66.5492 28.0591 66.7598L67.8422 78.9074C68.9075 79.2636 70.0906 79.9803 71.0022 80.9456C71.9147 81.9117 72.5245 83.0919 72.5245 84.3789Z" fill="#F2F2F2" stroke="black" stroke-width="0.950918"/>
</mask>
<g mask="url(#mask0)">
<path d="M72.5246 88.7726C72.5246 90.4742 71.6599 92.3605 69.9924 94.2575C68.3299 96.1488 65.903 98.0106 62.8699 99.6529C56.8052 102.937 48.3763 105.311 38.9718 105.311C29.558 105.311 21.0587 103.15 14.9296 99.6809C8.78617 96.2033 5.11523 91.4727 5.11523 86.3527C5.11523 82.0533 7.52456 78.8123 10.4409 76.452C13.3583 74.0907 16.729 72.658 18.5129 71.9843C20.2559 71.3261 22.2098 71.0073 23.9586 70.9111C25.7052 70.815 27.2078 70.9429 28.0592 71.1535L67.8423 83.3011C68.9076 83.6573 70.0907 84.374 71.0023 85.3393C71.9148 86.3054 72.5246 87.4856 72.5246 88.7726Z" stroke="black" stroke-width="0.950918"/>
</g>
<path d="M60.1501 55.4988C63.5049 54.2206 67.6585 56.4572 67.6585 58.6938V69.8765C67.6585 72.4326 63.6646 73.391 60.1501 72.4326L44.0151 67.3205C41.1395 66.3618 40.6603 62.8473 45.1334 61.0901L60.1501 55.4988Z" fill="#F2F2F2" stroke="black"/>
<path d="M44.5 88C44.5 89.4223 43.5763 90.7855 41.9233 91.8186C40.2773 92.8474 37.9723 93.5 35.4 93.5C32.8278 93.5 30.5228 92.8474 28.8768 91.8186C27.2238 90.7855 26.3 89.4223 26.3 88C26.3 86.5777 27.2238 85.2145 28.8768 84.1814C30.5228 83.1526 32.8278 82.5 35.4 82.5C37.9723 82.5 40.2773 83.1526 41.9233 84.1814C43.5763 85.2145 44.5 86.5777 44.5 88Z" stroke="black"/>
<path d="M38.5 88C38.5 88.4435 38.2304 88.9063 37.6683 89.281C37.1097 89.6534 36.3092 89.9 35.4 89.9C34.4909 89.9 33.6904 89.6534 33.1318 89.281C32.5697 88.9063 32.3 88.4435 32.3 88C32.3 87.5564 32.5697 87.0937 33.1318 86.7189C33.6904 86.3466 34.4909 86.1 35.4 86.1C36.3092 86.1 37.1097 86.3466 37.6683 86.7189C38.2304 87.0937 38.5 87.5564 38.5 88Z" fill="black" stroke="black"/>
<path d="M45.7001 86.8C45.7001 86.9122 45.6319 87.0749 45.3955 87.2325C45.1627 87.3877 44.8122 87.5 44.4001 87.5C43.988 87.5 43.6375 87.3877 43.4047 87.2325C43.1683 87.0749 43.1001 86.9122 43.1001 86.8C43.1001 86.6878 43.1683 86.525 43.4047 86.3675C43.6375 86.2122 43.988 86.1 44.4001 86.1C44.8122 86.1 45.1627 86.2122 45.3955 86.3675C45.6319 86.525 45.7001 86.6878 45.7001 86.8Z" fill="black" stroke="black"/>
<path d="M124 1H29C25.5 10.5 25.5 19.5 29 30H124" stroke="black"/>
<path d="M58 72L58 40" stroke="black"/>
<rect x="52" y="30" width="12" height="3" stroke="black"/>
<path d="M50 36.5V30H52V36H64V30H66V36.5C66 38.1569 64.6569 39.5 63 39.5H53C51.3431 39.5 50 38.1569 50 36.5Z" stroke="black"/>
</svg>
