<svg width="254" height="62" viewBox="0 0 254 62" fill="none" xmlns="http://www.w3.org/2000/svg">
<path d="M22.6 24.1999C22.6 21.9908 24.3908 20.2 26.6 20.2H92.2V61H26.6C24.3908 61 22.6 59.2091 22.6 57V24.1999Z" fill="#F2F2F2" stroke="#BDBDBD"/>
<path d="M92.2 20.2H161.8V61H92.2V20.2Z" fill="#F2F2F2" stroke="#BDBDBD"/>
<path d="M161.8 20.2H227.4C229.609 20.2 231.4 21.9908 231.4 24.2V57C231.4 59.2091 229.609 61 227.4 61H161.8V20.2Z" fill="#F2F2F2" stroke="#BDBDBD"/>
<path d="M11.8 14.6C11.8 12.3908 13.5909 10.6 15.8 10.6H88.6001V51.4H15.8C13.5909 51.4 11.8 49.6091 11.8 47.4V14.6Z" fill="#F2F2F2" stroke="#828282"/>
<path d="M88.6 10.6H165.4V51.4H88.6V10.6Z" fill="#F2F2F2" stroke="#828282"/>
<path d="M165.4 10.6H238.2C240.409 10.6 242.2 12.3908 242.2 14.6V47.4C242.2 49.6091 240.409 51.4 238.2 51.4H165.4V10.6Z" fill="#F2F2F2" stroke="#828282"/>
<path d="M1 4.99999C1 2.79086 2.79086 1 5 1H85V41.8H5C2.79086 41.8 1 40.0091 1 37.8V4.99999Z" fill="#F2F2F2" stroke="#333333"/>
<path d="M85 1H169V41.8H85V1Z" fill="#F2F2F2" stroke="#333333"/>
<path d="M169 1H249C251.209 1 253 2.79086 253 5V37.8C253 40.0091 251.209 41.8 249 41.8H169V1Z" fill="#F2F2F2" stroke="#333333"/>
<path d="M21.081 24V16.8906H23.1806C23.8089 16.8906 24.3655 17.0306 24.8505 17.3105C25.3388 17.5905 25.7164 17.9876 25.9833 18.502C26.2503 19.0163 26.3837 19.6055 26.3837 20.2695V20.626C26.3837 21.2998 26.2486 21.8923 25.9785 22.4033C25.7115 22.9144 25.3291 23.3083 24.831 23.585C24.3362 23.8617 23.7682 24 23.1269 24H21.081ZM22.3164 17.8867V23.0137H23.122C23.7698 23.0137 24.2662 22.8118 24.6113 22.4082C24.9596 22.0013 25.137 21.4186 25.1435 20.6602V20.2646C25.1435 19.4932 24.9759 18.904 24.6406 18.4971C24.3053 18.0902 23.8186 17.8867 23.1806 17.8867H22.3164ZM31.7695 20.8262H28.8496V23.0137H32.2626V24H27.6142V16.8906H32.2285V17.8867H28.8496V19.8496H31.7695V20.8262ZM37.248 22.3447H34.4941L33.9179 24H32.6337L35.3193 16.8906H36.4277L39.1181 24H37.8291L37.248 22.3447ZM34.8408 21.3486H36.9013L35.871 18.3994L34.8408 21.3486ZM39.9287 24V16.8906H42.0283C42.6565 16.8906 43.2132 17.0306 43.6982 17.3105C44.1865 17.5905 44.5641 17.9876 44.831 18.502C45.0979 19.0163 45.2314 19.6055 45.2314 20.2695V20.626C45.2314 21.2998 45.0963 21.8923 44.8261 22.4033C44.5592 22.9144 44.1767 23.3083 43.6787 23.585C43.1839 23.8617 42.6158 24 41.9746 24H39.9287ZM41.164 17.8867V23.0137H41.9697C42.6175 23.0137 43.1139 22.8118 43.4589 22.4082C43.8072 22.0013 43.9847 21.4186 43.9912 20.6602V20.2646C43.9912 19.4932 43.8235 18.904 43.4882 18.4971C43.1529 18.0902 42.6663 17.8867 42.0283 17.8867H41.164ZM47.6972 23.0137H50.9248V24H46.4619V16.8906H47.6972V23.0137ZM53.1757 24H51.9453V16.8906H53.1757V24ZM58.791 20.9873H55.9296V24H54.6943V16.8906H59.2109V17.8867H55.9296V20.001H58.791V20.9873ZM65.4267 17.8867H63.2099V24H61.9843V17.8867H59.7871V16.8906H65.4267V17.8867Z" fill="#333333"/>
<path d="M111.067 18.7656C111.067 19.1139 110.978 19.4248 110.799 19.6982C110.62 19.9684 110.376 20.1816 110.066 20.3379C110.437 20.5104 110.722 20.7464 110.921 21.0459C111.123 21.3454 111.224 21.6839 111.224 22.0615C111.224 22.6865 111.012 23.1829 110.589 23.5508C110.166 23.9154 109.602 24.0977 108.899 24.0977C108.193 24.0977 107.627 23.9137 107.2 23.5459C106.777 23.1781 106.565 22.6833 106.565 22.0615C106.565 21.6807 106.666 21.3389 106.868 21.0361C107.07 20.7334 107.353 20.5007 107.718 20.3379C107.412 20.1816 107.169 19.9684 106.99 19.6982C106.814 19.4248 106.727 19.1139 106.727 18.7656C106.727 18.1602 106.922 17.68 107.312 17.3252C107.703 16.9704 108.23 16.793 108.894 16.793C109.562 16.793 110.091 16.9704 110.481 17.3252C110.872 17.68 111.067 18.1602 111.067 18.7656ZM110.037 22.0029C110.037 21.6514 109.931 21.3682 109.72 21.1533C109.511 20.9352 109.235 20.8262 108.89 20.8262C108.545 20.8262 108.268 20.9336 108.06 21.1484C107.854 21.3633 107.752 21.6481 107.752 22.0029C107.752 22.3512 107.853 22.6296 108.055 22.8379C108.26 23.0462 108.541 23.1504 108.899 23.1504C109.257 23.1504 109.536 23.0495 109.734 22.8477C109.936 22.6458 110.037 22.3643 110.037 22.0029ZM109.886 18.8096C109.886 18.5003 109.796 18.2464 109.617 18.0479C109.438 17.846 109.197 17.7451 108.894 17.7451C108.592 17.7451 108.352 17.8411 108.177 18.0332C108.001 18.222 107.913 18.4808 107.913 18.8096C107.913 19.1351 108.001 19.3939 108.177 19.5859C108.356 19.778 108.597 19.874 108.899 19.874C109.202 19.874 109.441 19.778 109.617 19.5859C109.796 19.3939 109.886 19.1351 109.886 18.8096ZM116.907 21.0068C116.907 22.029 116.715 22.8005 116.331 23.3213C115.95 23.8389 115.369 24.0977 114.588 24.0977C113.82 24.0977 113.24 23.8454 112.85 23.3408C112.462 22.833 112.264 22.0827 112.254 21.0898V19.8594C112.254 18.8372 112.444 18.0706 112.825 17.5596C113.209 17.0485 113.794 16.793 114.578 16.793C115.356 16.793 115.935 17.042 116.316 17.54C116.7 18.0381 116.897 18.7835 116.907 19.7764V21.0068ZM115.721 19.6787C115.721 19.0114 115.63 18.5231 115.447 18.2139C115.265 17.9014 114.975 17.7451 114.578 17.7451C114.191 17.7451 113.906 17.8932 113.724 18.1895C113.541 18.4824 113.445 18.9414 113.435 19.5664V21.1777C113.435 21.8418 113.528 22.3366 113.714 22.6621C113.899 22.9876 114.191 23.1504 114.588 23.1504C114.969 23.1504 115.25 23.0007 115.433 22.7012C115.615 22.3984 115.711 21.9264 115.721 21.2852V19.6787ZM117.908 18.2578C117.908 17.8281 118.046 17.4766 118.323 17.2031C118.6 16.9264 118.963 16.7881 119.412 16.7881C119.868 16.7881 120.232 16.9264 120.506 17.2031C120.783 17.4766 120.921 17.8363 120.921 18.2822V18.6338C120.921 19.0602 120.783 19.4102 120.506 19.6836C120.232 19.957 119.871 20.0938 119.422 20.0938C118.982 20.0938 118.619 19.9603 118.333 19.6934C118.05 19.4232 117.908 19.0602 117.908 18.6045V18.2578ZM118.738 18.6338C118.738 18.8584 118.8 19.0407 118.924 19.1807C119.051 19.3174 119.217 19.3857 119.422 19.3857C119.624 19.3857 119.786 19.3174 119.91 19.1807C120.034 19.0407 120.096 18.8519 120.096 18.6143V18.2578C120.096 18.0332 120.032 17.8509 119.905 17.7109C119.782 17.571 119.617 17.501 119.412 17.501C119.207 17.501 119.043 17.5726 118.919 17.7158C118.798 17.8558 118.738 18.0413 118.738 18.2725V18.6338ZM121.326 22.2568C121.326 21.8206 121.468 21.4674 121.751 21.1973C122.034 20.9271 122.395 20.792 122.835 20.792C123.278 20.792 123.639 20.9271 123.919 21.1973C124.202 21.4674 124.344 21.832 124.344 22.291V22.6377C124.344 23.0609 124.207 23.4108 123.934 23.6875C123.663 23.9609 123.3 24.0977 122.845 24.0977C122.389 24.0977 122.021 23.9626 121.741 23.6924C121.464 23.4189 121.326 23.0592 121.326 22.6133V22.2568ZM122.156 22.6377C122.156 22.859 122.22 23.0413 122.347 23.1846C122.477 23.3245 122.643 23.3945 122.845 23.3945C123.053 23.3945 123.216 23.3278 123.333 23.1943C123.453 23.0576 123.514 22.8672 123.514 22.623V22.2568C123.514 22.029 123.45 21.8467 123.323 21.71C123.196 21.5732 123.033 21.5049 122.835 21.5049C122.633 21.5049 122.469 21.5732 122.342 21.71C122.218 21.8467 122.156 22.0355 122.156 22.2764V22.6377ZM119.666 23.4678L119.056 23.1162L122.527 17.5596L123.138 17.9111L119.666 23.4678ZM131.004 24H129.822V18.292L128.079 18.8877V17.8867L130.852 16.8662H131.004V24ZM136.277 21.2607H134.9V24H133.665V16.8906H136.165C136.985 16.8906 137.618 17.0745 138.064 17.4424C138.51 17.8102 138.733 18.3424 138.733 19.0391C138.733 19.5143 138.618 19.9131 138.387 20.2354C138.159 20.5544 137.84 20.8001 137.43 20.9727L139.026 23.9365V24H137.703L136.277 21.2607ZM134.9 20.2695H136.17C136.587 20.2695 136.912 20.1654 137.146 19.957C137.381 19.7454 137.498 19.4574 137.498 19.0928C137.498 18.7119 137.389 18.4173 137.171 18.209C136.956 18.0007 136.634 17.8932 136.204 17.8867H134.9V20.2695ZM141.507 16.8906L143.558 22.3398L145.603 16.8906H147.2V24H145.97V21.6562L146.092 18.5215L143.992 24H143.108L141.014 18.5264L141.136 21.6562V24H139.905V16.8906H141.507Z" fill="#333333"/>
<path d="M195.024 21.0068C195.024 22.029 194.832 22.8005 194.448 23.3213C194.067 23.8389 193.486 24.0977 192.705 24.0977C191.936 24.0977 191.357 23.8454 190.966 23.3408C190.579 22.833 190.38 22.0827 190.371 21.0898V19.8594C190.371 18.8372 190.561 18.0706 190.942 17.5596C191.326 17.0485 191.91 16.793 192.695 16.793C193.473 16.793 194.052 17.042 194.433 17.54C194.817 18.0381 195.014 18.7835 195.024 19.7764V21.0068ZM193.837 19.6787C193.837 19.0114 193.746 18.5231 193.564 18.2139C193.382 17.9014 193.092 17.7451 192.695 17.7451C192.308 17.7451 192.023 17.8932 191.84 18.1895C191.658 18.4824 191.562 18.9414 191.552 19.5664V21.1777C191.552 21.8418 191.645 22.3366 191.831 22.6621C192.016 22.9876 192.308 23.1504 192.705 23.1504C193.085 23.1504 193.367 23.0007 193.549 22.7012C193.732 22.3984 193.828 21.9264 193.837 21.2852V19.6787ZM196.889 22.75C197.111 22.75 197.281 22.8135 197.402 22.9404C197.522 23.0641 197.583 23.2204 197.583 23.4092C197.583 23.5947 197.522 23.7493 197.402 23.873C197.281 23.9935 197.111 24.0537 196.889 24.0537C196.678 24.0537 196.51 23.9935 196.386 23.873C196.263 23.7526 196.201 23.598 196.201 23.4092C196.201 23.2204 196.261 23.0641 196.381 22.9404C196.502 22.8135 196.671 22.75 196.889 22.75ZM200.239 19.9033H200.961C201.326 19.9001 201.614 19.8057 201.826 19.6201C202.041 19.4346 202.148 19.166 202.148 18.8145C202.148 18.4759 202.058 18.2139 201.879 18.0283C201.704 17.8395 201.433 17.7451 201.069 17.7451C200.75 17.7451 200.488 17.8379 200.283 18.0234C200.078 18.2057 199.975 18.445 199.975 18.7412H198.789C198.789 18.3766 198.885 18.0446 199.077 17.7451C199.272 17.4456 199.542 17.2129 199.887 17.0469C200.236 16.8776 200.625 16.793 201.054 16.793C201.764 16.793 202.321 16.972 202.724 17.3301C203.131 17.6849 203.335 18.1797 203.335 18.8145C203.335 19.1335 203.232 19.4346 203.027 19.7178C202.825 19.9977 202.563 20.2093 202.241 20.3525C202.631 20.486 202.928 20.696 203.129 20.9824C203.335 21.2689 203.437 21.6107 203.437 22.0078C203.437 22.6458 203.217 23.1536 202.778 23.5312C202.342 23.9089 201.767 24.0977 201.054 24.0977C200.371 24.0977 199.811 23.9154 199.375 23.5508C198.938 23.1862 198.72 22.7012 198.72 22.0957H199.907C199.907 22.4082 200.011 22.6621 200.219 22.8574C200.431 23.0527 200.714 23.1504 201.069 23.1504C201.437 23.1504 201.726 23.0527 201.938 22.8574C202.15 22.6621 202.255 22.3789 202.255 22.0078C202.255 21.6335 202.145 21.3454 201.923 21.1436C201.702 20.9417 201.373 20.8408 200.937 20.8408H200.239V19.9033ZM209.028 18.7656C209.028 19.1139 208.938 19.4248 208.759 19.6982C208.58 19.9684 208.336 20.1816 208.027 20.3379C208.398 20.5104 208.683 20.7464 208.881 21.0459C209.083 21.3454 209.184 21.6839 209.184 22.0615C209.184 22.6865 208.973 23.1829 208.549 23.5508C208.126 23.9154 207.563 24.0977 206.86 24.0977C206.154 24.0977 205.587 23.9137 205.161 23.5459C204.738 23.1781 204.526 22.6833 204.526 22.0615C204.526 21.6807 204.627 21.3389 204.829 21.0361C205.03 20.7334 205.314 20.5007 205.678 20.3379C205.372 20.1816 205.13 19.9684 204.951 19.6982C204.775 19.4248 204.687 19.1139 204.687 18.7656C204.687 18.1602 204.882 17.68 205.273 17.3252C205.664 16.9704 206.191 16.793 206.855 16.793C207.522 16.793 208.051 16.9704 208.442 17.3252C208.833 17.68 209.028 18.1602 209.028 18.7656ZM207.998 22.0029C207.998 21.6514 207.892 21.3682 207.68 21.1533C207.472 20.9352 207.195 20.8262 206.85 20.8262C206.505 20.8262 206.228 20.9336 206.02 21.1484C205.815 21.3633 205.712 21.6481 205.712 22.0029C205.712 22.3512 205.813 22.6296 206.015 22.8379C206.22 23.0462 206.502 23.1504 206.86 23.1504C207.218 23.1504 207.496 23.0495 207.695 22.8477C207.897 22.6458 207.998 22.3643 207.998 22.0029ZM207.846 18.8096C207.846 18.5003 207.757 18.2464 207.578 18.0479C207.399 17.846 207.158 17.7451 206.855 17.7451C206.552 17.7451 206.313 17.8411 206.137 18.0332C205.961 18.222 205.874 18.4808 205.874 18.8096C205.874 19.1351 205.961 19.3939 206.137 19.5859C206.316 19.778 206.557 19.874 206.86 19.874C207.163 19.874 207.402 19.778 207.578 19.5859C207.757 19.3939 207.846 19.1351 207.846 18.8096ZM214.516 16.8906L216.567 22.3398L218.613 16.8906H220.21V24H218.979V21.6562L219.101 18.5215L217.002 24H216.118L214.023 18.5264L214.145 21.6562V24H212.915V16.8906H214.516ZM221.894 24.6104H220.961L223.759 16.8906H224.692L221.894 24.6104ZM229.345 22.1689C229.345 21.8564 229.235 21.6156 229.013 21.4463C228.795 21.277 228.4 21.1061 227.827 20.9336C227.254 20.7611 226.798 20.569 226.46 20.3574C225.812 19.9505 225.488 19.4199 225.488 18.7656C225.488 18.1927 225.721 17.7207 226.186 17.3496C226.655 16.9785 227.262 16.793 228.007 16.793C228.502 16.793 228.943 16.8841 229.331 17.0664C229.718 17.2487 230.022 17.5091 230.244 17.8477C230.465 18.1829 230.576 18.5557 230.576 18.9658H229.345C229.345 18.5947 229.228 18.305 228.994 18.0967C228.763 17.8851 228.431 17.7793 227.998 17.7793C227.594 17.7793 227.28 17.8656 227.055 18.0381C226.834 18.2106 226.723 18.4515 226.723 18.7607C226.723 19.0212 226.844 19.2393 227.085 19.415C227.325 19.5876 227.723 19.7568 228.276 19.9229C228.829 20.0856 229.274 20.2728 229.609 20.4844C229.944 20.6927 230.19 20.9336 230.346 21.207C230.502 21.4772 230.581 21.7946 230.581 22.1592C230.581 22.7516 230.353 23.2236 229.897 23.5752C229.445 23.9235 228.829 24.0977 228.051 24.0977C227.537 24.0977 227.063 24.0033 226.63 23.8145C226.201 23.6224 225.865 23.3587 225.625 23.0234C225.387 22.6882 225.268 22.2975 225.268 21.8516H226.503C226.503 22.2552 226.637 22.5677 226.904 22.7891C227.171 23.0104 227.553 23.1211 228.051 23.1211C228.481 23.1211 228.803 23.0348 229.018 22.8623C229.236 22.6865 229.345 22.4554 229.345 22.1689Z" fill="#333333"/>
</svg>
