<svg width="126" height="127" viewBox="0 0 126 127" fill="none" xmlns="http://www.w3.org/2000/svg">
<rect x="1" y="8" width="83" height="118" rx="9" fill="#F2F2F2" stroke="black"/>
<rect x="6" y="13" width="73" height="108" rx="4" fill="#F2F2F2" stroke="black"/>
<path d="M29 88.5898H26.7109V91H25.7227V85.3125H29.3359V86.1094H26.7109V87.8008H29V88.5898ZM32.5547 89.6758H30.3516L29.8906 91H28.8633L31.0117 85.3125H31.8984L34.0508 91H33.0195L32.5547 89.6758ZM30.6289 88.8789H32.2773L31.4531 86.5195L30.6289 88.8789ZM37.6719 89.5352C37.6719 89.2852 37.5833 89.0924 37.4062 88.957C37.2318 88.8216 36.9154 88.6849 36.457 88.5469C35.9987 88.4089 35.6341 88.2552 35.3633 88.0859C34.8451 87.7604 34.5859 87.3359 34.5859 86.8125C34.5859 86.3542 34.7721 85.9766 35.1445 85.6797C35.5195 85.3828 36.0052 85.2344 36.6016 85.2344C36.9974 85.2344 37.3503 85.3073 37.6602 85.4531C37.9701 85.599 38.2135 85.8073 38.3906 86.0781C38.5677 86.3464 38.6562 86.6445 38.6562 86.9727H37.6719C37.6719 86.6758 37.5781 86.444 37.3906 86.2773C37.2057 86.1081 36.9401 86.0234 36.5938 86.0234C36.2708 86.0234 36.0195 86.0924 35.8398 86.2305C35.6628 86.3685 35.5742 86.5612 35.5742 86.8086C35.5742 87.0169 35.6706 87.1914 35.8633 87.332C36.056 87.4701 36.3737 87.6055 36.8164 87.7383C37.2591 87.8685 37.6146 88.0182 37.8828 88.1875C38.151 88.3542 38.3477 88.5469 38.4727 88.7656C38.5977 88.9818 38.6602 89.2357 38.6602 89.5273C38.6602 90.0013 38.4779 90.3789 38.1133 90.6602C37.7513 90.9388 37.2591 91.0781 36.6367 91.0781C36.2253 91.0781 35.8464 91.0026 35.5 90.8516C35.1562 90.6979 34.888 90.487 34.6953 90.2188C34.5052 89.9505 34.4102 89.638 34.4102 89.2812H35.3984C35.3984 89.6042 35.5052 89.8542 35.7188 90.0312C35.9323 90.2083 36.2383 90.2969 36.6367 90.2969C36.9805 90.2969 37.2383 90.2279 37.4102 90.0898C37.5846 89.9492 37.6719 89.7643 37.6719 89.5352ZM43.6367 86.1094H41.8633V91H40.8828V86.1094H39.125V85.3125H43.6367V86.1094ZM49.1172 89.5352C49.1172 89.2852 49.0286 89.0924 48.8516 88.957C48.6771 88.8216 48.3607 88.6849 47.9023 88.5469C47.444 88.4089 47.0794 88.2552 46.8086 88.0859C46.2904 87.7604 46.0312 87.3359 46.0312 86.8125C46.0312 86.3542 46.2174 85.9766 46.5898 85.6797C46.9648 85.3828 47.4505 85.2344 48.0469 85.2344C48.4427 85.2344 48.7956 85.3073 49.1055 85.4531C49.4154 85.599 49.6589 85.8073 49.8359 86.0781C50.013 86.3464 50.1016 86.6445 50.1016 86.9727H49.1172C49.1172 86.6758 49.0234 86.444 48.8359 86.2773C48.651 86.1081 48.3854 86.0234 48.0391 86.0234C47.7161 86.0234 47.4648 86.0924 47.2852 86.2305C47.1081 86.3685 47.0195 86.5612 47.0195 86.8086C47.0195 87.0169 47.1159 87.1914 47.3086 87.332C47.5013 87.4701 47.819 87.6055 48.2617 87.7383C48.7044 87.8685 49.0599 88.0182 49.3281 88.1875C49.5964 88.3542 49.793 88.5469 49.918 88.7656C50.043 88.9818 50.1055 89.2357 50.1055 89.5273C50.1055 90.0013 49.9232 90.3789 49.5586 90.6602C49.1966 90.9388 48.7044 91.0781 48.082 91.0781C47.6706 91.0781 47.2917 91.0026 46.9453 90.8516C46.6016 90.6979 46.3333 90.487 46.1406 90.2188C45.9505 89.9505 45.8555 89.638 45.8555 89.2812H46.8438C46.8438 89.6042 46.9505 89.8542 47.1641 90.0312C47.3776 90.2083 47.6836 90.2969 48.082 90.2969C48.4258 90.2969 48.6836 90.2279 48.8555 90.0898C49.0299 89.9492 49.1172 89.7643 49.1172 89.5352ZM54.2969 88.4609H51.9609V90.2109H54.6914V91H50.9727V85.3125H54.6641V86.1094H51.9609V87.6797H54.2969V88.4609ZM59.6836 86.1094H57.9102V91H56.9297V86.1094H55.1719V85.3125H59.6836V86.1094ZM14.4102 103H13.4258V97.3125H14.4102V103ZM20.1367 103H19.1484L16.6133 98.9648V103H15.625V97.3125H16.6133L19.1562 101.363V97.3125H20.1367V103ZM25.6445 101.148C25.5872 101.755 25.3633 102.229 24.9727 102.57C24.582 102.909 24.0625 103.078 23.4141 103.078C22.9609 103.078 22.5612 102.971 22.2148 102.758C21.8711 102.542 21.6055 102.236 21.418 101.84C21.2305 101.444 21.1328 100.984 21.125 100.461V99.9297C21.125 99.3932 21.2201 98.9206 21.4102 98.5117C21.6003 98.1029 21.8724 97.7878 22.2266 97.5664C22.5833 97.3451 22.9948 97.2344 23.4609 97.2344C24.0885 97.2344 24.5938 97.4049 24.9766 97.7461C25.3594 98.0872 25.582 98.569 25.6445 99.1914H24.6602C24.6133 98.7826 24.4935 98.4883 24.3008 98.3086C24.1107 98.1263 23.8307 98.0352 23.4609 98.0352C23.0312 98.0352 22.7005 98.1927 22.4688 98.5078C22.2396 98.8203 22.1224 99.2799 22.1172 99.8867V100.391C22.1172 101.005 22.2266 101.474 22.4453 101.797C22.6667 102.12 22.9896 102.281 23.4141 102.281C23.8021 102.281 24.0938 102.194 24.2891 102.02C24.4844 101.845 24.6081 101.555 24.6602 101.148H25.6445ZM28.6211 100.809H27.5195V103H26.5312V97.3125H28.5312C29.1875 97.3125 29.694 97.4596 30.0508 97.7539C30.4076 98.0482 30.5859 98.474 30.5859 99.0312C30.5859 99.4115 30.4935 99.7305 30.3086 99.9883C30.1263 100.243 29.8711 100.44 29.543 100.578L30.8203 102.949V103H29.7617L28.6211 100.809ZM27.5195 100.016H28.5352C28.8685 100.016 29.1289 99.9323 29.3164 99.7656C29.5039 99.5964 29.5977 99.3659 29.5977 99.0742C29.5977 98.7695 29.5104 98.5339 29.3359 98.3672C29.1641 98.2005 28.9062 98.1146 28.5625 98.1094H27.5195V100.016ZM34.8477 100.461H32.5117V102.211H35.2422V103H31.5234V97.3125H35.2148V98.1094H32.5117V99.6797H34.8477V100.461ZM39.2305 101.676H37.0273L36.5664 103H35.5391L37.6875 97.3125H38.5742L40.7266 103H39.6953L39.2305 101.676ZM37.3047 100.879H38.9531L38.1289 98.5195L37.3047 100.879ZM44.3477 101.535C44.3477 101.285 44.2591 101.092 44.082 100.957C43.9076 100.822 43.5911 100.685 43.1328 100.547C42.6745 100.409 42.3099 100.255 42.0391 100.086C41.5208 99.7604 41.2617 99.3359 41.2617 98.8125C41.2617 98.3542 41.4479 97.9766 41.8203 97.6797C42.1953 97.3828 42.681 97.2344 43.2773 97.2344C43.6732 97.2344 44.026 97.3073 44.3359 97.4531C44.6458 97.599 44.8893 97.8073 45.0664 98.0781C45.2435 98.3464 45.332 98.6445 45.332 98.9727H44.3477C44.3477 98.6758 44.2539 98.444 44.0664 98.2773C43.8815 98.1081 43.6159 98.0234 43.2695 98.0234C42.9466 98.0234 42.6953 98.0924 42.5156 98.2305C42.3385 98.3685 42.25 98.5612 42.25 98.8086C42.25 99.0169 42.3464 99.1914 42.5391 99.332C42.7318 99.4701 43.0495 99.6055 43.4922 99.7383C43.9349 99.8685 44.2904 100.018 44.5586 100.188C44.8268 100.354 45.0234 100.547 45.1484 100.766C45.2734 100.982 45.3359 101.236 45.3359 101.527C45.3359 102.001 45.1536 102.379 44.7891 102.66C44.4271 102.939 43.9349 103.078 43.3125 103.078C42.901 103.078 42.5221 103.003 42.1758 102.852C41.832 102.698 41.5638 102.487 41.3711 102.219C41.181 101.951 41.0859 101.638 41.0859 101.281H42.0742C42.0742 101.604 42.181 101.854 42.3945 102.031C42.6081 102.208 42.9141 102.297 43.3125 102.297C43.6562 102.297 43.9141 102.228 44.0859 102.09C44.2604 101.949 44.3477 101.764 44.3477 101.535ZM49.5273 100.461H47.1914V102.211H49.9219V103H46.2031V97.3125H49.8945V98.1094H47.1914V99.6797H49.5273V100.461ZM53.707 102.211H56.2891V103H52.7188V97.3125H53.707V102.211ZM61.3359 100.305C61.3359 100.862 61.2396 101.352 61.0469 101.773C60.8542 102.193 60.5781 102.516 60.2188 102.742C59.862 102.966 59.4505 103.078 58.9844 103.078C58.5234 103.078 58.112 102.966 57.75 102.742C57.3906 102.516 57.112 102.194 56.9141 101.777C56.7188 101.361 56.6198 100.88 56.6172 100.336V100.016C56.6172 99.4609 56.7148 98.9714 56.9102 98.5469C57.1081 98.1224 57.3854 97.7982 57.7422 97.5742C58.1016 97.3477 58.513 97.2344 58.9766 97.2344C59.4401 97.2344 59.8503 97.3464 60.207 97.5703C60.5664 97.7917 60.8438 98.112 61.0391 98.5312C61.2344 98.9479 61.3333 99.4336 61.3359 99.9883V100.305ZM60.3477 100.008C60.3477 99.3776 60.2279 98.8945 59.9883 98.5586C59.7513 98.2227 59.4141 98.0547 58.9766 98.0547C58.5495 98.0547 58.2148 98.2227 57.9727 98.5586C57.7331 98.8919 57.6107 99.3646 57.6055 99.9766V100.305C57.6055 100.93 57.7266 101.413 57.9688 101.754C58.2135 102.095 58.5521 102.266 58.9844 102.266C59.4219 102.266 59.7578 102.099 59.9922 101.766C60.2292 101.432 60.3477 100.945 60.3477 100.305V100.008ZM65.418 101.676H63.2148L62.7539 103H61.7266L63.875 97.3125H64.7617L66.9141 103H65.8828L65.418 101.676ZM63.4922 100.879H65.1406L64.3164 98.5195L63.4922 100.879ZM67.5625 103V97.3125H69.2422C69.7448 97.3125 70.1901 97.4245 70.5781 97.6484C70.9688 97.8724 71.2708 98.1901 71.4844 98.6016C71.6979 99.013 71.8047 99.4844 71.8047 100.016V100.301C71.8047 100.84 71.6966 101.314 71.4805 101.723C71.2669 102.132 70.9609 102.447 70.5625 102.668C70.1667 102.889 69.7122 103 69.1992 103H67.5625ZM68.5508 98.1094V102.211H69.1953C69.7135 102.211 70.1107 102.049 70.3867 101.727C70.6654 101.401 70.8073 100.935 70.8125 100.328V100.012C70.8125 99.3945 70.6784 98.9232 70.4102 98.5977C70.1419 98.2721 69.7526 98.1094 69.2422 98.1094H68.5508Z" fill="#333333"/>
<path d="M42 70.5V47.5M42 47.5L35.5 54M42 47.5L48.5 54" stroke="black"/>
<line x1="95.5" y1="1.86069e-08" x2="95.5" y2="126" stroke="#333333"/>
<line x1="125.5" y1="1.86069e-08" x2="125.5" y2="126" stroke="#333333"/>
<circle cx="110.5" cy="7.5" r="6" stroke="#333333"/>
<circle cx="110.5" cy="28.5" r="6" stroke="#333333"/>
<circle cx="110.5" cy="49.5" r="6" stroke="#333333"/>
<circle cx="110.5" cy="70.5" r="6" stroke="#333333"/>
<circle cx="110.5" cy="91.5" r="6" stroke="#333333"/>
<circle cx="110.5" cy="112.5" r="6" stroke="#333333"/>
<line x1="96" y1="50.5" x2="84" y2="50.5" stroke="#333333"/>
<line x1="96" y1="81.5" x2="84" y2="81.5" stroke="#333333"/>
</svg>
