<svg width="301" height="267" viewBox="0 0 301 267" fill="none" xmlns="http://www.w3.org/2000/svg">
<path d="M180.5 249.991C180.5 252.153 179.489 254.253 177.578 256.207C175.664 258.164 172.87 259.95 169.379 261.46C162.397 264.479 152.718 266.359 142 266.359C131.282 266.359 121.603 264.479 114.621 261.46C111.13 259.95 108.336 258.164 106.422 256.207C104.511 254.253 103.5 252.153 103.5 249.991V202.593H180.5V249.991Z" fill="black" stroke="white"/>
<path d="M180.5 202.69C180.5 204.722 179.498 206.705 177.587 208.558C175.674 210.414 172.881 212.107 169.387 213.54C162.404 216.405 152.721 218.189 142 218.189C131.279 218.189 121.596 216.405 114.613 213.54C111.119 212.107 108.326 210.414 106.413 208.558C104.502 206.705 103.5 204.722 103.5 202.69C103.5 202.042 103.752 201.287 104.272 200.428C104.79 199.574 105.554 198.651 106.524 197.677C108.465 195.73 111.186 193.63 114.285 191.524C120.478 187.314 128.109 183.13 133.835 180.163C138.973 177.501 145.027 177.501 150.165 180.163C155.891 183.13 163.522 187.314 169.715 191.524C172.814 193.63 175.535 195.73 177.476 197.677C178.446 198.651 179.21 199.574 179.728 200.428C180.248 201.287 180.5 202.042 180.5 202.69Z" fill="black" stroke="white"/>
<path d="M172.202 201.403C172.202 202.921 171.437 204.417 169.945 205.831C168.453 207.245 166.267 208.542 163.524 209.641C158.04 211.839 150.431 213.21 142 213.21C133.569 213.21 125.96 211.839 120.476 209.641C117.733 208.542 115.547 207.245 114.055 205.831C112.563 204.417 111.798 202.921 111.798 201.403C111.798 199.992 112.765 198.86 114.658 197.954C116.545 197.051 119.218 196.445 122.306 196.046C128.157 195.29 135.333 195.292 141.082 195.295C141.392 195.295 141.698 195.295 142 195.295C142.302 195.295 142.608 195.295 142.918 195.295C148.667 195.292 155.843 195.29 161.694 196.046C164.782 196.445 167.455 197.051 169.342 197.954C171.235 198.86 172.202 199.992 172.202 201.403Z" fill="black" stroke="white"/>
<path d="M152.2 82.8527C152.913 83.3381 153.438 83.8807 153.732 84.461L153.286 84.6866C153.429 84.9713 153.5 85.2554 153.5 85.5397C153.5 85.8239 153.429 86.1081 153.286 86.3927L153.732 86.6184C153.438 87.1987 152.913 87.7412 152.2 88.2266L151.919 87.8134C151.398 88.1676 150.761 88.4958 150.024 88.7856L150.206 89.251C149.556 89.5066 148.837 89.7302 148.065 89.9164L147.948 89.4303C147.271 89.5933 146.549 89.7271 145.792 89.8275L145.858 90.3231C145.14 90.4183 144.392 90.4837 143.622 90.5162L143.601 90.0166C143.239 90.0319 142.872 90.0397 142.5 90.0397C142.128 90.0397 141.761 90.0319 141.399 90.0166L141.378 90.5162C140.608 90.4837 139.86 90.4183 139.142 90.3231L139.208 89.8275C138.451 89.7271 137.729 89.5933 137.052 89.4303L136.935 89.9164C136.163 89.7302 135.444 89.5066 134.794 89.251L134.977 88.7856C134.239 88.4958 133.602 88.1676 133.081 87.8134L132.8 88.2266C132.087 87.7412 131.562 87.1987 131.268 86.6184L131.714 86.3927C131.571 86.1081 131.5 85.8239 131.5 85.5397C131.5 85.2554 131.571 84.9713 131.714 84.6866L131.268 84.461C131.562 83.8807 132.087 83.3381 132.8 82.8527L133.081 83.266C133.602 82.9117 134.239 82.5835 134.976 82.2937L134.794 81.8283C135.444 81.5728 136.163 81.3491 136.935 81.163L137.052 81.6491C137.729 81.4861 138.451 81.3522 139.208 81.2519L139.142 80.7562C139.86 80.661 140.608 80.5956 141.378 80.5632L141.399 81.0627C141.761 81.0475 142.128 81.0397 142.5 81.0397C142.872 81.0397 143.239 81.0475 143.601 81.0627L143.622 80.5632C144.392 80.5956 145.14 80.661 145.858 80.7562L145.792 81.2519C146.549 81.3522 147.271 81.4861 147.948 81.6491L148.065 81.163C148.837 81.3491 149.556 81.5728 150.206 81.8283L150.024 82.2937C150.761 82.5835 151.398 82.9117 151.919 83.266L152.2 82.8527Z" stroke="white" stroke-dasharray="2 2"/>
<path d="M195.607 82.6174C195.78 83.2555 195.897 83.9014 195.956 84.554L195.458 84.5988C195.486 84.9108 195.5 85.2244 195.5 85.5396C195.5 85.8547 195.486 86.1683 195.458 86.4803L195.956 86.5251C195.897 87.1777 195.78 87.8236 195.607 88.4617L195.125 88.3311C194.963 88.9306 194.748 89.5245 194.484 90.1119L194.94 90.3172C194.676 90.9024 194.365 91.4799 194.009 92.0488L193.585 91.7833C193.255 92.3098 192.884 92.8302 192.473 93.3436L192.863 93.6562C192.463 94.1554 192.028 94.6469 191.558 95.1301L191.199 94.7814C190.763 95.2299 190.296 95.6718 189.798 96.1067L190.127 96.4832C189.644 96.9057 189.133 97.321 188.596 97.7285L188.294 97.3304C187.79 97.7134 187.261 98.09 186.71 98.4596L186.988 98.8749C186.453 99.2335 185.897 99.5853 185.32 99.9298L185.064 99.5007C184.518 99.8271 183.953 100.147 183.37 100.461L183.607 100.901C183.038 101.207 182.453 101.506 181.852 101.799L181.633 101.349C181.058 101.63 180.467 101.904 179.861 102.172L180.064 102.629C179.471 102.891 178.865 103.147 178.246 103.396L178.06 102.933C177.463 103.173 176.854 103.408 176.232 103.636L176.405 104.106C175.796 104.33 175.175 104.548 174.544 104.76L174.385 104.286C173.774 104.491 173.153 104.691 172.522 104.884L172.669 105.362C172.048 105.553 171.418 105.738 170.779 105.917L170.644 105.435C170.022 105.609 169.391 105.778 168.752 105.941L168.875 106.425C168.244 106.586 167.605 106.741 166.959 106.89L166.846 106.403C166.215 106.549 165.576 106.689 164.93 106.824L165.032 107.314C164.393 107.447 163.747 107.575 163.095 107.697L163.003 107.205C162.365 107.325 161.721 107.439 161.071 107.547L161.153 108.041C160.51 108.148 159.862 108.25 159.208 108.346L159.135 107.851C158.493 107.946 157.845 108.035 157.191 108.119L157.255 108.615C156.607 108.698 155.953 108.776 155.295 108.849L155.241 108.352C154.593 108.423 153.941 108.489 153.284 108.55L153.33 109.048C152.681 109.107 152.027 109.162 151.369 109.211L151.332 108.713C150.683 108.761 150.03 108.805 149.373 108.842L149.402 109.342C148.749 109.379 148.092 109.412 147.431 109.439L147.411 108.939C146.759 108.966 146.104 108.988 145.446 109.004L145.459 109.503C144.805 109.519 144.149 109.53 143.49 109.536L143.486 109.036C143.158 109.038 142.829 109.04 142.5 109.04C142.171 109.04 141.842 109.038 141.514 109.036L141.51 109.536C140.851 109.53 140.195 109.519 139.541 109.503L139.554 109.004C138.896 108.988 138.241 108.966 137.589 108.939L137.569 109.439C136.908 109.412 136.251 109.379 135.598 109.342L135.627 108.842C134.97 108.805 134.317 108.761 133.668 108.713L133.631 109.211C132.973 109.162 132.319 109.107 131.67 109.048L131.716 108.55C131.059 108.489 130.407 108.423 129.759 108.352L129.705 108.849C129.047 108.776 128.393 108.698 127.745 108.615L127.809 108.119C127.155 108.035 126.508 107.946 125.865 107.851L125.792 108.346C125.138 108.25 124.49 108.148 123.847 108.041L123.929 107.547C123.279 107.439 122.635 107.325 121.997 107.205L121.905 107.697C121.253 107.575 120.607 107.447 119.968 107.314L120.07 106.824C119.424 106.689 118.785 106.549 118.154 106.403L118.041 106.89C117.395 106.741 116.756 106.586 116.125 106.425L116.248 105.941C115.609 105.778 114.978 105.609 114.356 105.435L114.221 105.917C113.582 105.738 112.952 105.553 112.331 105.362L112.478 104.884C111.847 104.691 111.226 104.491 110.615 104.286L110.456 104.76C109.825 104.548 109.204 104.33 108.595 104.106L108.768 103.636C108.146 103.408 107.537 103.173 106.94 102.933L106.754 103.396C106.135 103.147 105.529 102.891 104.936 102.629L105.139 102.172C104.533 101.904 103.942 101.63 103.367 101.349L103.148 101.799C102.547 101.506 101.962 101.207 101.393 100.901L101.63 100.461C101.047 100.147 100.482 99.8271 99.9364 99.5007L99.6798 99.9298C99.1035 99.5853 98.5473 99.2335 98.0122 98.8749L98.2905 98.4596C97.7389 98.09 97.2104 97.7134 96.706 97.3304L96.4036 97.7285C95.867 97.321 95.3564 96.9057 94.873 96.4832L95.202 96.1067C94.7045 95.6718 94.2371 95.2299 93.8008 94.7814L93.4424 95.1301C92.9724 94.6469 92.5367 94.1554 92.1369 93.6562L92.5272 93.3436C92.1159 92.8302 91.7447 92.3098 91.4148 91.7833L90.9911 92.0488C90.6346 91.4799 90.3236 90.9024 90.0601 90.3172L90.516 90.1119C90.2515 89.5245 90.0374 88.9306 89.8752 88.3311L89.3926 88.4617C89.2199 87.8236 89.103 87.1777 89.0443 86.5251L89.5423 86.4803C89.5142 86.1683 89.5 85.8547 89.5 85.5396C89.5 85.2244 89.5142 84.9108 89.5423 84.5988L89.0443 84.554C89.103 83.9014 89.2199 83.2555 89.3926 82.6174L89.8752 82.748C90.0374 82.1485 90.2515 81.5546 90.516 80.9672L90.0601 80.7619C90.3236 80.1767 90.6346 79.5992 90.9911 79.0303L91.4148 79.2958C91.7447 78.7693 92.1159 78.2489 92.5272 77.7355L92.1369 77.4229C92.5367 76.9237 92.9724 76.4322 93.4424 75.949L93.8008 76.2977C94.2371 75.8492 94.7045 75.4073 95.202 74.9724L94.873 74.5959C95.3564 74.1734 95.867 73.7581 96.4036 73.3506L96.706 73.7487C97.2104 73.3657 97.7389 72.9891 98.2905 72.6195L98.0122 72.2042C98.5473 71.8456 99.1035 71.4938 99.6798 71.1493L99.9364 71.5784C100.482 71.252 101.047 70.9318 101.63 70.6182L101.393 70.1779C101.962 69.8721 102.547 69.5728 103.148 69.2802L103.367 69.7297C103.942 69.4495 104.533 69.1753 105.139 68.9074L104.936 68.4502C105.529 68.1882 106.135 67.9323 106.754 67.6828L106.94 68.1465C107.537 67.906 108.146 67.6713 108.768 67.4428L108.595 66.9735C109.204 66.7493 109.825 66.5311 110.456 66.3189L110.615 66.7928C111.226 66.5877 111.847 66.3882 112.478 66.1946L112.331 65.7166C112.952 65.5261 113.582 65.3414 114.221 65.1625L114.356 65.644C114.978 65.4698 115.609 65.3013 116.248 65.1385L116.125 64.6539C116.756 64.4933 117.395 64.3382 118.041 64.1889L118.154 64.676C118.785 64.5301 119.424 64.3897 120.07 64.255L119.968 63.7655C120.607 63.6322 121.253 63.5044 121.905 63.3822L121.997 63.8737C122.635 63.7543 123.279 63.6403 123.929 63.5318L123.847 63.0386C124.49 62.9313 125.138 62.8295 125.792 62.7331L125.865 63.2278C126.507 63.1331 127.155 63.0437 127.809 62.9598L127.745 62.4639C128.393 62.3807 129.047 62.3027 129.705 62.2303L129.759 62.7273C130.407 62.656 131.059 62.59 131.716 62.5295L131.67 62.0316C132.319 61.9717 132.973 61.917 133.631 61.8678L133.668 62.3664C134.317 62.3178 134.97 62.2745 135.627 62.2366L135.598 61.7374C136.251 61.6997 136.908 61.6672 137.569 61.6401L137.589 62.1397C138.241 62.113 138.896 62.0916 139.554 62.0755L139.541 61.5756C140.195 61.5597 140.851 61.5489 141.51 61.5436L141.514 62.0436C141.842 62.0409 142.171 62.0396 142.5 62.0396C142.829 62.0396 143.158 62.0409 143.486 62.0436L143.49 61.5436C144.149 61.5489 144.805 61.5597 145.459 61.5756L145.446 62.0755C146.104 62.0916 146.759 62.113 147.411 62.1397L147.431 61.6401C148.092 61.6672 148.749 61.6997 149.402 61.7374L149.373 62.2366C150.03 62.2745 150.683 62.3178 151.332 62.3664L151.369 61.8678C152.027 61.917 152.681 61.9717 153.33 62.0316L153.284 62.5295C153.941 62.59 154.593 62.656 155.241 62.7273L155.295 62.2303C155.953 62.3027 156.607 62.3807 157.255 62.4639L157.191 62.9598C157.845 63.0437 158.492 63.1331 159.135 63.2277L159.208 62.7331C159.862 62.8295 160.51 62.9313 161.153 63.0386L161.071 63.5318C161.721 63.6403 162.365 63.7543 163.003 63.8737L163.095 63.3822C163.747 63.5044 164.393 63.6322 165.032 63.7655L164.93 64.2549C165.576 64.3897 166.215 64.5301 166.846 64.676L166.959 64.1889C167.605 64.3382 168.244 64.4933 168.875 64.6539L168.752 65.1385C169.391 65.3013 170.022 65.4698 170.644 65.644L170.779 65.1625C171.418 65.3414 172.048 65.5261 172.669 65.7166L172.522 66.1946C173.153 66.3882 173.774 66.5877 174.385 66.7928L174.544 66.3189C175.175 66.5311 175.796 66.7493 176.405 66.9735L176.232 67.4428C176.854 67.6713 177.463 67.906 178.06 68.1465L178.246 67.6828C178.865 67.9323 179.471 68.1882 180.064 68.4502L179.861 68.9074C180.467 69.1753 181.058 69.4495 181.633 69.7297L181.852 69.2802C182.453 69.5728 183.038 69.8721 183.607 70.1779L183.37 70.6182C183.953 70.9318 184.518 71.252 185.064 71.5784L185.32 71.1493C185.897 71.4938 186.453 71.8456 186.988 72.2042L186.71 72.6195C187.261 72.9891 187.79 73.3657 188.294 73.7487L188.596 73.3506C189.133 73.7581 189.644 74.1734 190.127 74.5959L189.798 74.9724C190.296 75.4073 190.763 75.8492 191.199 76.2977L191.558 75.949C192.028 76.4322 192.463 76.9237 192.863 77.4229L192.473 77.7355C192.884 78.2489 193.255 78.7693 193.585 79.2958L194.009 79.0303C194.365 79.5992 194.676 80.1767 194.94 80.7619L194.484 80.9672C194.748 81.5546 194.963 82.1485 195.125 82.748L195.607 82.6174Z" stroke="white" stroke-dasharray="2 2"/>
<path d="M227.737 82.5359C227.853 83.1966 227.931 83.8621 227.971 84.5319L227.471 84.5611C227.49 84.8862 227.5 85.2124 227.5 85.5396C227.5 85.8667 227.49 86.1929 227.471 86.518L227.971 86.5472C227.931 87.217 227.853 87.8825 227.737 88.5432L227.244 88.4566C227.132 89.0951 226.983 89.7295 226.798 90.3594L227.278 90.5001C227.091 91.1374 226.869 91.7698 226.612 92.3968L226.149 92.2071C225.904 92.8043 225.627 93.3972 225.317 93.9855L225.76 94.2181C225.453 94.8027 225.115 95.382 224.748 95.9558L224.327 95.6863C223.978 96.2308 223.602 96.7708 223.199 97.3061L223.599 97.6068C223.202 98.1338 222.78 98.6556 222.333 99.172L221.955 98.8449C221.53 99.3364 221.082 99.8233 220.611 100.305L220.969 100.655C220.506 101.128 220.023 101.597 219.519 102.06L219.181 101.692C218.702 102.131 218.205 102.567 217.689 102.997L218.009 103.381C217.503 103.803 216.98 104.221 216.44 104.633L216.136 104.235C215.616 104.632 215.08 105.025 214.528 105.413L214.816 105.822C214.273 106.203 213.715 106.58 213.143 106.953L212.87 106.534C212.32 106.891 211.757 107.244 211.181 107.593L211.439 108.021C210.874 108.362 210.296 108.7 209.706 109.033L209.461 108.597C208.886 108.921 208.3 109.241 207.702 109.557L207.936 109.999C207.349 110.309 206.75 110.615 206.141 110.916L205.92 110.468C205.331 110.76 204.732 111.047 204.122 111.331L204.333 111.784C203.73 112.065 203.116 112.342 202.493 112.614L202.293 112.156C201.688 112.421 201.075 112.682 200.452 112.938L200.643 113.401C200.029 113.654 199.408 113.903 198.778 114.148L198.596 113.682C197.976 113.923 197.348 114.16 196.712 114.393L196.884 114.863C196.263 115.091 195.635 115.315 194.999 115.535L194.836 115.062C194.208 115.279 193.573 115.493 192.932 115.703L193.087 116.178C192.455 116.384 191.816 116.587 191.171 116.786L191.024 116.308C190.39 116.503 189.75 116.695 189.104 116.883L189.244 117.363C188.603 117.549 187.956 117.732 187.303 117.911L187.171 117.429C186.532 117.604 185.888 117.775 185.238 117.943L185.363 118.427C184.715 118.594 184.061 118.758 183.402 118.917L183.284 118.432C182.641 118.587 181.993 118.74 181.34 118.889L181.452 119.376C180.798 119.525 180.14 119.67 179.477 119.812L179.373 119.323C178.725 119.461 178.073 119.596 177.417 119.727L177.515 120.217C176.858 120.348 176.197 120.476 175.531 120.6L175.44 120.108C174.788 120.23 174.132 120.348 173.472 120.462L173.558 120.955C172.898 121.069 172.234 121.18 171.566 121.287L171.487 120.794C170.832 120.899 170.173 121.001 169.51 121.099L169.583 121.594C168.921 121.692 168.255 121.787 167.585 121.878L167.517 121.382C166.859 121.472 166.198 121.558 165.533 121.641L165.595 122.137C164.93 122.22 164.262 122.299 163.59 122.375L163.534 121.878C162.874 121.952 162.211 122.023 161.545 122.091L161.595 122.588C160.928 122.656 160.258 122.72 159.585 122.781L159.54 122.283C158.878 122.342 158.214 122.399 157.547 122.451L157.586 122.95C156.917 123.003 156.246 123.052 155.572 123.098L155.538 122.599C154.875 122.645 154.209 122.686 153.541 122.725L153.57 123.224C152.901 123.262 152.229 123.297 151.555 123.329L151.532 122.83C150.867 122.861 150.2 122.888 149.531 122.913L149.549 123.412C148.88 123.437 148.208 123.457 147.534 123.475L147.521 122.975C146.855 122.992 146.187 123.006 145.517 123.016L145.524 123.516C144.855 123.527 144.184 123.533 143.511 123.537L143.508 123.037C143.173 123.039 142.837 123.04 142.5 123.04C142.163 123.04 141.827 123.039 141.492 123.037L141.489 123.537C140.816 123.533 140.145 123.527 139.476 123.516L139.483 123.016C138.813 123.006 138.145 122.992 137.479 122.975L137.466 123.475C136.792 123.457 136.12 123.437 135.451 123.412L135.469 122.913C134.8 122.888 134.133 122.861 133.468 122.83L133.445 123.329C132.771 123.297 132.099 123.262 131.43 123.224L131.459 122.725C130.791 122.686 130.125 122.645 129.462 122.599L129.428 123.098C128.754 123.052 128.083 123.003 127.414 122.95L127.453 122.451C126.786 122.399 126.122 122.342 125.46 122.283L125.415 122.781C124.742 122.72 124.072 122.656 123.405 122.588L123.455 122.091C122.789 122.023 122.126 121.952 121.466 121.878L121.41 122.375C120.738 122.299 120.07 122.22 119.405 122.137L119.467 121.641C118.802 121.558 118.141 121.472 117.483 121.382L117.415 121.878C116.745 121.787 116.079 121.692 115.417 121.594L115.49 121.099C114.827 121.001 114.168 120.899 113.513 120.794L113.434 121.287C112.766 121.18 112.102 121.069 111.442 120.955L111.528 120.462C110.868 120.348 110.212 120.23 109.56 120.108L109.469 120.6C108.803 120.476 108.142 120.348 107.485 120.217L107.583 119.727C106.927 119.596 106.275 119.461 105.627 119.323L105.523 119.812C104.86 119.67 104.202 119.525 103.548 119.376L103.66 118.889C103.007 118.74 102.359 118.587 101.716 118.432L101.598 118.917C100.939 118.758 100.285 118.594 99.6371 118.427L99.762 117.943C99.1123 117.775 98.4681 117.604 97.8295 117.429L97.6974 117.911C97.0445 117.732 96.3974 117.549 95.7563 117.363L95.8959 116.883C95.2499 116.695 94.61 116.503 93.9764 116.308L93.8292 116.786C93.1839 116.587 92.5452 116.384 91.913 116.178L92.0683 115.703C91.4267 115.493 90.792 115.279 90.1645 115.062L90.0009 115.535C89.3653 115.315 88.737 115.091 88.116 114.863L88.2882 114.393C87.6521 114.16 87.0238 113.923 86.4036 113.682L86.2224 114.148C85.5924 113.903 84.9706 113.654 84.3571 113.401L84.5478 112.938C83.9254 112.682 83.3117 112.421 82.707 112.156L82.5065 112.614C81.8838 112.342 81.2704 112.065 80.6667 111.784L80.8776 111.331C80.2685 111.047 79.6694 110.76 79.0804 110.468L78.8586 110.916C78.2497 110.615 77.6515 110.309 77.0642 109.999L77.2976 109.557C76.6998 109.241 76.1136 108.921 75.5393 108.597L75.2936 109.033C74.7035 108.7 74.1258 108.362 73.5605 108.021L73.8193 107.593C73.2427 107.244 72.6796 106.891 72.1301 106.534L71.8575 106.953C71.2851 106.581 70.7272 106.203 70.1842 105.822L70.4717 105.413C69.9198 105.025 69.3837 104.632 68.8637 104.235L68.5603 104.633C68.0201 104.221 67.4969 103.803 66.991 103.381L67.3113 102.997C66.7951 102.567 66.2976 102.131 65.8191 101.692L65.4808 102.06C64.9769 101.597 64.4936 101.128 64.0313 100.655L64.389 100.305C63.9182 99.8233 63.47 99.3364 63.0448 98.8449L62.6667 99.172C62.22 98.6556 61.7979 98.1338 61.4011 97.6068L61.8006 97.3061C61.3976 96.7708 61.0216 96.2308 60.6732 95.6863L60.252 95.9558C59.8848 95.382 59.5472 94.8027 59.24 94.2181L59.6825 93.9855C59.3733 93.3972 59.0959 92.8043 58.851 92.207L58.3884 92.3967C58.1313 91.7698 57.9089 91.1374 57.7219 90.5001L58.2017 90.3594C58.0169 89.7294 57.868 89.0951 57.7556 88.4566L57.2632 88.5432C57.1469 87.8825 57.0687 87.217 57.0295 86.5472L57.5286 86.518C57.5096 86.1929 57.5 85.8667 57.5 85.5396C57.5 85.2124 57.5096 84.8862 57.5286 84.5611L57.0295 84.5319C57.0687 83.8621 57.1469 83.1966 57.2632 82.5359L57.7556 82.6225C57.868 81.984 58.0169 81.3496 58.2017 80.7197L57.7219 80.579C57.9089 79.9417 58.1313 79.3093 58.3884 78.6824L58.851 78.8721C59.0959 78.2748 59.3733 77.6819 59.6825 77.0936L59.24 76.861C59.5472 76.2764 59.8848 75.6971 60.252 75.1233L60.6732 75.3928C61.0216 74.8483 61.3976 74.3083 61.8006 73.773L61.4011 73.4723C61.7979 72.9453 62.22 72.4235 62.6667 71.9071L63.0448 72.2342C63.47 71.7427 63.9182 71.2558 64.389 70.7737L64.0313 70.4243C64.4936 69.9509 64.9769 69.4825 65.4808 69.0194L65.8191 69.3875C66.2976 68.9477 66.7951 68.5123 67.3113 68.0817L66.991 67.6978C67.4969 67.2758 68.0201 66.8585 68.5603 66.4462L68.8637 66.8436C69.3837 66.4467 69.9198 66.0542 70.4717 65.6663L70.1842 65.2573C70.7272 64.8756 71.2851 64.4986 71.8575 64.1263L72.1301 64.5455C72.6795 64.1881 73.2427 63.835 73.8192 63.4864L73.5605 63.0585C74.1257 62.7167 74.7035 62.3793 75.2936 62.0463L75.5393 62.4818C76.1136 62.1577 76.6998 61.8378 77.2976 61.5222L77.0642 61.08C77.6514 60.77 78.2496 60.4642 78.8585 60.1628L79.0804 60.6109C79.6693 60.3193 80.2685 60.0318 80.8776 59.7484L80.6666 59.2951C81.2704 59.0142 81.8838 58.7374 82.5065 58.4648L82.707 58.9228C83.3117 58.6581 83.9254 58.3974 84.5478 58.1407L84.3571 57.6784C84.9706 57.4255 85.5924 57.1764 86.2224 56.9314L86.4036 57.3974C87.0238 57.1562 87.6521 56.9189 88.2882 56.6856L88.116 56.2162C88.737 55.9884 89.3653 55.7645 90.0009 55.5445L90.1644 56.0169C90.792 55.7997 91.4267 55.5862 92.0683 55.3766L91.913 54.9013C92.5452 54.6948 93.1839 54.492 93.8291 54.2931L93.9764 54.7709C94.61 54.5756 95.2499 54.384 95.8959 54.1962L95.7563 53.7161C96.3974 53.5297 97.0445 53.347 97.6974 53.1682L97.8295 53.6504C98.4681 53.4755 99.1123 53.3041 99.762 53.1365L99.6371 52.6524C100.285 52.4851 100.939 52.3215 101.598 52.1617L101.716 52.6476C102.359 52.4916 103.007 52.3393 103.66 52.1905L103.548 51.703C104.202 51.5541 104.86 51.4089 105.523 51.2674L105.627 51.7563C106.275 51.6181 106.927 51.4834 107.583 51.3523L107.485 50.862C108.142 50.7308 108.803 50.6032 109.469 50.4792L109.56 50.9707C110.212 50.8493 110.868 50.7313 111.528 50.6169L111.442 50.1243C112.102 50.0099 112.766 49.899 113.434 49.7918L113.513 50.2854C114.168 50.1802 114.827 50.0784 115.49 49.9801L115.417 49.4855C116.079 49.3872 116.745 49.2925 117.415 49.2013L117.483 49.6967C118.141 49.6071 118.802 49.5209 119.467 49.4382L119.405 48.942C120.07 48.8593 120.738 48.7801 121.41 48.7044L121.466 49.2012C122.126 49.1268 122.789 49.0558 123.455 48.9882L123.405 48.4908C124.072 48.4231 124.742 48.359 125.415 48.2983L125.46 48.7963C126.122 48.7367 126.786 48.6804 127.453 48.6277L127.414 48.1292C128.083 48.0763 128.754 48.0268 129.428 47.9809L129.462 48.4797C130.125 48.4345 130.791 48.3927 131.459 48.3543L131.43 47.8551C132.099 47.8167 132.771 47.7817 133.445 47.7501L133.468 48.2496C134.133 48.2185 134.8 48.1908 135.469 48.1665L135.451 47.6668C136.12 47.6426 136.792 47.6217 137.466 47.6043L137.479 48.1042C138.145 48.087 138.813 48.0732 139.483 48.0628L139.476 47.5629C140.145 47.5525 140.816 47.5456 141.489 47.5422L141.492 48.0421C141.827 48.0404 142.163 48.0396 142.5 48.0396C142.837 48.0396 143.173 48.0404 143.508 48.0421L143.511 47.5422C144.184 47.5456 144.855 47.5525 145.524 47.5629L145.517 48.0628C146.187 48.0732 146.855 48.087 147.521 48.1042L147.534 47.6043C148.208 47.6217 148.88 47.6426 149.549 47.6668L149.531 48.1665C150.2 48.1908 150.867 48.2185 151.532 48.2496L151.555 47.7501C152.229 47.7817 152.901 47.8167 153.57 47.8551L153.542 48.3543C154.209 48.3927 154.875 48.4345 155.538 48.4797L155.572 47.9809C156.246 48.0268 156.917 48.0763 157.586 48.1292L157.547 48.6277C158.214 48.6804 158.878 48.7367 159.54 48.7963L159.585 48.2983C160.258 48.359 160.928 48.4231 161.595 48.4908L161.545 48.9882C162.211 49.0558 162.874 49.1268 163.534 49.2012L163.59 48.7044C164.262 48.7801 164.93 48.8593 165.595 48.942L165.533 49.4382C166.198 49.5209 166.859 49.6071 167.517 49.6967L167.585 49.2013C168.255 49.2925 168.921 49.3872 169.583 49.4855L169.51 49.9801C170.173 50.0784 170.832 50.1802 171.487 50.2854L171.566 49.7918C172.234 49.899 172.898 50.0099 173.558 50.1243L173.472 50.6169C174.132 50.7313 174.788 50.8493 175.44 50.9707L175.531 50.4792C176.197 50.6032 176.858 50.7308 177.515 50.862L177.417 51.3523C178.073 51.4834 178.725 51.6181 179.373 51.7563L179.477 51.2674C180.14 51.4089 180.798 51.5541 181.452 51.703L181.34 52.1905C181.993 52.3393 182.641 52.4916 183.284 52.6476L183.402 52.1617C184.061 52.3215 184.715 52.4851 185.363 52.6524L185.238 53.1365C185.888 53.3041 186.532 53.4754 187.17 53.6504L187.303 53.1682C187.956 53.347 188.603 53.5297 189.244 53.7161L189.104 54.1962C189.75 54.384 190.39 54.5756 191.024 54.7709L191.171 54.2931C191.816 54.492 192.455 54.6948 193.087 54.9013L192.932 55.3766C193.573 55.5862 194.208 55.7997 194.836 56.0169L194.999 55.5445C195.635 55.7645 196.263 55.9884 196.884 56.2162L196.712 56.6856C197.348 56.9189 197.976 57.1562 198.596 57.3974L198.778 56.9314C199.408 57.1764 200.029 57.4254 200.643 57.6784L200.452 58.1407C201.075 58.3974 201.688 58.6581 202.293 58.9228L202.493 58.4648C203.116 58.7374 203.73 59.0142 204.333 59.2951L204.122 59.7484C204.732 60.0318 205.331 60.3193 205.92 60.6109L206.141 60.1628C206.75 60.4642 207.349 60.77 207.936 61.08L207.702 61.5222C208.3 61.8378 208.886 62.1576 209.461 62.4817L209.706 62.0463C210.296 62.3792 210.874 62.7167 211.439 63.0585L211.181 63.4864C211.757 63.835 212.32 64.1881 212.87 64.5455L213.143 64.1263C213.715 64.4986 214.273 64.8756 214.816 65.2572L214.528 65.6663C215.08 66.0542 215.616 66.4467 216.136 66.8436L216.44 66.4462C216.98 66.8585 217.503 67.2758 218.009 67.6978L217.689 68.0817C218.205 68.5123 218.702 68.9477 219.181 69.3875L219.519 69.0194C220.023 69.4825 220.506 69.9509 220.969 70.4243L220.611 70.7737C221.082 71.2558 221.53 71.7427 221.955 72.2342L222.333 71.9071C222.78 72.4235 223.202 72.9453 223.599 73.4723L223.199 73.773C223.602 74.3083 223.978 74.8483 224.327 75.3928L224.748 75.1233C225.115 75.6971 225.453 76.2764 225.76 76.861L225.317 77.0936C225.627 77.6819 225.904 78.2748 226.149 78.8721L226.612 78.6824C226.869 79.3093 227.091 79.9417 227.278 80.579L226.798 80.7197C226.983 81.3497 227.132 81.984 227.244 82.6225L227.737 82.5359Z" stroke="white" stroke-dasharray="2 2"/>
<circle r="3.5" transform="matrix(-1 0 0 1 149.5 82.0397)" fill="#2BB2FF"/>
<circle cx="195.5" cy="82.0397" r="3.5" fill="#BB6BD9"/>
<circle cx="227.5" cy="82.0397" r="3.5" fill="#FF0F57"/>
<path fill-rule="evenodd" clip-rule="evenodd" d="M158.538 67.6516C158.517 67.5569 158.489 67.4629 158.453 67.3696C158.396 67.2189 158.319 67.07 158.222 66.923C158.197 66.8854 158.172 66.848 158.144 66.8107C158.084 66.7276 158.017 66.6451 157.944 66.5633C157.898 66.5117 157.849 66.4604 157.798 66.4093C157.781 66.3927 157.765 66.3764 157.748 66.3604C157.558 66.1794 157.359 66.0377 157.151 65.9353C156.85 65.7876 156.53 65.7217 156.19 65.7376C156.111 65.7412 156.032 65.7492 155.952 65.7616C155.419 65.8404 154.882 66.0982 154.338 66.5348C154.289 66.5747 154.239 66.6162 154.189 66.6591C154.071 66.7608 153.953 66.8709 153.834 66.9894L151.485 69.3386L157.116 74.9699L158.518 73.5681L156.575 71.6249L157.45 70.75L160.447 71.6394L161.955 70.1313L161.897 70.0733L158.364 69.092C158.456 68.8534 158.52 68.6262 158.553 68.4104C158.563 68.3422 158.571 68.2751 158.576 68.2092C158.579 68.1554 158.581 68.1024 158.581 68.0501C158.581 67.9851 158.577 67.9213 158.571 67.8587C158.564 67.7882 158.553 67.7191 158.538 67.6516ZM162.637 69.4497L166.774 65.3121L165.653 64.1906L162.917 66.9265L161.694 65.7036L164.019 63.3786L162.893 62.2523L160.568 64.5773L159.538 63.5478L162.279 60.807L161.148 59.6759L157.005 63.8184L162.637 69.4497ZM153.227 62.5029C152.358 62.9513 151.619 63.548 151.006 64.1609L148.657 66.5101C147.095 68.0722 147.095 70.6049 148.657 72.167L154.288 77.7983C155.85 79.3604 158.383 79.3604 159.945 77.7983L161.347 76.3965C161.686 76.0575 161.951 75.6727 162.143 75.2621C162.557 75.0682 162.941 74.8018 163.275 74.4679L164.783 72.9597C164.899 72.8444 165.006 72.7238 165.104 72.5986C165.229 72.5003 165.35 72.3935 165.465 72.2782L169.603 68.1405C169.711 68.0326 169.811 67.9201 169.904 67.8037C170.02 67.7107 170.133 67.6103 170.241 67.5024L171.643 66.1007C172.947 64.7958 173.162 62.8137 172.287 61.2858C172.653 60.6252 172.934 59.8917 173.078 59.0848C173.103 59.093 173.128 59.101 173.153 59.109L173.166 59.1127C174.515 59.5306 175.928 59.5641 177.311 59.1791L177.325 59.1754C178.682 58.7926 179.836 58.0616 180.778 57.1196C181.492 56.4064 182.081 55.5703 182.488 54.6168C183.083 54.4299 183.642 54.1008 184.114 53.6296L185.515 52.2278C185.91 51.8328 186.206 51.3757 186.401 50.8879C186.895 50.6897 187.351 50.3921 187.739 50.0043L189.136 48.6074C189.3 48.4434 189.447 48.2688 189.576 48.0857C189.759 47.9561 189.934 47.8094 190.098 47.6454L194.235 43.5078C195.798 41.9457 195.798 39.413 194.235 37.8509L193.114 36.7295C192.576 36.1916 191.923 35.8389 191.234 35.6714L190.801 35.2384C190.635 34.5449 190.281 33.8871 189.74 33.3459L188.609 32.2148C187.047 30.6527 184.514 30.6527 182.952 32.2148L178.81 36.3573C178.646 36.5212 178.499 36.6959 178.369 36.879C178.186 37.0085 178.012 37.1552 177.848 37.3192L176.451 38.7162C176.056 39.1112 175.761 39.5683 175.565 40.0561C175.072 40.2543 174.615 40.5518 174.227 40.9397L172.825 42.3415C172.353 42.8136 172.024 43.3745 171.837 43.9704C170.878 44.3792 170.04 44.9727 169.326 45.6864C168.373 46.6388 167.632 47.8139 167.261 49.2032C167.056 49.9654 166.977 50.7348 167.02 51.4959C166.057 51.4361 165.123 51.5955 164.258 51.9182C163.114 52.34 162.15 53.0164 161.355 53.8119L158.953 56.2143C158.846 56.3213 158.746 56.4329 158.654 56.5484C158.538 56.6408 158.426 56.7405 158.319 56.8475L154.177 60.99C153.735 61.4314 153.419 61.9503 153.227 62.5029ZM165.648 55.6688C165.296 55.7977 164.959 55.988 164.635 56.2398C164.491 56.3521 164.349 56.4766 164.211 56.6132C164.206 56.6174 164.202 56.6216 164.198 56.6259C164.193 56.6307 164.188 56.6355 164.183 56.6403M166.291 63.5526L167.412 64.674ZM165.648 55.6688C165.82 55.6043 165.991 55.5566 166.16 55.5258ZM165.931 60.2003L166.186 59.9456Z" fill="black"/>
<path d="M157.45 70.7501L156.575 71.6251L158.518 73.5682L157.116 74.97L151.485 69.3387L153.834 66.9895C154.55 66.2741 155.255 65.8648 155.951 65.7617C156.644 65.6554 157.26 65.8713 157.798 66.4094C158.198 66.809 158.444 67.2231 158.537 67.6517C158.631 68.0739 158.573 68.554 158.363 69.0922L161.897 70.0734L161.955 70.1314L160.447 71.6396L157.45 70.7501ZM155.449 70.4988L156.396 69.5514C156.979 68.9681 157.031 68.4364 156.551 67.9562C156.077 67.4825 155.536 67.5502 154.927 68.1593L154.018 69.068L155.449 70.4988Z" fill="#2AB2FF"/>
<path d="M164.019 63.3787L161.694 65.7037L162.917 66.9267L165.653 64.1908L166.774 65.3122L162.636 69.4499L157.005 63.8186L161.148 59.6761L162.279 60.8071L159.538 63.5479L160.568 64.5775L162.893 62.2524L164.019 63.3787Z" fill="#2AB2FF"/>
<path d="M166.963 61.421L168.814 63.2724L167.412 64.6741L161.781 59.0428L164.183 56.6405C164.641 56.1829 165.129 55.859 165.648 55.6689C166.164 55.4755 166.666 55.4336 167.156 55.5432C167.649 55.6495 168.084 55.8912 168.461 56.2683C169.019 56.8258 169.252 57.4815 169.162 58.2356C169.069 58.9864 168.661 59.7228 167.939 60.4446L166.963 61.421ZM165.836 60.2948L166.837 59.2942C167.133 58.9977 167.301 58.7077 167.34 58.4241C167.382 58.1373 167.295 57.886 167.079 57.67C166.831 57.4219 166.549 57.3043 166.233 57.3172C165.92 57.3269 165.619 57.4735 165.329 57.7571L164.314 58.7721L165.836 60.2948Z" fill="#2AB2FF"/>
<path d="M177.785 48.8968C178.336 49.4479 178.715 50.0424 178.921 50.6805C179.128 51.3185 179.144 51.9533 178.97 52.585C178.799 53.2133 178.459 53.7821 177.95 54.2913C177.437 54.8036 176.867 55.1484 176.239 55.3257C175.613 55.4997 174.983 55.4884 174.349 55.2919C173.711 55.0921 173.118 54.7215 172.57 54.1801L172.318 53.9287C171.764 53.3745 171.384 52.7783 171.178 52.1403C170.971 51.5022 170.954 50.869 171.125 50.2406C171.292 49.609 171.635 49.0338 172.154 48.515C172.663 48.0058 173.229 47.6658 173.851 47.495C174.476 47.321 175.109 47.3355 175.75 47.5385C176.392 47.7351 176.988 48.1057 177.539 48.6503L177.785 48.8968ZM176.161 50.0762C175.626 49.5413 175.108 49.2384 174.605 49.1675C174.105 49.0934 173.662 49.2497 173.276 49.6364C172.876 50.036 172.715 50.4839 172.792 50.9802C172.873 51.4732 173.18 51.9872 173.715 52.5221L173.938 52.7445C174.463 53.2697 174.979 53.5727 175.485 53.6532C175.99 53.7338 176.442 53.5759 176.838 53.1795C177.212 52.8057 177.362 52.3658 177.288 51.8599C177.217 51.3507 176.911 50.8255 176.369 50.2841L176.161 50.0762Z" fill="#2AB2FF"/>
<path d="M186.307 45.7791L184.91 47.176L179.178 45.8902L182.687 49.3995L181.285 50.8013L175.654 45.17L177.056 43.7682L182.793 45.0588L179.279 41.5447L180.676 40.1478L186.307 45.7791Z" fill="#2AB2FF"/>
<path d="M188.652 38.746L186.327 41.071L187.55 42.2939L190.285 39.558L191.407 40.6795L187.269 44.8171L181.638 39.1858L185.78 35.0433L186.912 36.1744L184.171 38.9151L185.2 39.9447L187.525 37.6197L188.652 38.746Z" fill="#2AB2FF"/>
<path d="M206.6 68.1785C207.177 68.8326 207.422 69.5642 207.335 70.373C207.251 71.1786 206.845 71.9456 206.117 72.6739C205.334 73.4569 204.478 73.8356 203.55 73.8098C202.622 73.7776 201.731 73.3474 200.877 72.5192L200.558 72.2002C199.717 71.3591 199.273 70.46 199.224 69.5029C199.179 68.5426 199.545 67.6742 200.321 66.8975C201.05 66.1693 201.815 65.7681 202.617 65.6939C203.42 65.6198 204.174 65.8712 204.88 66.448L203.483 67.845C202.832 67.2585 202.153 67.3181 201.448 68.0238C200.713 68.7585 200.848 69.6512 201.854 70.7017L202.211 71.0594C202.788 71.6362 203.294 71.9649 203.729 72.0455C204.167 72.1228 204.59 71.9585 204.996 71.5524C205.347 71.2012 205.54 70.866 205.576 70.547C205.614 70.2248 205.489 69.9025 205.199 69.5803L206.6 68.1785Z" fill="#BB6BD9"/>
<path d="M211.676 64.8142L209.496 66.9942L210.173 68.4637L208.771 69.8655L205.368 62.0058L206.683 60.691L214.562 64.0746L213.15 65.4861L211.676 64.8142ZM208.848 65.5924L210.264 64.1761L207.649 62.9822L208.848 65.5924Z" fill="#BB6BD9"/>
<path d="M211.246 56.128L216.447 58.5158L214.049 53.3244L215.901 51.4731L221.532 57.1044L220.125 58.511L218.985 57.3702L216.171 54.267L218.748 59.8886L217.815 60.8215L212.212 58.2548L215.301 61.0536L216.442 62.1943L215.035 63.6009L209.404 57.9696L211.246 56.128Z" fill="#BB6BD9"/>
<path d="M223.881 50.0665L221.556 52.3915L222.779 53.6144L225.515 50.8785L226.636 52L222.499 56.1376L216.867 50.5063L221.01 46.3638L222.141 47.4949L219.4 50.2356L220.43 51.2652L222.755 48.9402L223.881 50.0665Z" fill="#BB6BD9"/>
<path d="M227.608 47.1421L226.733 48.017L228.676 49.9601L227.274 51.3619L221.643 45.7306L223.992 43.3814C224.708 42.666 225.413 42.2568 226.109 42.1536C226.802 42.0473 227.418 42.2632 227.956 42.8014C228.356 43.2009 228.602 43.615 228.695 44.0436C228.789 44.4658 228.731 44.9459 228.521 45.4841L232.055 46.4653L232.113 46.5233L230.605 48.0315L227.608 47.1421ZM225.607 46.8907L226.554 45.9433C227.137 45.36 227.189 44.8283 226.709 44.3482C226.235 43.8744 225.694 43.9421 225.085 44.5512L224.176 45.4599L225.607 46.8907Z" fill="#BB6BD9"/>
<path d="M235.216 41.2739L233.036 43.4539L233.713 44.9234L232.311 46.3252L228.908 38.4655L230.223 37.1507L238.102 40.5343L236.69 41.9458L235.216 41.2739ZM232.388 42.0521L233.805 40.6358L231.19 39.4419L232.388 42.0521Z" fill="#BB6BD9"/>
<path d="M240.195 35.4154C240.008 35.2285 239.779 35.1576 239.509 35.2027C239.238 35.2478 238.867 35.4154 238.397 35.7054C237.926 35.9955 237.511 36.221 237.15 36.3822C236.789 36.5368 236.455 36.6287 236.149 36.6577C235.843 36.6867 235.559 36.6512 235.298 36.5513C235.034 36.4482 234.776 36.271 234.525 36.0196C234.042 35.5363 233.845 34.9369 233.935 34.2215C234.025 33.5061 234.388 32.831 235.023 32.1961C235.716 31.5033 236.433 31.1021 237.174 30.9925C237.915 30.8765 238.558 31.0908 239.103 31.6354L237.706 33.0324C237.499 32.8261 237.243 32.7375 236.937 32.7665C236.634 32.7923 236.342 32.9454 236.062 33.2257C235.814 33.4739 235.667 33.73 235.622 33.9943C235.577 34.2585 235.637 34.4728 235.801 34.6372C235.965 34.8015 236.18 34.8547 236.444 34.7967C236.705 34.7355 237.069 34.5647 237.536 34.2843C238.452 33.6978 239.215 33.3885 239.828 33.3562C240.443 33.3208 240.997 33.5496 241.49 34.0426C241.993 34.5453 242.193 35.1415 242.09 35.8311C241.983 36.5175 241.587 37.2039 240.901 37.8903C240.433 38.3575 239.936 38.704 239.407 38.9295C238.879 39.1551 238.371 39.2308 237.884 39.1567C237.401 39.0794 236.968 38.849 236.584 38.4655L237.986 37.0637C238.286 37.3634 238.593 37.4875 238.909 37.4359C239.228 37.3811 239.573 37.1684 239.944 36.7979C240.195 36.5465 240.342 36.2968 240.383 36.0486C240.429 35.7973 240.366 35.5862 240.195 35.4154Z" fill="#BB6BD9"/>
<path fill-rule="evenodd" clip-rule="evenodd" d="M208.77 69.8655L210.172 68.4637L209.496 66.9942L211.676 64.8142L213.15 65.4861L214.561 64.0746L206.682 60.691L205.368 62.0058L208.77 69.8655ZM207.227 69.2493C207.118 68.9117 206.94 68.5905 206.691 68.2857C206.683 68.2763 206.676 68.267 206.668 68.2576C206.646 68.2311 206.623 68.2047 206.6 68.1785L205.198 69.5803C205.378 69.7805 205.495 69.9807 205.549 70.1808C205.549 70.183 205.55 70.1852 205.55 70.1874C205.581 70.3073 205.59 70.4271 205.575 70.547C205.543 70.834 205.384 71.134 205.096 71.447C205.066 71.4799 205.035 71.5129 205.002 71.5461C205 71.5482 204.997 71.5503 204.995 71.5524C204.589 71.9585 204.167 72.1228 203.729 72.0455C203.691 72.0384 203.652 72.0293 203.612 72.0184C203.608 72.0173 203.604 72.0161 203.6 72.0149C203.466 71.9765 203.326 71.9161 203.18 71.8336C203.088 71.7818 202.993 71.7213 202.896 71.652C202.81 71.5902 202.721 71.5213 202.631 71.4456C202.515 71.349 202.396 71.2411 202.274 71.1219C202.267 71.1148 202.26 71.1078 202.253 71.1007C202.239 71.087 202.225 71.0733 202.211 71.0594L201.853 70.7017C201.755 70.5985 201.664 70.4969 201.582 70.3968C201.516 70.3157 201.455 70.2356 201.4 70.1565C201.326 70.0506 201.261 69.9465 201.207 69.8442C201.129 69.6985 201.072 69.5563 201.035 69.4179C201.034 69.4158 201.033 69.4137 201.033 69.4116C200.896 68.8991 201.035 68.4366 201.447 68.0238C201.485 67.9863 201.522 67.9506 201.56 67.9167C201.976 67.5391 202.383 67.3885 202.781 67.465C202.977 67.5028 203.171 67.596 203.363 67.7448C203.403 67.7758 203.443 67.8091 203.482 67.845L204.879 66.448C204.863 66.4345 204.846 66.4212 204.83 66.408C204.825 66.4043 204.82 66.4006 204.816 66.3969C204.81 66.3925 204.804 66.3882 204.799 66.3838C204.35 66.0346 203.882 65.8156 203.395 65.7268C203.141 65.6804 202.882 65.6695 202.617 65.6939C202.613 65.6943 202.61 65.6946 202.606 65.695C202.266 65.7277 201.933 65.8191 201.607 65.9692C201.166 66.1717 200.737 66.4812 200.321 66.8975C199.544 67.6742 199.179 68.5426 199.224 69.5029C199.27 70.4094 199.671 71.2638 200.428 72.0661C200.438 72.0766 200.448 72.0871 200.458 72.0975C200.49 72.1318 200.524 72.166 200.558 72.2002L200.877 72.5192C201.686 73.3037 202.528 73.7311 203.404 73.8014C203.409 73.8018 203.414 73.8022 203.419 73.8026C203.462 73.8059 203.506 73.8083 203.55 73.8098C204.44 73.8345 205.263 73.4876 206.019 72.769C206.052 72.738 206.084 72.7063 206.117 72.6739C206.523 72.2671 206.83 71.8483 207.035 71.4174C207.14 71.1982 207.219 70.9759 207.271 70.7505C207.272 70.7456 207.274 70.7407 207.275 70.7358C207.293 70.6555 207.308 70.5747 207.32 70.4935C207.326 70.4534 207.331 70.4133 207.335 70.373C207.357 70.1668 207.358 69.9657 207.337 69.7695C207.333 69.7333 207.328 69.6972 207.323 69.6613C207.302 69.5214 207.27 69.384 207.227 69.2493ZM210.469 73.487C210.056 74.2474 209.528 74.9195 208.945 75.5023C207.547 76.9006 205.676 77.8704 203.439 77.8082L203.411 77.8074C201.238 77.7319 199.452 76.709 198.092 75.3906C198.078 75.3764 198.063 75.3621 198.049 75.3476L197.73 75.0286C196.364 73.663 195.339 71.8752 195.229 69.7047L195.228 69.6906C195.122 67.4401 196.045 65.5169 197.493 64.0691C198.509 63.0524 199.804 62.1973 201.371 61.8486C201.409 60.8633 201.812 59.9044 202.539 59.1774L203.854 57.8626C204.34 57.3764 204.93 57.0352 205.563 56.8509C205.744 56.225 206.082 55.6347 206.575 55.1412L208.417 53.2995C208.92 52.7963 209.534 52.4489 210.19 52.2695C210.37 51.6132 210.717 50.9993 211.22 50.496L213.072 48.6447C213.237 48.4799 213.412 48.3325 213.596 48.2024C213.726 48.0183 213.874 47.8427 214.039 47.6779L218.181 43.5354C218.288 43.4284 218.4 43.3287 218.515 43.2363C218.608 43.1208 218.707 43.0092 218.814 42.9022L221.163 40.553C222.109 39.6079 223.354 38.7014 224.91 38.3175C224.947 37.329 225.35 36.3663 226.079 35.6371L227.394 34.3223C228.12 33.5962 229.078 33.1936 230.062 33.1539C230.388 31.6183 231.207 30.3544 232.194 29.3677C233.304 28.2576 234.761 27.3102 236.572 27.038C238.609 26.7246 240.515 27.3913 241.931 28.807C242.304 29.18 242.588 29.6083 242.782 30.0656C243.353 30.3721 243.868 30.7639 244.318 31.2142C245.697 32.5929 246.34 34.45 246.045 36.4227L246.042 36.4435C245.763 38.2444 244.783 39.6642 243.729 40.7187C243.14 41.3078 242.47 41.831 241.716 42.2475C241.523 42.6561 241.259 43.0342 240.93 43.3628L239.519 44.7742C238.98 45.3127 238.315 45.6729 237.606 45.8395C237.44 46.5479 237.08 47.2132 236.541 47.7518L235.139 49.1536C235.106 49.1866 235.073 49.2189 235.039 49.2505C235.007 49.2847 234.974 49.3185 234.941 49.3518L233.433 50.8599C233.099 51.1938 232.715 51.4602 232.301 51.6541C232.109 52.0648 231.843 52.4495 231.504 52.7886L230.102 54.1903C229.995 54.2982 229.882 54.3986 229.766 54.4916C229.673 54.608 229.572 54.7205 229.464 54.8284L225.327 58.9661C225.162 59.1309 224.986 59.2783 224.802 59.4083C224.672 59.5924 224.525 59.768 224.36 59.9328L222.953 61.3394C222.715 61.5774 222.455 61.7791 222.179 61.9446C222.013 62.2216 221.811 62.4815 221.576 62.717L220.643 63.65C220.408 63.8847 220.149 64.0855 219.873 64.2512C219.708 64.5262 219.507 64.7857 219.27 65.0227L217.863 66.4294C217.783 66.5094 217.701 66.5854 217.616 66.6572C217.544 66.7419 217.469 66.8239 217.39 66.9031L215.978 68.3145C215.44 68.853 214.774 69.2132 214.066 69.3798C213.899 70.0882 213.539 70.7535 213.001 71.2921L211.599 72.6939C211.266 73.0264 210.883 73.2928 210.469 73.487ZM217.814 60.8215L218.747 59.8886L216.171 54.267L218.984 57.3702L220.125 58.511L221.532 57.1044L215.9 51.4731L214.049 53.3244L216.446 58.5158L211.245 56.128L209.404 57.9696L215.035 63.6009L216.442 62.1943L215.301 61.0536L212.212 58.2548L217.814 60.8215ZM216.867 50.5063L222.498 56.1376L226.636 52L225.515 50.8785L222.779 53.6144L221.556 52.3915L223.881 50.0665L222.754 48.9402L220.429 51.2652L219.4 50.2356L222.141 47.4949L221.009 46.3638L216.867 50.5063ZM221.643 45.7306L227.274 51.3619L228.676 49.9601L226.733 48.017L227.608 47.1421L230.604 48.0315L232.113 46.5233L232.055 46.4653L228.521 45.4841C228.614 45.2455 228.677 45.0182 228.71 44.8024C228.74 44.6094 228.746 44.4255 228.728 44.2507C228.721 44.1802 228.71 44.1112 228.695 44.0436C228.674 43.9489 228.646 43.8549 228.611 43.7616C228.539 43.5724 228.436 43.3861 228.302 43.2027C228.241 43.1196 228.174 43.0372 228.101 42.9553C228.055 42.9038 228.007 42.8524 227.956 42.8014C227.426 42.2722 226.822 42.0546 226.144 42.1486C226.132 42.1502 226.121 42.1519 226.109 42.1536C225.577 42.2325 225.039 42.4902 224.496 42.9268C224.328 43.0614 224.16 43.2129 223.992 43.3814L221.643 45.7306ZM226.554 45.9433C226.589 45.9076 226.623 45.8722 226.655 45.8369C226.66 45.8306 226.666 45.8244 226.672 45.8181C226.801 45.671 226.896 45.5272 226.956 45.3868C227.027 45.2201 227.049 45.0581 227.023 44.9009C226.997 44.7498 226.927 44.6031 226.811 44.4608C226.809 44.459 226.808 44.4573 226.806 44.4555C226.777 44.4194 226.744 44.3837 226.708 44.3482C226.656 44.2953 226.602 44.2491 226.547 44.2097C226.503 44.1776 226.458 44.1499 226.412 44.1268C226.408 44.1248 226.404 44.1229 226.401 44.1211C226.176 44.011 225.937 44.0094 225.685 44.1163C225.595 44.1546 225.503 44.2068 225.409 44.2729C225.316 44.339 225.22 44.419 225.123 44.5128C225.11 44.5254 225.097 44.5381 225.084 44.5512L224.176 45.4599L225.606 46.8907L226.554 45.9433ZM232.311 46.3252L233.713 44.9234L233.036 43.4539L235.216 41.2739L236.69 41.9458L238.102 40.5343L230.223 37.1507L228.908 38.4655L232.311 46.3252ZM232.388 42.0521L233.804 40.6358L231.189 39.4419L232.388 42.0521ZM236.584 38.4655C236.698 38.5802 236.818 38.6812 236.941 38.7685C237.111 38.8887 237.29 38.9829 237.477 39.0512C237.609 39.0992 237.744 39.1344 237.884 39.1567C237.908 39.1604 237.932 39.1637 237.957 39.1667C238.086 39.1823 238.217 39.1875 238.349 39.1822C238.366 39.1815 238.382 39.1807 238.398 39.1797C238.498 39.1738 238.598 39.162 238.699 39.1443C238.767 39.1323 238.837 39.1174 238.907 39.0999C238.993 39.0781 239.08 39.052 239.168 39.0218C239.172 39.0204 239.176 39.0189 239.18 39.0174C239.255 38.9912 239.331 38.9619 239.407 38.9295C239.508 38.8862 239.609 38.8384 239.708 38.7861C239.83 38.7217 239.951 38.6505 240.07 38.5726C240.092 38.558 240.114 38.5432 240.136 38.5281C240.4 38.349 240.654 38.1364 240.9 37.8903C240.923 37.8676 240.945 37.8448 240.968 37.8221C240.98 37.8091 240.993 37.7961 241.005 37.7831C241.468 37.2993 241.786 36.8155 241.96 36.3317C241.962 36.3265 241.964 36.3212 241.966 36.3159C242.023 36.1543 242.064 35.9927 242.089 35.8311C242.161 35.3519 242.086 34.9178 241.866 34.5289C241.777 34.3725 241.664 34.2235 241.528 34.0817C241.516 34.0686 241.503 34.0556 241.49 34.0426C240.997 33.5496 240.443 33.3208 239.827 33.3562C239.742 33.3607 239.653 33.3707 239.561 33.386C239.546 33.3886 239.531 33.3913 239.516 33.3941C239.42 33.4118 239.321 33.4354 239.219 33.4648C239.207 33.468 239.196 33.4713 239.185 33.4746C238.954 33.5436 238.706 33.6419 238.443 33.7697C238.402 33.7893 238.361 33.8096 238.32 33.8306C238.311 33.8353 238.302 33.8401 238.292 33.8449C238.15 33.9181 238.004 33.9993 237.853 34.0888C237.794 34.1235 237.735 34.1595 237.675 34.1967C237.667 34.2019 237.658 34.2072 237.649 34.2125C237.612 34.236 237.574 34.2599 237.536 34.2843C237.532 34.2866 237.528 34.2889 237.525 34.2912C237.512 34.2985 237.5 34.3057 237.488 34.3129C237.482 34.3166 237.476 34.3203 237.469 34.324C237.402 34.364 237.336 34.4016 237.273 34.4368C237.271 34.4379 237.269 34.4391 237.267 34.4402C237.21 34.4714 237.156 34.5006 237.104 34.528C237.098 34.5308 237.093 34.5336 237.087 34.5364C237.042 34.5598 236.998 34.5818 236.955 34.6024C236.844 34.656 236.742 34.6998 236.649 34.7338C236.639 34.7374 236.63 34.7409 236.62 34.7442C236.566 34.7632 236.515 34.7788 236.467 34.7909C236.459 34.7929 236.451 34.7949 236.444 34.7967C236.443 34.7968 236.442 34.797 236.442 34.7971C236.271 34.8342 236.122 34.825 235.993 34.7696C235.989 34.768 235.986 34.7663 235.982 34.7645C235.98 34.7636 235.978 34.7627 235.976 34.7617C235.973 34.7606 235.971 34.7595 235.969 34.7584C235.929 34.7392 235.892 34.7156 235.857 34.6874C235.838 34.672 235.819 34.6553 235.801 34.6372C235.741 34.5778 235.696 34.5119 235.664 34.4395C235.607 34.3115 235.593 34.1631 235.622 33.9943C235.633 33.9284 235.651 33.863 235.675 33.7981C235.715 33.6895 235.772 33.5824 235.847 33.4766C235.848 33.4752 235.849 33.4738 235.85 33.4725C235.861 33.4576 235.872 33.4428 235.883 33.428C235.934 33.3617 235.992 33.2958 236.057 33.2306C236.059 33.229 236.06 33.2273 236.062 33.2257C236.065 33.2221 236.069 33.2185 236.073 33.215C236.079 33.2085 236.086 33.2021 236.092 33.1958C236.262 33.0323 236.435 32.9151 236.613 32.8442C236.618 32.8421 236.624 32.84 236.629 32.838C236.64 32.8339 236.65 32.8299 236.661 32.8262C236.678 32.8202 236.695 32.8147 236.712 32.8096C236.786 32.7873 236.861 32.773 236.937 32.7665C237.126 32.7486 237.297 32.7757 237.448 32.8479C237.454 32.8507 237.459 32.8535 237.465 32.8565C237.49 32.8692 237.515 32.8833 237.539 32.8986C237.598 32.9357 237.653 32.9803 237.705 33.0324L239.102 31.6354C239.03 31.5633 238.956 31.4969 238.88 31.4363C238.814 31.3828 238.746 31.3339 238.676 31.2894C238.255 31.0203 237.785 30.917 237.266 30.9798C237.235 30.9834 237.204 30.9877 237.173 30.9925C237.046 31.0114 236.919 31.0389 236.793 31.0751C236.787 31.0766 236.782 31.0781 236.777 31.0797C236.535 31.1504 236.296 31.2528 236.06 31.3869C235.995 31.4234 235.931 31.4622 235.867 31.5034C235.841 31.5206 235.814 31.5382 235.788 31.5561C235.772 31.567 235.756 31.578 235.74 31.5892C235.726 31.5988 235.712 31.6086 235.698 31.6184C235.472 31.7797 235.248 31.9706 235.027 32.1913C235.026 32.1929 235.024 32.1945 235.022 32.1961C234.537 32.6821 234.21 33.1916 234.043 33.7248C233.992 33.8881 233.956 34.0537 233.935 34.2215C233.928 34.2767 233.923 34.3311 233.919 34.3849C233.896 34.7289 233.944 35.0446 234.06 35.3321C234.153 35.5612 234.291 35.7724 234.472 35.9656C234.489 35.9838 234.507 36.0018 234.525 36.0196C234.776 36.271 235.034 36.4482 235.298 36.5513C235.525 36.6382 235.769 36.6763 236.03 36.6658C236.069 36.6642 236.109 36.6615 236.149 36.6577C236.176 36.6551 236.204 36.6519 236.233 36.6483C236.311 36.638 236.392 36.6237 236.475 36.6054C236.586 36.5806 236.701 36.5483 236.819 36.5086C236.827 36.506 236.835 36.5033 236.843 36.5005C236.943 36.4663 237.045 36.4269 237.149 36.3822C237.179 36.3687 237.21 36.3548 237.241 36.3405C237.246 36.3382 237.251 36.3359 237.255 36.3336C237.262 36.3308 237.268 36.3279 237.274 36.3251C237.439 36.2471 237.616 36.1564 237.803 36.053C237.901 35.999 238.002 35.9416 238.105 35.8807C238.12 35.872 238.135 35.8631 238.15 35.8542C238.227 35.8085 238.306 35.761 238.387 35.7115C238.388 35.7107 238.389 35.7098 238.391 35.7089C238.393 35.7078 238.395 35.7066 238.396 35.7054C238.401 35.7024 238.406 35.6994 238.411 35.6964C238.412 35.696 238.413 35.6955 238.413 35.6951C238.42 35.6911 238.426 35.6872 238.433 35.6833C238.435 35.6817 238.438 35.68 238.441 35.6784C238.456 35.669 238.471 35.6597 238.487 35.6506C238.522 35.6293 238.557 35.6087 238.592 35.5888C238.593 35.5879 238.595 35.5871 238.596 35.5862C238.599 35.5843 238.603 35.5825 238.606 35.5806C238.632 35.5657 238.657 35.5513 238.683 35.5372C238.799 35.4726 238.908 35.4171 239.009 35.3705C239.012 35.369 239.016 35.3675 239.019 35.366C239.025 35.3633 239.031 35.3607 239.036 35.3581C239.176 35.2954 239.302 35.2503 239.413 35.2227C239.446 35.2145 239.478 35.2078 239.508 35.2027C239.627 35.183 239.737 35.1854 239.839 35.2101C239.86 35.2151 239.881 35.221 239.901 35.2279C239.909 35.2308 239.918 35.2339 239.926 35.2371C239.929 35.2383 239.933 35.2396 239.936 35.2408C240.014 35.2722 240.087 35.3178 240.155 35.3779C240.168 35.3898 240.182 35.4023 240.195 35.4154C240.238 35.4592 240.275 35.5056 240.305 35.5546C240.307 35.5581 240.309 35.5616 240.311 35.5652C240.335 35.6065 240.354 35.6498 240.368 35.6949C240.396 35.7876 240.404 35.8883 240.391 35.9967C240.389 36.0138 240.386 36.0311 240.383 36.0486C240.346 36.27 240.225 36.4928 240.021 36.7167C240.016 36.7225 240.01 36.7282 240.005 36.7339C239.985 36.7552 239.965 36.7765 239.943 36.7979C239.92 36.8208 239.898 36.8431 239.875 36.8648C239.855 36.8837 239.835 36.9022 239.816 36.9202C239.809 36.9258 239.803 36.9314 239.797 36.9369C239.718 37.0082 239.641 37.072 239.564 37.1285C239.516 37.164 239.468 37.1966 239.421 37.2262C239.401 37.2392 239.38 37.2516 239.36 37.2635C239.359 37.2639 239.358 37.2643 239.358 37.2646C239.349 37.2694 239.341 37.2741 239.333 37.2787C239.187 37.3601 239.045 37.4125 238.909 37.4359C238.864 37.4433 238.819 37.4471 238.774 37.4473C238.613 37.448 238.455 37.4026 238.299 37.3112C238.263 37.2901 238.227 37.2665 238.191 37.2405C238.186 37.2373 238.182 37.234 238.177 37.2308C238.113 37.183 238.049 37.1273 237.986 37.0637L236.584 38.4655ZM208.848 65.5924L210.264 64.1761L207.649 62.9822L208.848 65.5924Z" fill="black"/>
<path d="M237.916 68.4637L234.799 63.9152L236.143 62.5714L240.474 69.503L239.081 70.8951L234.668 68.2027L237.375 72.6014L235.983 73.9935L229.047 69.6673L230.395 68.3187L234.963 71.4558L231.981 66.7332L233.208 65.5055L237.916 68.4637Z" fill="#FF0F57"/>
<path d="M243.804 61.4838L241.479 63.8088L242.702 65.0318L245.438 62.2959L246.559 63.4173L242.422 67.555L236.79 61.9237L240.933 57.7811L242.064 58.9122L239.323 61.653L240.353 62.6826L242.678 60.3575L243.804 61.4838Z" fill="#FF0F57"/>
<path d="M249.619 58.2113L247.439 60.3914L248.116 61.8608L246.714 63.2626L243.311 55.4029L244.626 54.0882L252.505 57.4718L251.093 58.8832L249.619 58.2113ZM246.791 58.9896L248.208 57.5733L245.592 56.3794L246.791 58.9896Z" fill="#FF0F57"/>
<path d="M253.312 52.7782L252.437 53.6531L254.38 55.5963L252.978 56.9981L247.347 51.3668L249.696 49.0176C250.412 48.3022 251.117 47.8929 251.813 47.7898C252.506 47.6835 253.122 47.8994 253.66 48.4375C254.06 48.8371 254.306 49.2512 254.4 49.6798C254.493 50.1019 254.435 50.5821 254.226 51.1203L257.759 52.1015L257.817 52.1595L256.309 53.6676L253.312 52.7782ZM251.311 52.5269L252.258 51.5795C252.841 50.9962 252.893 50.4645 252.413 49.9843C251.939 49.5106 251.398 49.5783 250.789 50.1873L249.88 51.0961L251.311 52.5269Z" fill="#FF0F57"/>
<path d="M260.92 46.9101L258.74 49.0901L259.417 50.5595L258.015 51.9613L254.612 44.1017L255.927 42.7869L263.806 46.1705L262.395 47.582L260.92 46.9101ZM258.093 47.6883L259.509 46.272L256.894 45.0781L258.093 47.6883Z" fill="#FF0F57"/>
<path d="M264.28 45.6968L258.648 40.0655L260.824 37.8903C261.574 37.1395 262.285 36.6964 262.955 36.561C263.622 36.4225 264.209 36.6062 264.715 37.1121C264.998 37.3957 265.174 37.7195 265.242 38.0837C265.309 38.4414 265.256 38.8071 265.082 39.1809C265.478 38.9457 265.873 38.8571 266.266 38.9151C266.66 38.9731 267.004 39.1503 267.301 39.4468C267.858 40.0043 268.076 40.6053 267.953 41.2498C267.828 41.891 267.399 42.5774 266.668 43.3089L264.28 45.6968ZM263.337 41.9507L264.56 43.1736L265.546 42.1875C265.817 41.9168 265.973 41.6542 266.015 41.3996C266.054 41.1418 265.984 40.9243 265.807 40.7471C265.398 40.3378 264.94 40.3732 264.434 40.8534L263.337 41.9507ZM262.395 41.0081L263.255 40.1477C263.819 39.5837 263.904 39.1052 263.511 38.712C263.286 38.4865 263.057 38.3962 262.825 38.4414C262.593 38.48 262.337 38.6395 262.056 38.9199L261.181 39.7948L262.395 41.0081Z" fill="#FF0F57"/>
<path d="M270.042 37.6921L272.608 35.1254L273.73 36.2468L269.761 40.2153L264.13 34.584L265.532 33.1823L270.042 37.6921Z" fill="#FF0F57"/>
<path d="M275.755 29.5328L273.43 31.8578L274.653 33.0807L277.389 30.3448L278.51 31.4663L274.373 35.604L268.741 29.9727L272.884 25.8301L274.015 26.9612L271.274 29.702L272.304 30.7315L274.629 28.4065L275.755 29.5328Z" fill="#FF0F57"/>
<path d="M280.768 26.183C280.581 25.9961 280.352 25.9252 280.081 25.9703C279.81 26.0154 279.44 26.183 278.969 26.473C278.499 26.763 278.083 26.9886 277.722 27.1497C277.361 27.3044 277.028 27.3963 276.722 27.4253C276.416 27.4543 276.132 27.4188 275.871 27.3189C275.607 27.2158 275.349 27.0386 275.098 26.7872C274.614 26.3038 274.418 25.7045 274.508 24.9891C274.598 24.2737 274.961 23.5986 275.595 22.9637C276.288 22.2709 277.005 21.8697 277.746 21.7601C278.488 21.6441 279.131 21.8584 279.675 22.403L278.278 23.8C278.072 23.5937 277.816 23.5051 277.51 23.5341C277.207 23.5599 276.915 23.713 276.635 23.9933C276.387 24.2415 276.24 24.4976 276.195 24.7619C276.15 25.0261 276.209 25.2404 276.374 25.4048C276.538 25.5691 276.752 25.6223 277.017 25.5643C277.278 25.5031 277.642 25.3323 278.109 25.0519C279.024 24.4654 279.788 24.1561 280.4 24.1238C281.016 24.0884 281.57 24.3172 282.063 24.8102C282.566 25.3129 282.766 25.9091 282.662 26.5987C282.556 27.2851 282.16 27.9715 281.473 28.6579C281.006 29.1251 280.508 29.4716 279.98 29.6971C279.451 29.9227 278.944 29.9984 278.457 29.9243C277.974 29.847 277.54 29.6166 277.157 29.2331L278.559 27.8313C278.858 28.131 279.166 28.2551 279.482 28.2035C279.801 28.1487 280.146 27.936 280.516 27.5655C280.768 27.3141 280.914 27.0644 280.956 26.8162C281.001 26.5649 280.938 26.3538 280.768 26.183Z" fill="#FF0F57"/>
<path fill-rule="evenodd" clip-rule="evenodd" d="M229.047 69.6673L230.395 68.3187L234.963 71.4558L231.981 66.7332L233.209 65.5054L237.917 68.4637L234.799 63.9151L236.143 62.5714L240.474 69.5029L239.082 70.895L234.668 68.2027L237.375 72.6014L235.983 73.9935L229.047 69.6673ZM240.925 74.4452C240.74 74.8014 240.499 75.1341 240.204 75.4298L238.812 76.8219C237.495 78.138 235.446 78.3724 233.866 77.3875L226.93 73.0613C225.895 72.4158 225.211 71.3335 225.073 70.1218C224.934 68.91 225.356 67.7013 226.218 66.8389L227.567 65.4902C227.841 65.2162 228.147 64.9892 228.473 64.8104C228.652 64.484 228.879 64.1786 229.152 63.9048L230.38 62.677C230.655 62.4024 230.961 62.1748 231.289 61.9957C231.468 61.6683 231.695 61.3617 231.97 61.0867L233.314 59.7429C233.423 59.6344 233.537 59.5329 233.655 59.4386C233.75 59.3198 233.852 59.2051 233.962 59.0952L238.104 54.9527C238.529 54.5277 239.026 54.2183 239.556 54.0246C239.752 53.4903 240.063 52.9938 240.483 52.5745L241.797 51.2597C242.284 50.7735 242.874 50.4323 243.506 50.248C243.688 49.6221 244.025 49.0318 244.519 48.5383L246.868 46.1891C247.813 45.2441 249.059 44.3376 250.615 43.9536C250.652 42.9652 251.055 42.0025 251.784 41.2732L253.099 39.9584C253.585 39.4722 254.175 39.131 254.807 38.9468C254.989 38.3208 255.327 37.7305 255.82 37.237L257.995 35.0619C258.635 34.4221 259.417 33.7741 260.344 33.2916C260.535 32.7304 260.854 32.2031 261.302 31.7556L262.703 30.3538C263.299 29.7579 264.036 29.3893 264.807 29.248C264.948 28.4773 265.317 27.7401 265.913 27.1442L270.055 23.0017C270.414 22.6432 270.824 22.367 271.261 22.173C271.66 21.3978 272.184 20.7182 272.767 20.1353C273.877 19.0251 275.334 18.0777 277.145 17.8056C279.182 17.4922 281.088 18.1588 282.504 19.5746C282.877 19.9476 283.161 20.3759 283.356 20.8332C283.926 21.1396 284.441 21.5314 284.892 21.9818C286.27 23.3605 286.914 25.2176 286.619 27.1902L286.615 27.2111C286.336 29.0119 285.356 30.4318 284.302 31.4863C283.682 32.1057 282.975 32.6523 282.172 33.0785C281.978 33.5198 281.7 33.9332 281.339 34.2947L277.201 38.4324C277.092 38.541 276.979 38.6422 276.862 38.7357C276.768 38.8532 276.667 38.9666 276.558 39.0752L272.59 43.0437C272.172 43.4613 271.685 43.7672 271.166 43.9615C270.697 44.8217 270.087 45.5466 269.496 46.1373L267.108 48.5252C267.028 48.6053 266.946 48.6812 266.861 48.753C266.789 48.8377 266.714 48.9197 266.635 48.9989L265.223 50.4104C264.685 50.9489 264.019 51.309 263.311 51.4756C263.144 52.1841 262.784 52.8493 262.246 53.3879L260.844 54.7897C260.811 54.8227 260.777 54.855 260.743 54.8867C260.711 54.9209 260.679 54.9546 260.646 54.9879L259.137 56.496C258.804 56.8299 258.419 57.0964 258.005 57.2903C257.813 57.7009 257.548 58.0857 257.209 58.4247L255.807 59.8265C255.727 59.9065 255.644 59.9825 255.559 60.0543C255.488 60.139 255.412 60.221 255.333 60.3002L253.922 61.7116C253.383 62.2502 252.718 62.6103 252.01 62.7769C251.843 63.4853 251.483 64.1506 250.944 64.6892L249.542 66.091C249.517 66.1167 249.491 66.142 249.464 66.167C249.439 66.1935 249.414 66.2197 249.388 66.2457L245.25 70.3834C244.908 70.7259 244.518 70.9933 244.103 71.1856C243.91 71.6026 243.642 71.9915 243.302 72.3314L241.91 73.7235C241.614 74.0191 241.282 74.2602 240.925 74.4452ZM252.979 56.9981L254.38 55.5963L252.437 53.6531L253.312 52.7782L256.309 53.6676L257.817 52.1595L257.759 52.1015L254.226 51.1202C254.319 50.8816 254.382 50.6544 254.415 50.4386C254.445 50.2455 254.451 50.0616 254.433 49.8869C254.426 49.8163 254.415 49.7473 254.4 49.6798C254.379 49.5851 254.351 49.4911 254.315 49.3978C254.243 49.2086 254.14 49.0223 254.006 48.8389C253.946 48.7558 253.879 48.6733 253.806 48.5915C253.76 48.5399 253.711 48.4886 253.66 48.4375C253.131 47.9083 252.527 47.6907 251.848 47.7847C251.837 47.7863 251.825 47.788 251.814 47.7898C251.282 47.8686 250.744 48.1264 250.2 48.563C250.033 48.6975 249.865 48.8491 249.696 49.0176L247.347 51.3667L252.979 56.9981ZM236.79 61.9236L242.422 67.5549L246.559 63.4173L245.438 62.2958L242.702 65.0317L241.479 63.8088L243.804 61.4838L242.678 60.3575L240.353 62.6825L239.323 61.6529L242.064 58.9122L240.933 57.7811L236.79 61.9236ZM246.714 63.2626L248.116 61.8608L247.439 60.3913L249.619 58.2113L251.093 58.8832L252.505 57.4718L244.626 54.0881L243.311 55.4029L246.714 63.2626ZM248.208 57.5733L245.593 56.3793L246.791 58.9896L248.208 57.5733ZM258.015 51.9613L259.417 50.5595L258.74 49.0901L260.92 46.91L262.395 47.5819L263.806 46.1705L255.927 42.7869L254.612 44.1016L258.015 51.9613ZM258.093 47.6883L259.509 46.272L256.894 45.0781L258.093 47.6883ZM264.28 45.6968L266.668 43.3089C266.684 43.2922 266.701 43.2755 266.717 43.2588C266.738 43.2381 266.758 43.2174 266.778 43.1967C266.829 43.1435 266.879 43.0905 266.927 43.0377C266.984 42.9752 267.039 42.913 267.091 42.8511C267.429 42.4521 267.672 42.0672 267.82 41.6966C267.823 41.6883 267.826 41.68 267.83 41.6717C267.885 41.529 267.926 41.3883 267.953 41.2497C267.962 41.2054 267.969 41.1612 267.974 41.1173C267.998 40.9108 267.987 40.7089 267.941 40.5116C267.9 40.3374 267.831 40.1667 267.734 39.9996C267.723 39.9808 267.712 39.9621 267.701 39.9434C267.596 39.7742 267.463 39.6086 267.301 39.4468C267.268 39.4141 267.235 39.3829 267.201 39.3531C266.928 39.1127 266.616 38.9667 266.266 38.915C266.058 38.8843 265.849 38.8948 265.639 38.9466C265.454 38.9924 265.268 39.0705 265.082 39.1809C265.179 38.9739 265.238 38.7695 265.26 38.5674C265.278 38.4046 265.272 38.2433 265.242 38.0836C265.19 37.8068 265.076 37.5533 264.9 37.323C264.845 37.2504 264.783 37.1801 264.715 37.1121C264.488 36.885 264.245 36.7229 263.985 36.6256C263.83 36.5676 263.67 36.5327 263.504 36.5209C263.409 36.5142 263.313 36.5149 263.216 36.523C263.13 36.53 263.044 36.5427 262.955 36.561C262.816 36.5891 262.675 36.6306 262.532 36.6853C262.517 36.6911 262.502 36.697 262.487 36.7031C262.172 36.8297 261.848 37.0208 261.516 37.2763C261.452 37.3259 261.387 37.378 261.322 37.4325C261.191 37.5418 261.059 37.6608 260.926 37.7896C260.921 37.7944 260.916 37.7991 260.911 37.8039C260.882 37.8322 260.853 37.861 260.824 37.8903L258.649 40.0655L264.28 45.6968ZM264.56 43.1736L265.546 42.1875C265.573 42.1605 265.599 42.1335 265.624 42.1066C265.634 42.0955 265.644 42.0843 265.654 42.0731C265.705 42.0158 265.751 41.9588 265.791 41.9022C265.807 41.8807 265.821 41.8592 265.835 41.8377C265.869 41.7858 265.898 41.7342 265.923 41.683C265.969 41.5874 266 41.493 266.015 41.3996C266.039 41.2406 266.022 41.0969 265.964 40.9686C265.946 40.9311 265.926 40.8948 265.902 40.8599C265.9 40.8572 265.898 40.8544 265.896 40.8516C265.895 40.8496 265.893 40.8477 265.892 40.8457C265.867 40.8115 265.839 40.7786 265.807 40.747C265.503 40.4422 265.171 40.3841 264.813 40.5726C264.786 40.5865 264.759 40.6018 264.733 40.6185C264.725 40.6233 264.717 40.6283 264.709 40.6333C264.673 40.6567 264.637 40.6826 264.6 40.7109C264.545 40.753 264.49 40.8005 264.435 40.8534L263.337 41.9506L264.56 43.1736ZM263.715 39.4749C263.805 39.1924 263.737 38.9381 263.511 38.712C263.467 38.6677 263.422 38.6286 263.378 38.5947C263.373 38.5911 263.369 38.5877 263.364 38.5843C263.34 38.5665 263.316 38.5503 263.291 38.5356C263.251 38.5114 263.211 38.4913 263.171 38.4754C263.167 38.4738 263.163 38.4722 263.159 38.4707C263.048 38.4293 262.937 38.4195 262.825 38.4413C262.787 38.4476 262.749 38.4571 262.71 38.4698C262.633 38.4948 262.553 38.5323 262.471 38.5822C262.459 38.5896 262.447 38.5973 262.435 38.6053C262.428 38.6096 262.421 38.614 262.415 38.6185C262.394 38.632 262.374 38.6461 262.354 38.661C262.333 38.6764 262.312 38.6925 262.29 38.7093C262.214 38.7697 262.136 38.8399 262.056 38.9199L261.181 39.7948L262.395 41.0081L263.255 40.1476C263.26 40.1428 263.265 40.1379 263.27 40.1331C263.308 40.0945 263.344 40.0563 263.377 40.0184C263.414 39.9776 263.447 39.9372 263.478 39.8973C263.486 39.8878 263.493 39.8783 263.5 39.8688C263.536 39.8218 263.567 39.7753 263.595 39.7296C263.598 39.7247 263.601 39.7198 263.604 39.7149C263.606 39.7122 263.607 39.7095 263.609 39.7068C263.655 39.6275 263.691 39.5502 263.715 39.4749ZM264.13 34.584L269.761 40.2153L273.73 36.2468L272.608 35.1254L270.042 37.6921L265.532 33.1822L264.13 34.584ZM274.373 35.6039L278.51 31.4662L277.389 30.3448L274.653 33.0807L273.43 31.8578L275.755 29.5328L274.629 28.4065L272.304 30.7315L271.274 29.7019L274.015 26.9612L272.884 25.8301L268.741 29.9726L274.373 35.6039ZM274.645 24.4065C274.635 24.4351 274.625 24.4637 274.616 24.4923C274.565 24.6557 274.529 24.8213 274.508 24.989C274.457 25.397 274.498 25.7672 274.633 26.0997C274.656 26.1562 274.682 26.2116 274.71 26.2659C274.797 26.4318 274.909 26.5876 275.045 26.7332C275.062 26.7514 275.08 26.7694 275.098 26.7872C275.156 26.8452 275.214 26.8993 275.273 26.9494C275.434 27.0867 275.597 27.1944 275.763 27.2724C275.799 27.2893 275.835 27.3048 275.871 27.3189C276.098 27.4057 276.342 27.4439 276.603 27.4333C276.642 27.4317 276.682 27.429 276.722 27.4252C276.75 27.4226 276.778 27.4195 276.806 27.4158C276.885 27.4056 276.965 27.3913 277.048 27.373C277.159 27.3481 277.274 27.3159 277.393 27.2762C277.4 27.2735 277.408 27.2708 277.416 27.2681C277.516 27.2339 277.618 27.1944 277.722 27.1497C277.753 27.1363 277.783 27.1224 277.814 27.108C277.819 27.1058 277.824 27.1035 277.829 27.1012C277.835 27.0984 277.841 27.0955 277.847 27.0926C277.902 27.0669 277.958 27.0397 278.015 27.0112C278.193 26.9222 278.382 26.8198 278.583 26.7039C278.615 26.6857 278.646 26.6672 278.678 26.6483C278.693 26.6395 278.708 26.6307 278.724 26.6217C278.74 26.6117 278.757 26.6016 278.774 26.5914C278.835 26.5551 278.897 26.5177 278.96 26.4791C278.961 26.4782 278.962 26.4774 278.964 26.4765C278.966 26.4753 278.968 26.4742 278.97 26.473C278.974 26.47 278.979 26.467 278.984 26.464C278.985 26.4635 278.986 26.4631 278.986 26.4626C278.993 26.4587 278.999 26.4548 279.006 26.4509C279.008 26.4492 279.011 26.4476 279.014 26.446C279.029 26.4366 279.045 26.4273 279.06 26.4182C279.095 26.3968 279.13 26.3762 279.165 26.3564C279.166 26.3555 279.168 26.3546 279.169 26.3537C279.173 26.3519 279.176 26.35 279.179 26.3482C279.205 26.3333 279.231 26.3188 279.256 26.3048C279.372 26.2402 279.481 26.1846 279.582 26.1381C279.586 26.1365 279.589 26.135 279.592 26.1335C279.598 26.1309 279.604 26.1283 279.61 26.1257C279.749 26.063 279.875 26.0178 279.986 25.9903C280.019 25.982 280.051 25.9754 280.081 25.9703C280.2 25.9506 280.31 25.953 280.412 25.9776C280.433 25.9827 280.454 25.9886 280.474 25.9954C280.482 25.9983 280.491 26.0014 280.499 26.0047C280.503 26.0059 280.506 26.0071 280.509 26.0084C280.587 26.0397 280.66 26.0854 280.728 26.1455C280.741 26.1574 280.755 26.1699 280.768 26.183C280.811 26.2267 280.848 26.2731 280.878 26.3221C280.88 26.3257 280.882 26.3292 280.884 26.3327C280.908 26.3741 280.927 26.4173 280.941 26.4624C280.97 26.5552 280.977 26.6558 280.964 26.7643C280.962 26.7814 280.959 26.7987 280.956 26.8162C280.919 27.0376 280.798 27.2603 280.594 27.4843C280.589 27.49 280.583 27.4957 280.578 27.5014C280.558 27.5228 280.538 27.5441 280.516 27.5654C280.493 27.5883 280.471 27.6106 280.448 27.6323C280.428 27.6513 280.408 27.6697 280.389 27.6878C280.383 27.6934 280.376 27.6989 280.37 27.7045C280.242 27.8206 280.117 27.917 279.994 27.9938C279.974 28.0068 279.953 28.0192 279.933 28.0311C279.932 28.0314 279.931 28.0318 279.931 28.0322C279.922 28.037 279.914 28.0417 279.906 28.0463C279.781 28.1157 279.66 28.164 279.543 28.1913C279.537 28.1925 279.531 28.1938 279.526 28.195C279.511 28.1981 279.496 28.201 279.482 28.2035C279.437 28.2108 279.392 28.2146 279.347 28.2148C279.187 28.2155 279.028 28.1702 278.872 28.0788C278.836 28.0577 278.8 28.0341 278.764 28.008C278.759 28.0048 278.755 28.0016 278.751 27.9983C278.686 27.9505 278.622 27.8949 278.559 27.8313L277.157 29.2331C277.187 29.2627 277.216 29.2914 277.247 29.3192C277.334 29.3991 277.423 29.4714 277.514 29.5361C277.655 29.6353 277.801 29.7168 277.953 29.7806C278.115 29.8485 278.283 29.8964 278.457 29.9243C278.61 29.9476 278.765 29.9561 278.922 29.9498C278.939 29.9491 278.955 29.9483 278.971 29.9473C279.138 29.9373 279.308 29.9107 279.48 29.8674C279.566 29.8456 279.653 29.8196 279.741 29.7894C279.743 29.7887 279.745 29.7879 279.747 29.7872C279.749 29.7865 279.751 29.7857 279.754 29.785C279.829 29.7588 279.904 29.7295 279.98 29.6971C280.081 29.6538 280.182 29.6059 280.281 29.5537C280.397 29.4926 280.511 29.4255 280.624 29.3523C280.631 29.3483 280.637 29.3442 280.643 29.3401C280.665 29.3255 280.687 29.3107 280.71 29.2957C280.952 29.1308 281.187 28.9375 281.415 28.7158C281.434 28.6967 281.454 28.6774 281.473 28.6578C281.496 28.6351 281.519 28.6124 281.541 28.5897C282.024 28.0929 282.355 27.5961 282.534 27.0993C282.535 27.094 282.537 27.0887 282.539 27.0835C282.596 26.9219 282.638 26.7603 282.663 26.5987C282.734 26.1195 282.66 25.6854 282.439 25.2964C282.35 25.1401 282.237 24.991 282.101 24.8493C282.089 24.8362 282.076 24.8232 282.063 24.8102C281.57 24.3172 281.016 24.0884 280.4 24.1238C280.315 24.1283 280.226 24.1382 280.135 24.1536C280.119 24.1561 280.104 24.1588 280.089 24.1617C279.993 24.1794 279.894 24.203 279.792 24.2324C279.781 24.2356 279.769 24.2388 279.758 24.2422C279.527 24.3111 279.279 24.4095 279.016 24.5373C278.975 24.5569 278.934 24.5772 278.893 24.5982C278.884 24.6029 278.875 24.6077 278.865 24.6125C278.723 24.6856 278.577 24.7669 278.426 24.8563C278.367 24.8911 278.308 24.927 278.248 24.9642C278.24 24.9695 278.231 24.9748 278.223 24.9801C278.185 25.0035 278.147 25.0275 278.109 25.0519C278.105 25.0542 278.102 25.0564 278.098 25.0587C278.086 25.066 278.073 25.0733 278.061 25.0805C278.055 25.0842 278.049 25.0879 278.042 25.0916C277.975 25.1316 277.909 25.1691 277.846 25.2043C277.844 25.2055 277.842 25.2066 277.84 25.2078C277.784 25.2389 277.729 25.2682 277.677 25.2955C277.671 25.2983 277.666 25.3011 277.66 25.3039C277.659 25.3045 277.658 25.305 277.657 25.3055C277.613 25.3284 277.57 25.3499 277.528 25.37C277.459 25.4031 277.394 25.4326 277.332 25.4582C277.294 25.474 277.257 25.4884 277.222 25.5014C277.212 25.505 277.203 25.5084 277.193 25.5118C277.139 25.5308 277.088 25.5464 277.04 25.5585C277.032 25.5605 277.025 25.5624 277.017 25.5643C277.016 25.5644 277.015 25.5645 277.015 25.5647C276.845 25.6017 276.695 25.5926 276.566 25.5372C276.563 25.5355 276.559 25.5338 276.555 25.5321C276.553 25.5312 276.551 25.5302 276.549 25.5293C276.547 25.5282 276.544 25.5271 276.542 25.5259C276.503 25.5068 276.465 25.4831 276.43 25.455C276.411 25.4396 276.392 25.4228 276.374 25.4047C276.314 25.3454 276.269 25.2795 276.237 25.2071C276.183 25.0849 276.168 24.9442 276.191 24.7849C276.192 24.7772 276.194 24.7696 276.195 24.7619C276.197 24.7504 276.199 24.7389 276.201 24.7274C276.213 24.6732 276.228 24.6192 276.248 24.5656C276.288 24.4571 276.345 24.3499 276.421 24.2442C276.421 24.2428 276.422 24.2414 276.423 24.24C276.434 24.2252 276.445 24.2104 276.456 24.1956C276.507 24.1292 276.565 24.0634 276.63 23.9981C276.632 23.9965 276.633 23.9949 276.635 23.9933C276.638 23.9897 276.642 23.9861 276.646 23.9825C276.652 23.9761 276.659 23.9697 276.665 23.9634C276.667 23.962 276.668 23.9605 276.67 23.9591C276.838 23.7978 277.01 23.682 277.186 23.6117C277.191 23.6096 277.197 23.6076 277.202 23.6056C277.213 23.6015 277.223 23.5975 277.234 23.5937C277.251 23.5878 277.268 23.5823 277.285 23.5772C277.359 23.5549 277.434 23.5405 277.51 23.5341C277.699 23.5161 277.87 23.5433 278.021 23.6154C278.027 23.6182 278.033 23.6211 278.038 23.624C278.064 23.6368 278.088 23.6508 278.112 23.6661C278.171 23.7032 278.226 23.7478 278.278 23.7999L279.675 22.403C279.603 22.3308 279.529 22.2644 279.454 22.2039C279.387 22.1504 279.319 22.1014 279.249 22.057C278.828 21.7878 278.358 21.6846 277.839 21.7473C277.808 21.751 277.777 21.7553 277.747 21.7601C277.619 21.779 277.492 21.8065 277.366 21.8427C277.361 21.8442 277.355 21.8457 277.35 21.8473C277.108 21.9179 276.869 22.0203 276.633 22.1545C276.569 22.191 276.505 22.2298 276.441 22.271C276.414 22.2882 276.387 22.3057 276.361 22.3237C276.345 22.3346 276.329 22.3456 276.313 22.3568C276.299 22.3664 276.285 22.3761 276.271 22.386C276.057 22.5391 275.844 22.7189 275.634 22.9255C275.623 22.9366 275.612 22.9477 275.6 22.9589C275.599 22.9605 275.597 22.9621 275.596 22.9637C275.338 23.2215 275.125 23.486 274.957 23.7571C274.825 23.9695 274.721 24.186 274.645 24.4065ZM252.258 51.5794C252.294 51.5438 252.328 51.5083 252.359 51.4731C252.365 51.4668 252.371 51.4605 252.376 51.4542C252.506 51.3071 252.6 51.1633 252.66 51.023C252.732 50.8562 252.754 50.6943 252.727 50.5371C252.702 50.386 252.631 50.2393 252.515 50.097C252.514 50.0952 252.512 50.0934 252.511 50.0916C252.481 50.0556 252.449 50.0198 252.413 49.9843C252.36 49.9314 252.306 49.8852 252.252 49.8458C252.207 49.8137 252.162 49.7861 252.116 49.7629C252.113 49.761 252.109 49.7591 252.105 49.7572C251.88 49.6471 251.642 49.6455 251.39 49.7525C251.3 49.7908 251.208 49.843 251.114 49.9091C251.02 49.9752 250.925 50.0551 250.828 50.149C250.815 50.1615 250.802 50.1743 250.789 50.1873L249.88 51.0961L251.311 52.5268L252.258 51.5794Z" fill="black"/>
<path d="M223 99.5397L142.5 181.54L62 99.5397" stroke="white" stroke-dasharray="2 2"/>
<path d="M223 99.5397L142.5 181.54L62 99.5397" stroke="white" stroke-dasharray="2 2"/>
<path d="M223 99.5397L142.5 181.54L62 99.5397" stroke="white" stroke-dasharray="2 2"/>
</svg>
