<svg width="250" height="250" viewBox="0 0 250 250" fill="none" xmlns="http://www.w3.org/2000/svg">
<path d="M149.918 215.187C149.918 216.982 149.078 218.726 147.49 220.349C145.901 221.975 143.581 223.458 140.681 224.712C134.882 227.219 126.843 228.781 117.941 228.781C109.039 228.781 100.999 227.219 95.2011 224.712C92.3012 223.458 89.9808 221.975 88.3913 220.349C86.8036 218.726 85.9641 216.982 85.9641 215.187V175.819H149.918V215.187Z" fill="black" stroke="white" stroke-width="0.830565"/>
<path d="M149.918 175.9C149.918 177.587 149.086 179.234 147.498 180.774C145.91 182.315 143.589 183.721 140.688 184.911C134.887 187.291 126.845 188.772 117.941 188.772C109.036 188.772 100.994 187.291 95.1938 184.911C92.2926 183.721 89.9721 182.315 88.3835 180.774C86.7961 179.234 85.9641 177.587 85.9641 175.9C85.9641 175.361 86.1737 174.734 86.6057 174.021C87.0359 173.312 87.6698 172.545 88.4758 171.736C90.088 170.119 92.3481 168.375 94.9216 166.625C100.066 163.129 106.403 159.653 111.159 157.19C115.427 154.979 120.455 154.979 124.723 157.19C129.479 159.653 135.816 163.129 140.96 166.625C143.534 168.375 145.794 170.119 147.406 171.736C148.212 172.545 148.846 173.312 149.276 174.021C149.708 174.734 149.918 175.361 149.918 175.9Z" fill="black" stroke="white" stroke-width="0.830565"/>
<path d="M143.026 174.831C143.026 176.092 142.391 177.334 141.152 178.508C139.912 179.683 138.097 180.76 135.818 181.673C131.264 183.499 124.944 184.637 117.942 184.637C110.939 184.637 104.619 183.499 100.065 181.673C97.7864 180.76 95.9705 179.683 94.731 178.508C93.4924 177.334 92.8567 176.092 92.8567 174.831C92.8567 173.659 93.6602 172.719 95.2323 171.966C96.7997 171.216 99.0193 170.713 101.584 170.382C106.444 169.753 112.404 169.756 117.179 169.757C117.437 169.758 117.691 169.758 117.942 169.758C118.192 169.758 118.446 169.758 118.704 169.757C123.479 169.756 129.439 169.753 134.299 170.382C136.864 170.713 139.083 171.216 140.651 171.966C142.223 172.719 143.026 173.659 143.026 174.831Z" fill="black" stroke="white" stroke-width="0.830565"/>
<path d="M126.413 76.367C127.005 76.7702 127.441 77.2208 127.685 77.7028L127.314 77.8902C127.434 78.1267 127.492 78.3627 127.492 78.5987C127.492 78.8348 127.434 79.0708 127.314 79.3073L127.685 79.4947C127.441 79.9767 127.005 80.4273 126.413 80.8304L126.179 80.4872C125.747 80.7814 125.218 81.054 124.605 81.2947L124.757 81.6813C124.216 81.8935 123.62 82.0793 122.978 82.2339L122.881 81.8301C122.319 81.9655 121.719 82.0767 121.091 82.16L121.145 82.5717C120.549 82.6508 119.928 82.7051 119.288 82.732L119.271 82.3171C118.97 82.3298 118.665 82.3363 118.356 82.3363C118.047 82.3363 117.742 82.3298 117.442 82.3171L117.424 82.732C116.785 82.7051 116.163 82.6508 115.567 82.5717L115.622 82.16C114.993 82.0767 114.394 81.9655 113.832 81.8301L113.734 82.2339C113.093 82.0793 112.496 81.8935 111.956 81.6813L112.107 81.2947C111.495 81.054 110.965 80.7814 110.533 80.4872L110.3 80.8304C109.708 80.4273 109.271 79.9767 109.028 79.4947L109.398 79.3073C109.279 79.0708 109.22 78.8348 109.22 78.5987C109.22 78.3627 109.279 78.1267 109.398 77.8902L109.028 77.7028C109.271 77.2208 109.708 76.7702 110.3 76.367L110.533 76.7103C110.965 76.4161 111.495 76.1435 112.107 75.9028L111.956 75.5162C112.496 75.304 113.093 75.1182 113.734 74.9636L113.832 75.3674C114.394 75.232 114.993 75.1208 115.622 75.0374L115.567 74.6258C116.163 74.5467 116.785 74.4924 117.424 74.4654L117.442 74.8804C117.742 74.8677 118.047 74.8612 118.356 74.8612C118.665 74.8612 118.97 74.8677 119.271 74.8804L119.288 74.4654C119.928 74.4924 120.549 74.5467 121.145 74.6258L121.091 75.0374C121.719 75.1208 122.319 75.232 122.881 75.3674L122.978 74.9636C123.62 75.1182 124.216 75.304 124.757 75.5162L124.605 75.9028C125.218 76.1435 125.747 76.4161 126.179 76.7103L126.413 76.367Z" stroke="white" stroke-width="0.830565" stroke-dasharray="1.66 1.66"/>
<path d="M162.465 76.1717C162.609 76.7017 162.706 77.2381 162.755 77.7801L162.341 77.8174C162.364 78.0765 162.376 78.337 162.376 78.5987C162.376 78.8604 162.364 79.1209 162.341 79.3801L162.755 79.4173C162.706 79.9593 162.609 80.4958 162.465 81.0258L162.064 80.9173C161.93 81.4152 161.752 81.9085 161.532 82.3964L161.911 82.5669C161.692 83.0529 161.434 83.5325 161.138 84.0051L160.786 83.7845C160.512 84.2219 160.203 84.6541 159.862 85.0805L160.186 85.3401C159.854 85.7547 159.492 86.1629 159.102 86.5643L158.804 86.2747C158.442 86.6472 158.053 87.0142 157.64 87.3754L157.913 87.6881C157.512 88.0391 157.088 88.384 156.642 88.7225L156.391 88.3917C155.972 88.7099 155.533 89.0227 155.075 89.3296L155.306 89.6746C154.862 89.9724 154.4 90.2646 153.921 90.5508L153.708 90.1943C153.254 90.4655 152.785 90.7314 152.301 90.9918L152.498 91.3576C152.026 91.6115 151.54 91.8602 151.041 92.1032L150.859 91.7298C150.381 91.9626 149.89 92.1903 149.387 92.4128L149.555 92.7925C149.063 93.0102 148.56 93.2227 148.046 93.4299L147.891 93.0447C147.395 93.2445 146.889 93.4394 146.373 93.6293L146.517 94.019C146.01 94.2052 145.495 94.3865 144.971 94.5627L144.838 94.1691C144.331 94.3395 143.815 94.5052 143.292 94.6659L143.413 95.0629C142.898 95.2211 142.374 95.3746 141.844 95.5232L141.732 95.1233C141.215 95.2679 140.691 95.4079 140.16 95.5431L140.262 95.9456C139.738 96.079 139.208 96.2078 138.671 96.3318L138.577 95.9272C138.053 96.0484 137.522 96.165 136.985 96.277L137.07 96.6835C136.54 96.7942 136.003 96.9003 135.461 97.0018L135.385 96.5936C134.855 96.6928 134.32 96.7875 133.78 96.8776L133.849 97.2872C133.315 97.3763 132.776 97.4609 132.233 97.541L132.173 97.1301C131.639 97.2087 131.101 97.2829 130.558 97.3526L130.611 97.7645C130.073 97.8337 129.53 97.8984 128.983 97.9586L128.938 97.5458C128.4 97.605 127.859 97.6598 127.313 97.7101L127.351 98.1236C126.812 98.1734 126.269 98.2187 125.722 98.2596L125.691 97.8455C125.152 97.8858 124.61 97.9218 124.065 97.9533L124.089 98.3679C123.546 98.3993 123 98.4262 122.452 98.4487L122.435 98.0338C121.894 98.056 121.35 98.0738 120.803 98.0871L120.813 98.5023C120.271 98.5156 119.726 98.5245 119.178 98.5289L119.175 98.1137C118.902 98.1159 118.63 98.117 118.356 98.117C118.083 98.117 117.81 98.1159 117.537 98.1137L117.534 98.5289C116.986 98.5245 116.441 98.5156 115.899 98.5023L115.909 98.0871C115.362 98.0738 114.819 98.056 114.278 98.0338L114.261 98.4487C113.712 98.4262 113.166 98.3993 112.623 98.3679L112.647 97.9533C112.102 97.9218 111.56 97.8858 111.021 97.8455L110.99 98.2596C110.443 98.2187 109.9 98.1734 109.361 98.1236L109.399 97.7101C108.854 97.6598 108.312 97.605 107.774 97.5458L107.729 97.9586C107.182 97.8984 106.639 97.8337 106.101 97.7645L106.154 97.3526C105.611 97.2829 105.073 97.2087 104.54 97.1301L104.479 97.541C103.936 97.4609 103.397 97.3763 102.863 97.2872L102.932 96.8776C102.392 96.7875 101.857 96.6928 101.327 96.5936L101.251 97.0018C100.709 96.9003 100.173 96.7942 99.642 96.6835L99.7268 96.277C99.1901 96.165 98.6594 96.0484 98.1348 95.9272L98.0413 96.3318C97.5044 96.2078 96.9738 96.079 96.4499 95.9456L96.5524 95.5431C96.0214 95.4079 95.4974 95.2679 94.9806 95.1233L94.8687 95.5232C94.3378 95.3746 93.8144 95.2211 93.2988 95.0629L93.4206 94.6659C92.8967 94.5051 92.381 94.3395 91.8739 94.1691L91.7416 94.5627C91.2172 94.3865 90.7018 94.2052 90.1957 94.019L90.3391 93.6293C89.8232 93.4394 89.3173 93.2445 88.8216 93.0447L88.6664 93.4299C88.1523 93.2227 87.6491 93.0102 87.1572 92.7925L87.3252 92.4128C86.8223 92.1903 86.3316 91.9626 85.8534 91.7298L85.6716 92.1032C85.1724 91.8602 84.6864 91.6115 84.2143 91.3576L84.411 90.9918C83.9269 90.7314 83.4578 90.4655 83.0042 90.1943L82.7911 90.5508C82.3125 90.2646 81.8506 89.9724 81.4061 89.6746L81.6372 89.3296C81.1791 89.0227 80.7402 88.7099 80.3213 88.3917L80.0701 88.7225C79.6244 88.384 79.2003 88.0391 78.7988 87.6881L79.0721 87.3754C78.6588 87.0142 78.2706 86.6472 77.9083 86.2747L77.6106 86.5643C77.2202 86.1629 76.8584 85.7547 76.5263 85.3401L76.8505 85.0805C76.5089 84.6541 76.2006 84.2219 75.9265 83.7845L75.5746 84.0051C75.2785 83.5325 75.0202 83.0529 74.8014 82.5669L75.18 82.3963C74.9604 81.9084 74.7825 81.4152 74.6478 80.9173L74.2469 81.0257C74.1035 80.4957 74.0065 79.9593 73.9577 79.4173L74.3713 79.3801C74.348 79.1209 74.3362 78.8604 74.3362 78.5987C74.3362 78.337 74.348 78.0765 74.3713 77.8174L73.9577 77.7801C74.0065 77.2381 74.1035 76.7017 74.2469 76.1717L74.6478 76.2801C74.7825 75.7822 74.9604 75.289 75.1801 74.8011L74.8014 74.6306C75.0202 74.1445 75.2785 73.6649 75.5746 73.1924L75.9265 73.4129C76.2006 72.9756 76.5089 72.5434 76.8505 72.1169L76.5263 71.8573C76.8584 71.4427 77.2202 71.0345 77.6106 70.6332L77.9083 70.9227C78.2707 70.5503 78.6588 70.1832 79.0721 69.822L78.7988 69.5093C79.2003 69.1584 79.6244 68.8134 80.0701 68.475L80.3213 68.8057C80.7402 68.4875 81.1791 68.1748 81.6372 67.8678L81.4061 67.5228C81.8506 67.225 82.3125 66.9328 82.7912 66.6467L83.0043 67.0031C83.4578 66.7319 83.9269 66.466 84.4111 66.2056L84.2143 65.8399C84.6865 65.5859 85.1724 65.3373 85.6716 65.0942L85.8534 65.4676C86.3316 65.2348 86.8223 65.0071 87.3252 64.7847L87.1572 64.4049C87.6491 64.1873 88.1523 63.9747 88.6664 63.7675L88.8216 64.1527C89.3173 63.9529 89.8232 63.758 90.3391 63.5682L90.1957 63.1784C90.7018 62.9922 91.2172 62.8109 91.7416 62.6347L91.8739 63.0284C92.3811 62.8579 92.8967 62.6923 93.4207 62.5315L93.2988 62.1345C93.8144 61.9763 94.3378 61.8228 94.8687 61.6742L94.9806 62.0742C95.4974 61.9295 96.0214 61.7895 96.5524 61.6543L96.4499 61.2519C96.9738 61.1184 97.5044 60.9896 98.0413 60.8656L98.1348 61.2702C98.6594 61.149 99.1901 61.0324 99.7268 60.9205L99.642 60.5139C100.173 60.4032 100.709 60.2971 101.251 60.1956L101.327 60.6038C101.857 60.5046 102.392 60.4099 102.932 60.3198L102.863 59.9102C103.397 59.8211 103.936 59.7365 104.479 59.6565L104.54 60.0673C105.073 59.9887 105.611 59.9145 106.154 59.8448L106.101 59.4329C106.64 59.3638 107.182 59.299 107.729 59.2389L107.774 59.6517C108.312 59.5924 108.854 59.5376 109.399 59.4874L109.361 59.0738C109.9 59.0241 110.443 58.9787 110.99 58.9378L111.021 59.3519C111.56 59.3116 112.102 59.2756 112.647 59.2441L112.623 58.8295C113.166 58.7982 113.712 58.7712 114.261 58.7487L114.278 59.1636C114.819 59.1415 115.362 59.1236 115.909 59.1103L115.899 58.6951C116.441 58.6819 116.986 58.673 117.534 58.6685L117.537 59.0838C117.81 59.0816 118.083 59.0804 118.356 59.0804C118.63 59.0804 118.903 59.0816 119.175 59.0838L119.178 58.6685C119.726 58.673 120.271 58.6819 120.813 58.6951L120.803 59.1103C121.35 59.1236 121.894 59.1415 122.435 59.1636L122.452 58.7487C123 58.7712 123.546 58.7982 124.089 58.8295L124.065 59.2441C124.61 59.2756 125.152 59.3116 125.691 59.3519L125.722 58.9378C126.269 58.9787 126.812 59.0241 127.351 59.0738L127.313 59.4874C127.859 59.5377 128.4 59.5924 128.938 59.6517L128.984 59.2389C129.53 59.299 130.073 59.3638 130.611 59.4329L130.558 59.8448C131.101 59.9145 131.639 59.9887 132.173 60.0673L132.233 59.6565C132.776 59.7365 133.315 59.8211 133.849 59.9102L133.78 60.3198C134.32 60.4099 134.855 60.5046 135.385 60.6038L135.461 60.1956C136.003 60.2971 136.54 60.4032 137.07 60.5139L136.985 60.9205C137.522 61.0324 138.053 61.149 138.577 61.2702L138.671 60.8656C139.208 60.9896 139.738 61.1184 140.262 61.2519L140.16 61.6543C140.691 61.7895 141.215 61.9295 141.732 62.0742L141.844 61.6742C142.374 61.8228 142.898 61.9763 143.413 62.1345L143.292 62.5315C143.815 62.6923 144.331 62.858 144.838 63.0284L144.971 62.6347C145.495 62.8109 146.01 62.9922 146.517 63.1784L146.373 63.5682C146.889 63.758 147.395 63.9529 147.891 64.1527L148.046 63.7675C148.56 63.9747 149.063 64.1873 149.555 64.4049L149.387 64.7847C149.89 65.0071 150.381 65.2348 150.859 65.4676L151.041 65.0942C151.54 65.3373 152.026 65.5859 152.498 65.8399L152.301 66.2056C152.785 66.466 153.254 66.7319 153.708 67.0031L153.921 66.6467C154.4 66.9329 154.862 67.225 155.306 67.5228L155.075 67.8678C155.533 68.1748 155.972 68.4875 156.391 68.8057L156.642 68.475C157.088 68.8135 157.512 69.1584 157.913 69.5093L157.64 69.822C158.053 70.1832 158.442 70.5503 158.804 70.9227L159.102 70.6332C159.492 71.0345 159.854 71.4427 160.186 71.8573L159.862 72.1169C160.203 72.5434 160.512 72.9756 160.786 73.4129L161.138 73.1924C161.434 73.6649 161.692 74.1445 161.911 74.6306L161.532 74.8011C161.752 75.289 161.93 75.7822 162.064 76.2802L162.465 76.1717Z" stroke="white" stroke-width="0.830565" stroke-dasharray="1.66 1.66"/>
<path d="M189.151 76.104C189.247 76.6528 189.312 77.2055 189.345 77.7618L188.93 77.7861C188.946 78.0561 188.954 78.327 188.954 78.5988C188.954 78.8705 188.946 79.1414 188.93 79.4114L189.345 79.4357C189.312 79.992 189.247 80.5447 189.151 81.0935L188.742 81.0215C188.648 81.5518 188.525 82.0787 188.371 82.6019L188.77 82.7188C188.614 83.2481 188.43 83.7733 188.216 84.2941L187.832 84.1365C187.629 84.6326 187.398 85.125 187.141 85.6136L187.509 85.8069C187.254 86.2924 186.973 86.7735 186.668 87.2501L186.319 87.0263C186.029 87.4785 185.717 87.9271 185.382 88.3716L185.714 88.6214C185.384 89.0591 185.034 89.4925 184.663 89.9214L184.349 89.6497C183.996 90.0579 183.623 90.4624 183.232 90.8628L183.529 91.1529C183.145 91.5461 182.744 91.9351 182.326 92.3198L182.044 92.0141C181.647 92.3794 181.234 92.741 180.805 93.0986L181.071 93.4175C180.651 93.768 180.216 94.1146 179.768 94.4571L179.516 94.1269C179.084 94.4566 178.639 94.7826 178.18 95.1048L178.419 95.4445C177.968 95.7615 177.505 96.0746 177.029 96.3838L176.803 96.0357C176.346 96.3325 175.879 96.6258 175.4 96.9154L175.615 97.2707C175.145 97.5546 174.665 97.8349 174.175 98.1114L173.971 97.7498C173.494 98.0189 173.007 98.2846 172.511 98.5467L172.705 98.914C172.217 99.1715 171.72 99.4254 171.214 99.6758L171.03 99.3036C170.541 99.5458 170.043 99.7846 169.537 100.02L169.713 100.396C169.211 100.63 168.702 100.86 168.185 101.086L168.018 100.706C167.516 100.926 167.006 101.142 166.489 101.355L166.647 101.739C166.138 101.949 165.622 102.156 165.098 102.36L164.948 101.973C164.433 102.173 163.911 102.37 163.382 102.564L163.525 102.954C163.01 103.143 162.488 103.329 161.96 103.512L161.824 103.119C161.303 103.3 160.776 103.477 160.243 103.651L160.372 104.046C159.847 104.217 159.316 104.386 158.78 104.551L158.658 104.154C158.132 104.316 157.6 104.475 157.064 104.631L157.18 105.03C156.647 105.185 156.11 105.337 155.568 105.485L155.458 105.085C154.927 105.23 154.392 105.372 153.853 105.512L153.957 105.914C153.418 106.053 152.875 106.188 152.328 106.321L152.23 105.918C151.696 106.047 151.158 106.174 150.616 106.297L150.708 106.702C150.165 106.826 149.619 106.946 149.068 107.064L148.981 106.658C148.444 106.773 147.902 106.885 147.357 106.993L147.438 107.401C146.893 107.51 146.344 107.616 145.791 107.719L145.715 107.31C145.173 107.411 144.629 107.509 144.081 107.604L144.152 108.013C143.603 108.108 143.052 108.201 142.497 108.29L142.432 107.88C141.887 107.967 141.34 108.052 140.79 108.133L140.851 108.544C140.3 108.626 139.747 108.704 139.191 108.78L139.135 108.369C138.588 108.443 138.039 108.515 137.487 108.583L137.538 108.995C136.986 109.064 136.43 109.13 135.873 109.193L135.826 108.78C135.278 108.842 134.727 108.901 134.174 108.957L134.216 109.37C133.662 109.426 133.105 109.48 132.546 109.53L132.509 109.116C131.959 109.166 131.407 109.213 130.853 109.256L130.886 109.67C130.331 109.714 129.773 109.756 129.213 109.794L129.185 109.379C128.634 109.417 128.081 109.452 127.527 109.483L127.551 109.898C126.995 109.93 126.437 109.959 125.877 109.985L125.857 109.57C125.305 109.596 124.751 109.619 124.196 109.639L124.211 110.054C123.655 110.075 123.097 110.092 122.537 110.106L122.527 109.691C121.973 109.706 121.418 109.717 120.862 109.726L120.868 110.141C120.312 110.149 119.755 110.155 119.196 110.158L119.194 109.743C118.915 109.744 118.636 109.745 118.356 109.745C118.077 109.745 117.797 109.744 117.519 109.743L117.516 110.158C116.957 110.155 116.4 110.149 115.844 110.141L115.851 109.726C115.294 109.717 114.739 109.706 114.186 109.691L114.175 110.106C113.615 110.092 113.057 110.075 112.501 110.054L112.516 109.639C111.961 109.619 111.407 109.596 110.855 109.57L110.835 109.985C110.275 109.959 109.718 109.93 109.162 109.898L109.185 109.483C108.631 109.452 108.078 109.417 107.528 109.379L107.499 109.794C106.939 109.756 106.382 109.714 105.826 109.67L105.859 109.256C105.305 109.213 104.753 109.166 104.203 109.116L104.166 109.53C103.607 109.48 103.05 109.426 102.496 109.37L102.538 108.957C101.985 108.901 101.434 108.842 100.886 108.78L100.839 109.193C100.282 109.13 99.7266 109.064 99.1742 108.995L99.2255 108.583C98.6734 108.515 98.1241 108.443 97.5775 108.369L97.5215 108.78C96.9653 108.704 96.4119 108.626 95.8616 108.544L95.9225 108.133C95.3721 108.052 94.8248 107.967 94.2805 107.88L94.2147 108.29C93.6601 108.201 93.1087 108.108 92.5606 108.013L92.6315 107.604C92.0834 107.509 91.5387 107.411 90.9973 107.31L90.9213 107.719C90.3685 107.616 89.8194 107.51 89.2738 107.401L89.3552 106.993C88.8101 106.885 88.2686 106.773 87.731 106.658L87.6442 107.064C87.0936 106.946 86.5469 106.826 86.0043 106.702L86.0965 106.297C85.5543 106.174 85.0161 106.047 84.4822 105.918L84.3843 106.321C83.837 106.188 83.2941 106.053 82.7556 105.914L82.8594 105.512C82.3198 105.372 81.7847 105.23 81.2543 105.085L81.1446 105.485C80.6023 105.337 80.0649 105.185 79.5324 105.03L79.6483 104.631C79.1118 104.475 78.5803 104.316 78.0541 104.154L77.9318 104.551C77.3959 104.386 76.8653 104.217 76.3403 104.046L76.4693 103.651C75.9364 103.477 75.4092 103.3 74.888 103.119L74.7521 103.512C74.2243 103.329 73.7024 103.143 73.1866 102.954L73.3296 102.564C72.8013 102.37 72.2795 102.173 71.7644 101.973L71.6138 102.36C71.0906 102.156 70.5742 101.949 70.0647 101.739L70.223 101.355C69.706 101.142 69.1964 100.926 68.6941 100.706L68.5276 101.086C68.0104 100.86 67.5009 100.63 66.9995 100.396L67.1747 100.02C66.6688 99.7846 66.1711 99.5458 65.682 99.3036L65.4977 99.6758C64.992 99.4254 64.4951 99.1715 64.0074 98.914L64.2013 98.5467C63.7048 98.2846 63.2179 98.0189 62.7409 97.7498L62.5368 98.1114C62.0467 97.8349 61.5668 97.5546 61.0974 97.2707L61.3123 96.9154C60.8334 96.6258 60.3657 96.3325 59.9093 96.0357L59.6829 96.3838C59.2075 96.0746 58.7441 95.7615 58.2931 95.4445L58.5319 95.1048C58.0735 94.7826 57.6282 94.4566 57.1963 94.1269L56.9444 94.4571C56.4957 94.1146 56.0611 93.768 55.6409 93.4175L55.907 93.0986C55.4783 92.741 55.065 92.3794 54.6676 92.0141L54.3866 92.3198C53.9681 91.9352 53.5667 91.5461 53.1827 91.1529L53.4798 90.8628C53.0888 90.4624 52.7165 90.0579 52.3634 89.6497L52.0493 89.9214C51.6783 89.4925 51.3278 89.0591 50.9982 88.6214L51.33 88.3716C50.9953 87.9271 50.683 87.4785 50.3936 87.0263L50.0438 87.2501C49.7388 86.7736 49.4584 86.2924 49.2032 85.8069L49.5708 85.6137C49.314 85.125 49.0836 84.6326 48.8802 84.1365L48.4959 84.2941C48.2824 83.7733 48.0976 83.2482 47.9424 82.7188L48.3409 82.6019C48.1874 82.0787 48.0637 81.5518 47.9704 81.0215L47.5614 81.0935C47.4648 80.5447 47.3998 79.992 47.3673 79.4357L47.7818 79.4114C47.766 79.1414 47.7581 78.8705 47.7581 78.5988C47.7581 78.327 47.766 78.0562 47.7818 77.7861L47.3673 77.7619C47.3998 77.2055 47.4648 76.6528 47.5614 76.104L47.9704 76.176C48.0637 75.6457 48.1874 75.1188 48.3409 74.5956L47.9424 74.4787C48.0976 73.9494 48.2824 73.4242 48.4959 72.9034L48.8802 73.061C49.0836 72.565 49.314 72.0725 49.5708 71.5839L49.2032 71.3907C49.4584 70.9052 49.7388 70.424 50.0438 69.9474L50.3936 70.1712C50.6829 69.719 50.9952 69.2705 51.33 68.8259L50.9982 68.5761C51.3278 68.1384 51.6783 67.705 52.0493 67.2761L52.3634 67.5478C52.7165 67.1396 53.0888 66.7352 53.4798 66.3347L53.1827 66.0446C53.5667 65.6514 53.9681 65.2624 54.3866 64.8777L54.6676 65.1834C55.065 64.8181 55.4783 64.4566 55.907 64.0989L55.6409 63.78C56.0611 63.4295 56.4957 63.0829 56.9444 62.7405L57.1963 63.0706C57.6282 62.7409 58.0735 62.4149 58.5319 62.0928L58.2931 61.753C58.7441 61.436 59.2075 61.1229 59.6829 60.8137L59.9093 61.1618C60.3657 60.865 60.8334 60.5717 61.3123 60.2821L61.0974 59.9268C61.5668 59.6429 62.0467 59.3626 62.5368 59.0861L62.7409 59.4478C63.2179 59.1786 63.7048 58.9129 64.2013 58.6508L64.0074 58.2835C64.4951 58.026 64.992 57.7721 65.4977 57.5217L65.682 57.8939C66.1711 57.6517 66.6688 57.4129 67.1747 57.1775L66.9995 56.801C67.5009 56.5677 68.0104 56.3378 68.5276 56.1114L68.6941 56.4918C69.1964 56.272 69.706 56.0554 70.223 55.8422L70.0647 55.4583C70.5742 55.2482 71.0906 55.0413 71.6138 54.8378L71.7644 55.2249C72.2795 55.0245 72.8013 54.8275 73.3296 54.6337L73.1866 54.2438C73.7024 54.0546 74.2243 53.8686 74.7521 53.6859L74.888 54.0783C75.4092 53.8979 75.9364 53.7205 76.4693 53.5465L76.3403 53.1517C76.8653 52.9802 77.3959 52.8118 77.9318 52.6466L78.0541 53.0434C78.5803 52.8812 79.1118 52.7221 79.6483 52.5661L79.5324 52.1673C80.0649 52.0125 80.6023 51.8608 81.1446 51.7122L81.2543 52.1127C81.7847 51.9674 82.3198 51.8251 82.8594 51.6859L82.7556 51.2838C83.2941 51.1449 83.837 51.009 84.3843 50.8763L84.4822 51.2798C85.0161 51.1503 85.5543 51.0238 86.0965 50.9002L86.0043 50.4953C86.5469 50.3717 87.0936 50.251 87.6442 50.1335L87.731 50.5396C88.2686 50.4248 88.8101 50.3129 89.3552 50.204L89.2738 49.7968C89.8194 49.6878 90.3685 49.5818 90.9213 49.4788L90.9973 49.8871C91.5387 49.7862 92.0834 49.6883 92.6315 49.5933L92.5606 49.1841C93.1087 49.0891 93.6601 48.997 94.2147 48.9079L94.2805 49.3179C94.8248 49.2305 95.3721 49.146 95.9225 49.0643L95.8616 48.6535C96.4119 48.5719 96.9653 48.4932 97.5215 48.4175L97.5776 48.8289C98.1241 48.7545 98.6734 48.6829 99.2255 48.6143L99.1742 48.2022C99.7266 48.1334 100.282 48.0676 100.839 48.0047L100.886 48.4174C101.434 48.3556 101.985 48.2966 102.538 48.2405L102.496 47.8274C103.05 47.7712 103.607 47.7179 104.166 47.6675L104.203 48.0811C104.753 48.0316 105.305 47.9849 105.859 47.941L105.826 47.527C106.382 47.4831 106.939 47.442 107.499 47.4038L107.528 47.8181C108.078 47.7806 108.631 47.7459 109.185 47.714L109.162 47.2994C109.717 47.2675 110.275 47.2384 110.835 47.2122L110.855 47.627C111.407 47.6012 111.961 47.5782 112.516 47.558L112.501 47.143C113.057 47.1229 113.615 47.1055 114.175 47.0911L114.186 47.5062C114.739 47.492 115.294 47.4805 115.85 47.4719L115.844 47.0567C116.4 47.0481 116.957 47.0423 117.516 47.0395L117.519 47.4547C117.797 47.4533 118.076 47.4526 118.356 47.4526C118.636 47.4526 118.915 47.4533 119.194 47.4547L119.196 47.0395C119.755 47.0423 120.312 47.0481 120.868 47.0567L120.862 47.4719C121.418 47.4805 121.973 47.492 122.527 47.5062L122.537 47.0911C123.097 47.1055 123.655 47.1229 124.211 47.143L124.196 47.558C124.751 47.5782 125.305 47.6012 125.857 47.627L125.877 47.2122C126.437 47.2384 126.995 47.2675 127.551 47.2994L127.527 47.714C128.081 47.7459 128.634 47.7806 129.185 47.8181L129.213 47.4038C129.773 47.442 130.331 47.4831 130.886 47.527L130.853 47.941C131.407 47.9849 131.959 48.0316 132.509 48.0811L132.546 47.6675C133.105 47.7179 133.662 47.7712 134.216 47.8274L134.174 48.2405C134.727 48.2966 135.278 48.3556 135.826 48.4174L135.873 48.0047C136.43 48.0676 136.986 48.1334 137.538 48.2022L137.487 48.6143C138.039 48.6829 138.588 48.7545 139.135 48.8289L139.191 48.4175C139.747 48.4932 140.3 48.5719 140.851 48.6535L140.79 49.0643C141.34 49.146 141.887 49.2305 142.432 49.3179L142.497 48.9079C143.052 48.997 143.603 49.0891 144.152 49.1841L144.081 49.5933C144.629 49.6883 145.173 49.7862 145.715 49.8871L145.791 49.4788C146.344 49.5818 146.893 49.6878 147.438 49.7968L147.357 50.204C147.902 50.3129 148.444 50.4248 148.981 50.5396L149.068 50.1335C149.619 50.251 150.165 50.3717 150.708 50.4953L150.616 50.9002C151.158 51.0238 151.696 51.1503 152.23 51.2798L152.328 50.8763C152.875 51.009 153.418 51.1449 153.957 51.2838L153.853 51.6859C154.392 51.8251 154.927 51.9674 155.458 52.1127L155.568 51.7122C156.11 51.8608 156.647 52.0125 157.18 52.1673L157.064 52.5661C157.6 52.7221 158.132 52.8812 158.658 53.0434L158.78 52.6466C159.316 52.8118 159.847 52.9802 160.372 53.1517L160.243 53.5464C160.776 53.7205 161.303 53.8978 161.824 54.0783L161.96 53.6859C162.488 53.8686 163.01 54.0546 163.525 54.2438L163.382 54.6337C163.911 54.8275 164.433 55.0245 164.948 55.2249L165.098 54.8378C165.622 55.0413 166.138 55.2482 166.647 55.4583L166.489 55.8422C167.006 56.0554 167.516 56.272 168.018 56.4918L168.185 56.1114C168.702 56.3378 169.211 56.5677 169.713 56.801L169.537 57.1775C170.043 57.4129 170.541 57.6517 171.03 57.8939L171.214 57.5217C171.72 57.7721 172.217 58.026 172.705 58.2835L172.511 58.6508C173.007 58.9129 173.494 59.1786 173.971 59.4478L174.175 59.0861C174.665 59.3626 175.145 59.6429 175.615 59.9268L175.4 60.2821C175.879 60.5717 176.346 60.865 176.803 61.1618L177.029 60.8137C177.505 61.1229 177.968 61.436 178.419 61.753L178.18 62.0928C178.639 62.4149 179.084 62.7409 179.516 63.0706L179.768 62.7405C180.216 63.0829 180.651 63.4295 181.071 63.78L180.805 64.0989C181.234 64.4565 181.647 64.8181 182.044 65.1834L182.326 64.8777C182.744 65.2624 183.145 65.6514 183.529 66.0446L183.232 66.3347C183.623 66.7351 183.996 67.1396 184.349 67.5478L184.663 67.2761C185.034 67.705 185.384 68.1384 185.714 68.5761L185.382 68.8259C185.717 69.2704 186.029 69.719 186.319 70.1712L186.668 69.9474C186.973 70.424 187.254 70.9051 187.509 71.3906L187.141 71.5839C187.398 72.0725 187.629 72.5649 187.832 73.061L188.216 72.9034C188.43 73.4242 188.614 73.9494 188.77 74.4787L188.371 74.5956C188.525 75.1188 188.648 75.6457 188.742 76.176L189.151 76.104Z" stroke="white" stroke-width="0.830565" stroke-dasharray="1.66 1.66"/>
<circle r="2.90698" transform="matrix(-1 0 0 1 124.17 75.6918)" fill="#2BB2FF"/>
<circle cx="162.376" cy="75.6918" r="2.90698" fill="#BB6BD9"/>
<circle cx="188.954" cy="75.6918" r="2.90698" fill="#FF0F57"/>
<path fill-rule="evenodd" clip-rule="evenodd" d="M131.677 63.7416C131.66 63.663 131.636 63.5849 131.607 63.5074C131.559 63.3822 131.495 63.2586 131.415 63.1365C131.394 63.1053 131.373 63.0742 131.35 63.0432C131.3 62.9742 131.244 62.9057 131.184 62.8377C131.145 62.7949 131.105 62.7523 131.063 62.7099C131.049 62.6961 131.035 62.6825 131.021 62.6693C130.863 62.5189 130.698 62.4012 130.525 62.3161C130.275 62.1935 130.009 62.1388 129.727 62.1519C129.662 62.155 129.596 62.1616 129.529 62.1719C129.087 62.2374 128.64 62.4514 128.189 62.8141C128.148 62.8472 128.106 62.8816 128.065 62.9173C127.967 63.0018 127.869 63.0932 127.77 63.1916L125.819 65.1428L130.496 69.82L131.661 68.6557L130.047 67.0418L130.773 66.3151L133.263 67.0538L134.515 65.8012L134.467 65.753L131.532 64.938C131.609 64.7398 131.662 64.5511 131.689 64.3719C131.698 64.3152 131.704 64.2595 131.708 64.2047C131.711 64.1601 131.713 64.116 131.713 64.0726C131.712 64.0187 131.71 63.9657 131.704 63.9136C131.698 63.8551 131.689 63.7977 131.677 63.7416ZM135.081 65.2351L138.518 61.7985L137.586 60.8671L135.314 63.1394L134.298 62.1237L136.229 60.1926L135.294 59.2572L133.363 61.1883L132.508 60.3331L134.784 58.0568L133.845 57.1173L130.404 60.558L135.081 65.2351ZM127.266 59.4653C126.544 59.8378 125.93 60.3334 125.421 60.8424L123.47 62.7936C122.173 64.091 122.173 66.1946 123.47 67.492L128.147 72.1691C129.445 73.4666 131.548 73.4666 132.846 72.1691L134.01 71.0049C134.291 70.7233 134.512 70.4037 134.671 70.0627C135.015 69.9016 135.334 69.6803 135.612 69.403L136.864 68.1504C136.96 68.0546 137.049 67.9544 137.131 67.8505C137.234 67.7688 137.335 67.6801 137.43 67.5843L140.867 64.1477C140.957 64.0581 141.04 63.9647 141.117 63.868C141.214 63.7907 141.307 63.7073 141.397 63.6178L142.561 62.4535C143.645 61.3697 143.824 59.7235 143.097 58.4544C143.401 57.9058 143.634 57.2966 143.753 56.6264C143.774 56.6332 143.795 56.6399 143.816 56.6464L143.826 56.6496C144.947 56.9966 146.121 57.0245 147.27 56.7047L147.281 56.7016C148.408 56.3836 149.367 55.7765 150.149 54.9941C150.741 54.4017 151.231 53.7073 151.569 52.9154C152.063 52.7602 152.528 52.4869 152.919 52.0955L154.084 50.9312C154.412 50.6031 154.657 50.2235 154.819 49.8183C155.229 49.6537 155.608 49.4066 155.93 49.0844L157.091 47.9242C157.227 47.788 157.349 47.6429 157.456 47.4909C157.608 47.3833 157.753 47.2614 157.89 47.1252L161.326 43.6886C162.624 42.3912 162.624 40.2877 161.326 38.9902L160.395 38.0588C159.948 37.612 159.406 37.3191 158.833 37.18L158.474 36.8204C158.336 36.2444 158.042 35.6981 157.592 35.2485L156.653 34.3091C155.356 33.0116 153.252 33.0116 151.955 34.3091L148.514 37.7497C148.378 37.8859 148.256 38.0309 148.148 38.183C147.996 38.2906 147.851 38.4125 147.715 38.5486L146.555 39.7089C146.227 40.037 145.982 40.4166 145.819 40.8218C145.409 40.9864 145.03 41.2335 144.708 41.5557L143.544 42.7199C143.152 43.1121 142.878 43.5779 142.723 44.0729C141.926 44.4124 141.23 44.9054 140.637 45.4981C139.846 46.2892 139.231 47.2652 138.923 48.419C138.752 49.0521 138.687 49.6912 138.722 50.3233C137.922 50.2736 137.147 50.406 136.428 50.674C135.477 51.0244 134.677 51.5862 134.017 52.2469L132.021 54.2422C131.933 54.3311 131.85 54.4238 131.773 54.5197C131.677 54.5964 131.584 54.6793 131.496 54.7681L128.055 58.2088C127.688 58.5754 127.425 59.0063 127.266 59.4653ZM137.582 53.7891C137.29 53.8962 137.01 54.0543 136.741 54.2635C136.621 54.3567 136.504 54.4601 136.389 54.5736C136.385 54.5771 136.382 54.5806 136.378 54.5841C136.374 54.5881 136.37 54.5921 136.366 54.5961M138.116 60.3372L139.048 61.2686ZM137.582 53.7891C137.725 53.7355 137.867 53.696 138.007 53.6704ZM137.817 57.5528L138.029 57.3413Z" fill="black"/>
<path d="M130.773 66.3152L130.047 67.0418L131.661 68.6557L130.496 69.82L125.819 65.1428L127.77 63.1917C128.364 62.5975 128.951 62.2576 129.529 62.1719C130.104 62.0836 130.615 62.2629 131.062 62.7099C131.394 63.0418 131.599 63.3857 131.677 63.7417C131.754 64.0923 131.706 64.4911 131.532 64.9381L134.467 65.7531L134.515 65.8013L133.262 67.0539L130.773 66.3152ZM129.111 66.1064L129.898 65.3195C130.383 64.8351 130.425 64.3934 130.027 63.9946C129.633 63.6012 129.183 63.6574 128.678 64.1633L127.923 64.918L129.111 66.1064Z" fill="#2AB2FF"/>
<path d="M136.229 60.1927L134.298 62.1238L135.314 63.1395L137.586 60.8672L138.518 61.7986L135.081 65.2352L130.404 60.558L133.845 57.1174L134.784 58.0568L132.508 60.3332L133.363 61.1883L135.294 59.2573L136.229 60.1927Z" fill="#2AB2FF"/>
<path d="M138.674 58.5667L140.212 60.1044L139.048 61.2686L134.37 56.5915L136.366 54.5961C136.746 54.2161 137.151 53.9471 137.582 53.7892C138.011 53.6286 138.428 53.5938 138.835 53.6848C139.244 53.7731 139.606 53.9739 139.919 54.287C140.382 54.75 140.576 55.2947 140.501 55.921C140.423 56.5446 140.085 57.1562 139.485 57.7557L138.674 58.5667ZM137.739 57.6313L138.57 56.8002C138.816 56.554 138.955 56.3131 138.987 56.0776C139.022 55.8394 138.95 55.6306 138.771 55.4513C138.565 55.2452 138.33 55.1475 138.068 55.1582C137.808 55.1662 137.558 55.288 137.317 55.5236L136.474 56.3666L137.739 57.6313Z" fill="#2AB2FF"/>
<path d="M147.663 48.1645C148.121 48.6222 148.435 49.116 148.607 49.646C148.778 50.1759 148.791 50.7032 148.647 51.2278C148.505 51.7497 148.223 52.2221 147.8 52.645C147.374 53.0705 146.9 53.3569 146.379 53.5041C145.859 53.6487 145.336 53.6393 144.809 53.476C144.279 53.3101 143.786 53.0023 143.331 52.5526L143.123 52.3439C142.662 51.8835 142.346 51.3884 142.175 50.8584C142.004 50.3285 141.989 49.8026 142.131 49.2806C142.27 48.756 142.555 48.2783 142.986 47.8474C143.409 47.4245 143.879 47.1421 144.395 47.0003C144.915 46.8557 145.44 46.8678 145.973 47.0364C146.506 47.1997 147.001 47.5075 147.459 47.9598L147.663 48.1645ZM146.314 49.1441C145.87 48.6998 145.439 48.4483 145.022 48.3894C144.607 48.3278 144.239 48.4576 143.918 48.7788C143.586 49.1107 143.452 49.4827 143.516 49.8949C143.583 50.3044 143.839 50.7313 144.283 51.1756L144.468 51.3603C144.904 51.7965 145.332 52.0481 145.752 52.115C146.172 52.182 146.547 52.0508 146.876 51.7216C147.187 51.4111 147.311 51.0458 147.25 50.6256C147.191 50.2027 146.937 49.7664 146.487 49.3168L146.314 49.1441Z" fill="#2AB2FF"/>
<path d="M154.741 45.575L153.581 46.7353L148.82 45.6674L151.734 48.5821L150.57 49.7464L145.893 45.0692L147.057 43.9049L151.823 44.9768L148.904 42.0581L150.064 40.8979L154.741 45.575Z" fill="#2AB2FF"/>
<path d="M156.688 39.7336L154.757 41.6647L155.773 42.6804L158.045 40.4081L158.977 41.3395L155.54 44.7761L150.863 40.0989L154.304 36.6583L155.243 37.5978L152.967 39.8741L153.822 40.7293L155.753 38.7982L156.688 39.7336Z" fill="#2AB2FF"/>
<path d="M171.595 64.1792C172.074 64.7226 172.278 65.3301 172.205 66.0019C172.136 66.6711 171.799 67.3081 171.194 67.9129C170.543 68.5633 169.833 68.8778 169.062 68.8564C168.291 68.8296 167.551 68.4723 166.842 67.7845L166.577 67.5195C165.878 66.8209 165.509 66.0742 165.469 65.2793C165.431 64.4817 165.735 63.7604 166.38 63.1153C166.985 62.5104 167.621 62.1772 168.287 62.1157C168.954 62.0541 169.58 62.2629 170.166 62.742L169.006 63.9022C168.465 63.4151 167.902 63.4646 167.316 64.0508C166.705 64.661 166.818 65.4024 167.653 66.2749L167.95 66.572C168.429 67.0511 168.849 67.3241 169.21 67.391C169.574 67.4553 169.925 67.3188 170.262 66.9815C170.554 66.6898 170.715 66.4114 170.744 66.1465C170.776 65.8788 170.672 65.6112 170.431 65.3435L171.595 64.1792Z" fill="#BB6BD9"/>
<path d="M175.811 61.385L174 63.1956L174.562 64.4161L173.398 65.5804L170.571 59.0524L171.663 57.9604L178.207 60.7707L177.035 61.943L175.811 61.385ZM173.462 62.0314L174.638 60.855L172.466 59.8634L173.462 62.0314Z" fill="#BB6BD9"/>
<path d="M175.453 54.1705L179.773 56.1538L177.782 51.842L179.32 50.3043L183.997 54.9815L182.828 56.1498L181.881 55.2023L179.544 52.6248L181.684 57.294L180.909 58.0688L176.256 55.937L178.822 58.2615L179.769 59.209L178.601 60.3773L173.924 55.7001L175.453 54.1705Z" fill="#BB6BD9"/>
<path d="M185.948 49.136L184.017 51.0671L185.033 52.0829L187.305 49.8105L188.236 50.7419L184.8 54.1785L180.123 49.5014L183.563 46.0608L184.503 47.0002L182.226 49.2766L183.081 50.1317L185.012 48.2006L185.948 49.136Z" fill="#BB6BD9"/>
<path d="M189.043 46.7071L188.317 47.4338L189.931 49.0477L188.766 50.212L184.089 45.5348L186.04 43.5837C186.634 42.9895 187.221 42.6496 187.799 42.5639C188.374 42.4756 188.885 42.6549 189.332 43.1019C189.664 43.4338 189.869 43.7777 189.947 44.1337C190.024 44.4843 189.976 44.8831 189.802 45.3301L192.737 46.1451L192.785 46.1932L191.532 47.4458L189.043 46.7071ZM187.381 46.4984L188.168 45.7115C188.652 45.227 188.695 44.7854 188.297 44.3866C187.903 43.9932 187.453 44.0494 186.948 44.5552L186.193 45.31L187.381 46.4984Z" fill="#BB6BD9"/>
<path d="M195.362 41.8332L193.552 43.6439L194.114 44.8644L192.95 46.0286L190.123 39.5007L191.215 38.4087L197.759 41.219L196.587 42.3913L195.362 41.8332ZM193.014 42.4796L194.19 41.3033L192.018 40.3117L193.014 42.4796Z" fill="#BB6BD9"/>
<path d="M199.498 36.9674C199.342 36.8121 199.152 36.7533 198.928 36.7907C198.703 36.8282 198.395 36.9674 198.004 37.2083C197.613 37.4492 197.268 37.6365 196.968 37.7703C196.669 37.8988 196.392 37.9751 196.137 37.9992C195.883 38.0233 195.647 37.9938 195.431 37.9108C195.211 37.8252 194.997 37.678 194.788 37.4692C194.387 37.0678 194.224 36.5699 194.299 35.9757C194.373 35.3816 194.675 34.8208 195.202 34.2936C195.777 33.7181 196.373 33.3849 196.988 33.2939C197.604 33.1975 198.138 33.3755 198.59 33.8279L197.43 34.9881C197.259 34.8168 197.046 34.7432 196.792 34.7673C196.54 34.7887 196.298 34.9159 196.065 35.1487C195.859 35.3548 195.737 35.5676 195.7 35.7871C195.662 36.0065 195.712 36.1845 195.848 36.321C195.985 36.4575 196.163 36.5017 196.382 36.4535C196.599 36.4026 196.901 36.2608 197.29 36.0279C198.05 35.5408 198.684 35.2839 199.192 35.2571C199.704 35.2277 200.164 35.4177 200.574 35.8272C200.991 36.2447 201.157 36.7399 201.071 37.3127C200.983 37.8827 200.654 38.4528 200.084 39.0229C199.696 39.411 199.282 39.6987 198.843 39.8861C198.404 40.0734 197.983 40.1363 197.579 40.0748C197.177 40.0106 196.817 39.8192 196.499 39.5007L197.663 38.3364C197.912 38.5853 198.167 38.6884 198.43 38.6455C198.695 38.6 198.981 38.4234 199.289 38.1156C199.498 37.9068 199.619 37.6994 199.654 37.4933C199.692 37.2845 199.639 37.1092 199.498 36.9674Z" fill="#BB6BD9"/>
<path fill-rule="evenodd" clip-rule="evenodd" d="M173.398 65.5804L174.562 64.4161L174 63.1956L175.811 61.385L177.035 61.943L178.208 60.7707L171.664 57.9604L170.572 59.0524L173.398 65.5804ZM172.116 65.0686C172.026 64.7883 171.878 64.5215 171.671 64.2683C171.665 64.2605 171.658 64.2527 171.652 64.245C171.633 64.2229 171.615 64.201 171.595 64.1792L170.431 65.3435C170.581 65.5098 170.678 65.6761 170.722 65.8423C170.722 65.8442 170.723 65.846 170.723 65.8478C170.749 65.9473 170.756 66.0469 170.744 66.1465C170.718 66.3848 170.585 66.634 170.346 66.894C170.321 66.9213 170.295 66.9487 170.268 66.9763C170.266 66.978 170.264 66.9798 170.262 66.9815C169.925 67.3188 169.575 67.4553 169.211 67.391C169.179 67.3851 169.146 67.3776 169.114 67.3685C169.11 67.3676 169.107 67.3666 169.103 67.3656C168.992 67.3338 168.876 67.2836 168.754 67.215C168.678 67.172 168.6 67.1217 168.519 67.0642C168.447 67.0129 168.374 66.9557 168.298 66.8928C168.202 66.8125 168.104 66.7229 168.002 66.6239C167.997 66.6181 167.991 66.6122 167.985 66.6063C167.973 66.595 167.962 66.5836 167.95 66.572L167.653 66.2749C167.571 66.1892 167.496 66.1048 167.428 66.0217C167.373 65.9543 167.322 65.8878 167.276 65.8221C167.215 65.7341 167.161 65.6477 167.116 65.5627C167.052 65.4417 167.004 65.3236 166.973 65.2086C166.972 65.2069 166.972 65.2051 166.971 65.2034C166.858 64.7778 166.973 64.3936 167.316 64.0508C167.347 64.0196 167.378 63.9899 167.409 63.9618C167.755 63.6482 168.093 63.5231 168.423 63.5866C168.586 63.618 168.747 63.6955 168.907 63.819C168.94 63.8447 168.973 63.8725 169.006 63.9022L170.166 62.742C170.152 62.7308 170.139 62.7197 170.125 62.7088C170.121 62.7057 170.117 62.7026 170.113 62.6995C170.109 62.6959 170.104 62.6923 170.099 62.6886C169.727 62.3986 169.338 62.2167 168.933 62.1429C168.722 62.1045 168.507 62.0954 168.287 62.1157C168.284 62.116 168.281 62.1162 168.278 62.1165C167.996 62.1437 167.719 62.2196 167.448 62.3442C167.082 62.5125 166.726 62.7695 166.38 63.1153C165.735 63.7604 165.431 64.4817 165.469 65.2793C165.507 66.0321 165.84 66.7418 166.469 67.4082C166.477 67.4169 166.485 67.4256 166.494 67.4343C166.521 67.4627 166.549 67.4912 166.577 67.5195L166.842 67.7845C167.514 68.4361 168.213 68.7911 168.941 68.8494C168.945 68.8498 168.949 68.8501 168.953 68.8504C168.989 68.8531 169.026 68.8551 169.062 68.8564C169.801 68.8769 170.485 68.5888 171.113 67.9919C171.14 67.9662 171.167 67.9399 171.194 67.9129C171.532 67.5751 171.786 67.2272 171.957 66.8694C172.044 66.6873 172.109 66.5027 172.153 66.3155C172.154 66.3114 172.155 66.3074 172.156 66.3033C172.171 66.2365 172.183 66.1694 172.193 66.102C172.198 66.0687 172.202 66.0354 172.206 66.0019C172.224 65.8307 172.225 65.6636 172.207 65.5007C172.204 65.4706 172.2 65.4406 172.196 65.4108C172.178 65.2946 172.152 65.1805 172.116 65.0686ZM174.809 68.5883C174.466 69.2199 174.027 69.7781 173.543 70.2621C172.382 71.4235 170.828 72.229 168.97 72.1774L168.947 72.1767C167.142 72.114 165.658 71.2644 164.529 70.1694C164.517 70.1576 164.505 70.1457 164.493 70.1337L164.228 69.8687C163.094 68.7345 162.242 67.2496 162.151 65.4469L162.15 65.4352C162.062 63.5659 162.829 61.9686 164.031 60.7661C164.875 59.9217 165.951 59.2115 167.252 58.9219C167.284 58.1035 167.619 57.307 168.222 56.7032L169.314 55.6112C169.718 55.2074 170.208 54.924 170.734 54.771C170.884 54.2511 171.165 53.7608 171.575 53.3509L173.104 51.8213C173.522 51.4033 174.032 51.1148 174.577 50.9658C174.726 50.4207 175.015 49.9108 175.433 49.4928L176.971 47.9551C177.107 47.8183 177.253 47.6958 177.406 47.5878C177.514 47.4349 177.637 47.2891 177.773 47.1522L181.214 43.7116C181.303 43.6227 181.396 43.5399 181.492 43.4631C181.568 43.3672 181.651 43.2745 181.74 43.1856L183.691 41.2345C184.476 40.4495 185.511 39.6966 186.803 39.3778C186.834 38.5568 187.168 37.7572 187.774 37.1515L188.866 36.0595C189.469 35.4564 190.265 35.1221 191.082 35.089C191.353 33.8136 192.033 32.7639 192.853 31.9444C193.775 31.0223 194.984 30.2355 196.489 30.0094C198.18 29.7491 199.764 30.3028 200.94 31.4787C201.249 31.7885 201.485 32.1442 201.647 32.524C202.121 32.7786 202.549 33.104 202.923 33.478C204.068 34.6231 204.602 36.1656 204.357 37.804L204.355 37.8213C204.123 39.317 203.309 40.4963 202.433 41.3721C201.944 41.8614 201.388 42.296 200.762 42.6419C200.601 42.9813 200.381 43.2953 200.109 43.5682L198.936 44.7405C198.489 45.1878 197.936 45.4869 197.348 45.6252C197.21 46.2136 196.911 46.7662 196.463 47.2136L195.299 48.3778C195.272 48.4052 195.244 48.4321 195.216 48.4584C195.189 48.4867 195.162 48.5148 195.134 48.5424L193.882 49.795C193.604 50.0724 193.285 50.2936 192.941 50.4547C192.782 50.7958 192.561 51.1153 192.28 51.3969L191.116 52.5612C191.026 52.6508 190.933 52.7342 190.836 52.8114C190.759 52.9081 190.675 53.0015 190.586 53.0911L187.149 56.5277C187.012 56.6646 186.866 56.787 186.713 56.895C186.605 57.048 186.483 57.1938 186.346 57.3307L185.178 58.499C184.98 58.6966 184.764 58.8641 184.534 59.0016C184.397 59.2317 184.229 59.4475 184.034 59.6432L183.259 60.418C183.064 60.613 182.849 60.7798 182.62 60.9174C182.482 61.1458 182.315 61.3613 182.119 61.5582L180.95 62.7265C180.884 62.793 180.815 62.856 180.745 62.9157C180.685 62.986 180.623 63.0542 180.557 63.1199L179.385 64.2922C178.937 64.7395 178.385 65.0386 177.796 65.177C177.658 65.7654 177.359 66.318 176.911 66.7653L175.747 67.9296C175.471 68.2057 175.153 68.427 174.809 68.5883ZM180.91 58.0688L181.684 57.294L179.545 52.6248L181.881 55.2023L182.829 56.1498L183.997 54.9815L179.32 50.3043L177.782 51.842L179.773 56.1538L175.454 54.1705L173.924 55.7001L178.601 60.3773L179.769 59.209L178.822 58.2615L176.256 55.937L180.91 58.0688ZM180.123 49.5014L184.8 54.1785L188.236 50.7419L187.305 49.8105L185.033 52.0829L184.017 51.0671L185.948 49.136L185.013 48.2006L183.082 50.1317L182.226 49.2766L184.503 47.0002L183.563 46.0608L180.123 49.5014ZM184.089 45.5348L188.766 50.212L189.931 49.0477L188.317 47.4338L189.043 46.7071L191.533 47.4458L192.785 46.1932L192.737 46.1451L189.802 45.3301C189.879 45.1319 189.932 44.9432 189.959 44.7639C189.984 44.6036 189.989 44.4508 189.974 44.3057C189.968 44.2471 189.959 44.1898 189.947 44.1337C189.93 44.055 189.906 43.977 189.877 43.8995C189.817 43.7423 189.731 43.5876 189.62 43.4352C189.57 43.3663 189.514 43.2978 189.453 43.2298C189.415 43.1869 189.375 43.1443 189.332 43.1019C188.893 42.6624 188.391 42.4816 187.828 42.5597C187.818 42.5611 187.808 42.5625 187.799 42.5639C187.357 42.6294 186.91 42.8435 186.459 43.2061C186.32 43.3179 186.18 43.4437 186.04 43.5837L184.089 45.5348ZM188.168 45.7115C188.198 45.6819 188.226 45.6524 188.252 45.6231C188.257 45.6179 188.261 45.6127 188.266 45.6075C188.373 45.4853 188.452 45.3659 188.502 45.2493C188.561 45.1108 188.58 44.9763 188.558 44.8457C188.537 44.7202 188.478 44.5984 188.381 44.4802C188.38 44.4787 188.379 44.4772 188.378 44.4758C188.353 44.4458 188.326 44.4161 188.297 44.3866C188.253 44.3427 188.208 44.3043 188.163 44.2716C188.126 44.2449 188.088 44.222 188.05 44.2027C188.047 44.2011 188.044 44.1996 188.041 44.198C187.854 44.1065 187.656 44.1052 187.447 44.1941C187.372 44.2259 187.296 44.2692 187.218 44.3241C187.14 44.379 187.061 44.4454 186.98 44.5234C186.969 44.5338 186.959 44.5444 186.948 44.5552L186.193 45.31L187.381 46.4984L188.168 45.7115ZM192.95 46.0286L194.114 44.8644L193.552 43.6439L195.363 41.8332L196.587 42.3913L197.759 41.219L191.215 38.4087L190.123 39.5007L192.95 46.0286ZM193.014 42.4796L194.19 41.3033L192.018 40.3117L193.014 42.4796ZM196.499 39.5007C196.594 39.596 196.693 39.6799 196.796 39.7524C196.937 39.8522 197.085 39.9304 197.241 39.9871C197.35 40.027 197.463 40.0562 197.579 40.0748C197.599 40.0778 197.619 40.0806 197.639 40.083C197.747 40.0961 197.855 40.1004 197.965 40.0959C197.979 40.0954 197.992 40.0947 198.006 40.0939C198.088 40.089 198.171 40.0792 198.255 40.0645C198.312 40.0545 198.37 40.0422 198.428 40.0276C198.5 40.0095 198.572 39.9879 198.645 39.9627C198.648 39.9615 198.652 39.9603 198.655 39.9591C198.718 39.9373 198.78 39.913 198.843 39.8861C198.928 39.8501 199.011 39.8104 199.094 39.767C199.195 39.7135 199.295 39.6544 199.394 39.5896C199.413 39.5775 199.431 39.5652 199.449 39.5527C199.668 39.4039 199.879 39.2274 200.084 39.0229C200.103 39.0041 200.121 38.9852 200.14 38.9663C200.15 38.9555 200.161 38.9447 200.171 38.9339C200.555 38.5321 200.82 38.1303 200.964 37.7285C200.966 37.7241 200.968 37.7197 200.969 37.7153C201.017 37.5811 201.051 37.4469 201.072 37.3127C201.131 36.9146 201.069 36.5541 200.886 36.2311C200.812 36.1012 200.718 35.9774 200.605 35.8596C200.595 35.8488 200.584 35.838 200.574 35.8272C200.164 35.4177 199.704 35.2277 199.193 35.2571C199.121 35.2609 199.048 35.2691 198.972 35.2819C198.959 35.284 198.947 35.2862 198.934 35.2885C198.854 35.3033 198.772 35.3229 198.687 35.3473C198.678 35.35 198.669 35.3527 198.659 35.3554C198.467 35.4127 198.262 35.4944 198.043 35.6005C198.009 35.6168 197.975 35.6337 197.941 35.6511C197.933 35.655 197.925 35.659 197.918 35.663C197.8 35.7237 197.678 35.7912 197.553 35.8655C197.504 35.8944 197.455 35.9242 197.405 35.9551C197.398 35.9595 197.391 35.9639 197.384 35.9683C197.353 35.9878 197.321 36.0077 197.29 36.0279C197.286 36.0298 197.283 36.0317 197.28 36.0336C197.27 36.0397 197.26 36.0457 197.25 36.0517C197.245 36.0548 197.239 36.0578 197.234 36.0609C197.178 36.0941 197.124 36.1253 197.071 36.1546C197.069 36.1555 197.068 36.1565 197.066 36.1574C197.019 36.1833 196.974 36.2076 196.93 36.2303C196.926 36.2326 196.921 36.235 196.917 36.2373C196.879 36.2568 196.843 36.275 196.807 36.2921C196.715 36.3367 196.63 36.3731 196.553 36.4013C196.545 36.4043 196.537 36.4071 196.529 36.4099C196.484 36.4257 196.442 36.4386 196.402 36.4487C196.395 36.4504 196.389 36.452 196.382 36.4535C196.382 36.4536 196.381 36.4537 196.381 36.4538C196.239 36.4846 196.115 36.477 196.008 36.431C196.005 36.4296 196.002 36.4282 195.999 36.4268C195.997 36.426 195.995 36.4253 195.994 36.4245C195.992 36.4236 195.99 36.4226 195.988 36.4217C195.955 36.4058 195.924 36.3861 195.895 36.3627C195.879 36.35 195.863 36.336 195.848 36.321C195.799 36.2717 195.761 36.217 195.734 36.1568C195.687 36.0505 195.676 35.9272 195.7 35.7871C195.709 35.7323 195.724 35.678 195.744 35.6241C195.777 35.5339 195.825 35.4449 195.887 35.3571C195.888 35.3559 195.889 35.3548 195.89 35.3536C195.898 35.3413 195.908 35.329 195.917 35.3168C195.959 35.2616 196.007 35.2069 196.061 35.1527C196.062 35.1514 196.064 35.1501 196.065 35.1487C196.068 35.1457 196.071 35.1427 196.074 35.1398C196.08 35.1344 196.085 35.1291 196.09 35.1239C196.231 34.9881 196.375 34.8907 196.523 34.8318C196.527 34.8301 196.532 34.8284 196.536 34.8267C196.545 34.8233 196.554 34.82 196.563 34.8168C196.577 34.8119 196.591 34.8073 196.605 34.8031C196.667 34.7846 196.729 34.7727 196.792 34.7673C196.949 34.7524 197.091 34.7749 197.216 34.8349C197.221 34.8372 197.226 34.8396 197.231 34.842C197.252 34.8526 197.272 34.8643 197.292 34.877C197.341 34.9078 197.387 34.9448 197.43 34.9881L198.59 33.8279C198.53 33.7679 198.469 33.7128 198.406 33.6625C198.351 33.6181 198.294 33.5774 198.237 33.5405C197.887 33.3169 197.497 33.2312 197.065 33.2833C197.04 33.2864 197.014 33.2899 196.989 33.2939C196.883 33.3096 196.777 33.3324 196.672 33.3625C196.668 33.3637 196.663 33.365 196.659 33.3663C196.458 33.425 196.26 33.5101 196.064 33.6215C196.01 33.6518 195.957 33.684 195.904 33.7182C195.882 33.7325 195.86 33.7471 195.838 33.762C195.824 33.7711 195.811 33.7802 195.798 33.7895C195.786 33.7975 195.775 33.8056 195.763 33.8137C195.575 33.9477 195.39 34.1063 195.206 34.2896C195.205 34.2909 195.203 34.2922 195.202 34.2936C194.798 34.6972 194.527 35.1204 194.389 35.5632C194.346 35.6989 194.316 35.8364 194.299 35.9757C194.293 36.0216 194.289 36.0668 194.286 36.1115C194.267 36.3972 194.306 36.6594 194.403 36.8982C194.48 37.0885 194.594 37.2639 194.745 37.4244C194.759 37.4395 194.774 37.4544 194.788 37.4692C194.997 37.678 195.211 37.8252 195.431 37.9108C195.619 37.983 195.822 38.0146 196.039 38.0059C196.071 38.0046 196.104 38.0023 196.137 37.9992C196.16 37.997 196.184 37.9944 196.207 37.9913C196.273 37.9828 196.34 37.971 196.408 37.9557C196.501 37.9351 196.596 37.9083 196.694 37.8754C196.701 37.8732 196.708 37.8709 196.714 37.8686C196.797 37.8402 196.882 37.8075 196.968 37.7703C196.993 37.7592 197.019 37.7476 197.044 37.7357C197.049 37.7338 197.053 37.7319 197.057 37.73C197.062 37.7277 197.067 37.7253 197.072 37.7229C197.209 37.6581 197.356 37.5828 197.512 37.4969C197.593 37.4521 197.676 37.4044 197.763 37.3539C197.775 37.3466 197.787 37.3392 197.8 37.3318C197.864 37.2939 197.929 37.2544 197.996 37.2133C197.997 37.2126 197.998 37.2119 198 37.2112C198.001 37.2102 198.003 37.2092 198.004 37.2083C198.008 37.2058 198.012 37.2033 198.016 37.2008C198.017 37.2004 198.018 37.2 198.018 37.1997C198.024 37.1964 198.029 37.1931 198.034 37.1899C198.036 37.1885 198.039 37.1872 198.041 37.1858C198.054 37.178 198.067 37.1703 198.079 37.1627C198.109 37.145 198.138 37.1279 198.166 37.1114C198.168 37.1107 198.169 37.11 198.17 37.1092C198.173 37.1077 198.176 37.1061 198.178 37.1046C198.2 37.0922 198.221 37.0802 198.242 37.0686C198.338 37.0149 198.429 36.9688 198.513 36.9301C198.516 36.9288 198.519 36.9276 198.521 36.9263C198.526 36.9241 198.531 36.9219 198.536 36.9198C198.652 36.8677 198.756 36.8302 198.848 36.8073C198.876 36.8005 198.902 36.795 198.928 36.7907C199.026 36.7744 199.118 36.7764 199.203 36.7968C199.22 36.801 199.237 36.8059 199.254 36.8116C199.261 36.814 199.268 36.8166 199.275 36.8193C199.278 36.8203 199.28 36.8213 199.283 36.8224C199.348 36.8484 199.408 36.8864 199.465 36.9362C199.476 36.9461 199.487 36.9565 199.498 36.9674C199.534 37.0037 199.565 37.0423 199.589 37.083C199.591 37.0859 199.593 37.0888 199.594 37.0918C199.614 37.1261 199.63 37.162 199.642 37.1995C199.665 37.2766 199.672 37.3601 199.661 37.4502C199.659 37.4644 199.657 37.4788 199.654 37.4933C199.623 37.6772 199.523 37.8622 199.353 38.0482C199.349 38.053 199.345 38.0577 199.34 38.0625C199.324 38.0802 199.307 38.0979 199.289 38.1156C199.27 38.1346 199.251 38.1532 199.232 38.1712C199.216 38.1869 199.199 38.2022 199.183 38.2172C199.178 38.2219 199.173 38.2265 199.168 38.2311C199.102 38.2903 199.038 38.3433 198.974 38.3902C198.934 38.4197 198.895 38.4468 198.856 38.4714C198.838 38.4822 198.821 38.4925 198.804 38.5023C198.804 38.5027 198.803 38.503 198.803 38.5033C198.796 38.5073 198.789 38.5112 198.782 38.515C198.661 38.5826 198.543 38.6261 198.43 38.6455C198.392 38.6517 198.355 38.6548 198.318 38.655C198.185 38.6556 198.053 38.6179 197.923 38.542C197.893 38.5245 197.863 38.5049 197.833 38.4832C197.83 38.4806 197.826 38.4779 197.822 38.4752C197.769 38.4355 197.716 38.3892 197.663 38.3364L196.499 39.5007ZM173.462 62.0314L174.639 60.855L172.467 59.8634L173.462 62.0314Z" fill="black"/>
<path d="M197.605 64.4161L195.016 60.6383L196.132 59.5222L199.729 65.2793L198.573 66.4355L194.907 64.1993L197.155 67.8527L195.999 69.009L190.238 65.4158L191.358 64.2957L195.152 66.9012L192.675 62.9789L193.695 61.9591L197.605 64.4161Z" fill="#FF0F57"/>
<path d="M202.495 58.6189L200.564 60.5499L201.58 61.5657L203.852 59.2933L204.783 60.2247L201.347 63.6614L196.67 58.9842L200.11 55.5436L201.05 56.483L198.773 58.7594L199.629 59.6145L201.56 57.6834L202.495 58.6189Z" fill="#FF0F57"/>
<path d="M207.325 55.9009L205.514 57.7115L206.076 58.932L204.912 60.0963L202.086 53.5683L203.178 52.4763L209.722 55.2866L208.549 56.4589L207.325 55.9009ZM204.976 56.5473L206.152 55.3709L203.98 54.3793L204.976 56.5473Z" fill="#FF0F57"/>
<path d="M210.392 51.3883L209.665 52.115L211.279 53.7289L210.115 54.8932L205.438 50.216L207.389 48.2649C207.983 47.6707 208.569 47.3308 209.147 47.2451C209.723 47.1568 210.234 47.3361 210.681 47.7831C211.013 48.115 211.218 48.4589 211.295 48.8149C211.373 49.1655 211.325 49.5643 211.151 50.0113L214.086 50.8263L214.134 50.8744L212.881 52.127L210.392 51.3883ZM208.73 51.1796L209.517 50.3927C210.001 49.9082 210.044 49.4666 209.645 49.0678C209.252 48.6744 208.802 48.7306 208.296 49.2364L207.542 49.9912L208.73 51.1796Z" fill="#FF0F57"/>
<path d="M216.711 46.5144L214.901 48.3251L215.463 49.5456L214.298 50.7098L211.472 44.1819L212.564 43.0899L219.108 45.9002L217.936 47.0725L216.711 46.5144ZM214.363 47.1608L215.539 45.9845L213.367 44.9929L214.363 47.1608Z" fill="#FF0F57"/>
<path d="M219.501 45.5067L214.824 40.8296L216.631 39.0229C217.255 38.3993 217.845 38.0313 218.401 37.9189C218.955 37.8038 219.443 37.9564 219.863 38.3766C220.098 38.6121 220.244 38.8811 220.3 39.1835C220.357 39.4806 220.312 39.7844 220.168 40.0949C220.497 39.8995 220.825 39.8259 221.152 39.8741C221.478 39.9222 221.764 40.0695 222.011 40.3157C222.474 40.7787 222.654 41.2779 222.553 41.8132C222.448 42.3458 222.092 42.9159 221.485 43.5235L219.501 45.5067ZM218.719 42.3953L219.734 43.4111L220.553 42.592C220.778 42.3672 220.908 42.1491 220.943 41.9376C220.975 41.7235 220.917 41.5429 220.77 41.3957C220.43 41.0557 220.05 41.0852 219.63 41.484L218.719 42.3953ZM217.936 41.6125L218.65 40.8978C219.119 40.4294 219.19 40.032 218.863 39.7055C218.676 39.5181 218.486 39.4432 218.293 39.4806C218.1 39.5127 217.888 39.6452 217.655 39.8781L216.928 40.6048L217.936 41.6125Z" fill="#FF0F57"/>
<path d="M224.287 38.8583L226.419 36.7265L227.35 37.6579L224.054 40.954L219.377 36.2769L220.541 35.1126L224.287 38.8583Z" fill="#FF0F57"/>
<path d="M229.032 32.0815L227.101 34.0126L228.117 35.0283L230.389 32.756L231.321 33.6874L227.884 37.124L223.207 32.4468L226.648 29.0062L227.587 29.9456L225.311 32.222L226.166 33.0771L228.097 31.146L229.032 32.0815Z" fill="#FF0F57"/>
<path d="M233.196 29.2993C233.04 29.144 232.85 29.0851 232.626 29.1226C232.401 29.1601 232.093 29.2993 231.702 29.5401C231.311 29.781 230.966 29.9684 230.666 30.1022C230.367 30.2307 230.09 30.307 229.835 30.3311C229.581 30.3551 229.346 30.3257 229.129 30.2427C228.909 30.1571 228.695 30.0099 228.486 29.8011C228.085 29.3996 227.922 28.9018 227.997 28.3076C228.072 27.7134 228.373 27.1527 228.9 26.6255C229.475 26.05 230.071 25.7168 230.686 25.6258C231.302 25.5294 231.836 25.7074 232.288 26.1597L231.128 27.32C230.957 27.1487 230.744 27.0751 230.49 27.0992C230.238 27.1206 229.996 27.2477 229.763 27.4806C229.557 27.6867 229.435 27.8995 229.398 28.1189C229.36 28.3384 229.41 28.5164 229.546 28.6529C229.683 28.7894 229.861 28.8336 230.08 28.7854C230.297 28.7345 230.6 28.5927 230.988 28.3598C231.748 27.8727 232.382 27.6158 232.891 27.589C233.402 27.5595 233.862 27.7496 234.272 28.1591C234.689 28.5766 234.855 29.0718 234.769 29.6445C234.681 30.2146 234.352 30.7847 233.782 31.3548C233.394 31.7429 232.98 32.0306 232.541 32.218C232.102 32.4053 231.681 32.4682 231.277 32.4067C230.875 32.3424 230.515 32.1511 230.197 31.8326L231.361 30.6683C231.61 30.9172 231.865 31.0202 232.128 30.9774C232.393 30.9319 232.679 30.7553 232.987 30.4475C233.196 30.2387 233.317 30.0313 233.352 29.8252C233.39 29.6164 233.338 29.4411 233.196 29.2993Z" fill="#FF0F57"/>
<path fill-rule="evenodd" clip-rule="evenodd" d="M190.239 65.4158L191.359 64.2957L195.153 66.9012L192.676 62.9788L193.696 61.9591L197.606 64.4161L195.017 60.6382L196.133 59.5222L199.73 65.2793L198.574 66.4355L194.908 64.1993L197.157 67.8527L196 69.009L190.239 65.4158ZM200.105 69.3841C199.952 69.68 199.751 69.9563 199.506 70.2019L198.35 71.3582C197.256 72.4512 195.554 72.646 194.242 71.8279L188.481 68.2347C187.622 67.6986 187.054 66.7997 186.938 65.7933C186.823 64.7868 187.174 63.7829 187.89 63.0666L189.01 61.9465C189.238 61.7188 189.492 61.5303 189.762 61.3818C189.911 61.1108 190.1 60.857 190.327 60.6296L191.347 59.6099C191.575 59.3818 191.829 59.1928 192.101 59.044C192.25 58.7721 192.439 58.5174 192.668 58.2891L193.784 57.173C193.874 57.0828 193.968 56.9985 194.067 56.9202C194.146 56.8215 194.23 56.7262 194.322 56.635L197.762 53.1944C198.115 52.8414 198.528 52.5844 198.968 52.4235C199.131 51.9798 199.389 51.5674 199.737 51.2191L200.829 50.1271C201.233 49.7233 201.723 49.4399 202.249 49.2868C202.4 48.7669 202.68 48.2767 203.09 47.8668L205.041 45.9157C205.826 45.1307 206.861 44.3778 208.153 44.0589C208.184 43.2379 208.518 42.4384 209.124 41.8327L210.216 40.7407C210.62 40.3368 211.11 40.0535 211.635 39.9004C211.786 39.3805 212.066 38.8902 212.476 38.4804L214.283 36.6737C214.814 36.1424 215.464 35.6042 216.233 35.2034C216.392 34.7373 216.657 34.2994 217.029 33.9277L218.193 32.7634C218.688 32.2684 219.3 31.9623 219.941 31.845C220.058 31.2049 220.364 30.5926 220.859 30.0976L224.3 26.657C224.597 26.3592 224.938 26.1298 225.301 25.9687C225.632 25.3249 226.068 24.7604 226.552 24.2762C227.474 23.3542 228.684 22.5673 230.188 22.3413C231.88 22.081 233.463 22.6347 234.639 23.8105C234.949 24.1203 235.184 24.4761 235.346 24.8559C235.82 25.1104 236.248 25.4358 236.622 25.8099C237.767 26.955 238.301 28.4974 238.056 30.1358L238.054 30.1532C237.822 31.6489 237.008 32.8281 236.132 33.704C235.618 34.2184 235.03 34.6724 234.363 35.0264C234.202 35.393 233.971 35.7363 233.671 36.0365L230.235 39.4732C230.144 39.5634 230.05 39.6474 229.953 39.7251C229.875 39.8227 229.791 39.9168 229.701 40.0071L226.404 43.3032C226.058 43.65 225.653 43.9041 225.222 44.0655C224.832 44.7799 224.326 45.382 223.835 45.8726L221.852 47.8559C221.785 47.9224 221.717 47.9855 221.646 48.0451C221.587 48.1155 221.524 48.1836 221.458 48.2494L220.286 49.4217C219.839 49.8689 219.286 50.168 218.698 50.3064C218.559 50.8948 218.26 51.4474 217.813 51.8947L216.649 53.059C216.621 53.0864 216.594 53.1132 216.565 53.1395C216.539 53.1679 216.512 53.1959 216.484 53.2236L215.231 54.4762C214.954 54.7535 214.635 54.9748 214.291 55.1359C214.132 55.4769 213.911 55.7965 213.63 56.0781L212.465 57.2424C212.399 57.3088 212.33 57.3719 212.26 57.4316C212.2 57.5019 212.138 57.57 212.072 57.6358L210.9 58.8081C210.452 59.2554 209.9 59.5545 209.311 59.6929C209.173 60.2813 208.874 60.8338 208.427 61.2812L207.262 62.4454C207.241 62.4668 207.219 62.4878 207.197 62.5085C207.177 62.5306 207.155 62.5523 207.134 62.5739L203.697 66.0105C203.413 66.295 203.089 66.5171 202.744 66.6769C202.584 67.0232 202.362 67.3462 202.079 67.6285L200.923 68.7847C200.677 69.0303 200.401 69.2305 200.105 69.3841ZM210.116 54.8932L211.28 53.7289L209.666 52.115L210.393 51.3883L212.882 52.127L214.135 50.8744L214.087 50.8262L211.152 50.0113C211.229 49.8131 211.281 49.6243 211.309 49.4451C211.334 49.2848 211.339 49.132 211.324 48.9869C211.318 48.9283 211.309 48.871 211.296 48.8149C211.279 48.7362 211.256 48.6581 211.226 48.5806C211.166 48.4235 211.081 48.2687 210.97 48.1164C210.92 48.0474 210.864 47.9789 210.803 47.9109C210.765 47.8681 210.725 47.8255 210.682 47.7831C210.243 47.3435 209.741 47.1628 209.177 47.2409C209.168 47.2422 209.158 47.2436 209.149 47.2451C208.707 47.3106 208.26 47.5246 207.809 47.8873C207.67 47.999 207.53 48.1249 207.39 48.2648L205.439 50.216L210.116 54.8932ZM196.671 58.9842L201.348 63.6613L204.785 60.2247L203.853 59.2933L201.581 61.5656L200.565 60.5499L202.496 58.6188L201.561 57.6834L199.63 59.6145L198.775 58.7594L201.051 56.483L200.111 55.5436L196.671 58.9842ZM204.913 60.0963L206.077 58.932L205.515 57.7115L207.326 55.9009L208.55 56.4589L209.723 55.2866L203.179 52.4763L202.087 53.5683L204.913 60.0963ZM206.154 55.3709L203.982 54.3793L204.977 56.5472L206.154 55.3709ZM214.299 50.7098L215.464 49.5455L214.902 48.3251L216.712 46.5144L217.937 47.0725L219.109 45.9002L212.565 43.0899L211.473 44.1819L214.299 50.7098ZM214.364 47.1608L215.54 45.9845L213.368 44.9928L214.364 47.1608ZM219.503 45.5067L221.486 43.5234C221.5 43.5096 221.514 43.4957 221.527 43.4818C221.544 43.4646 221.561 43.4474 221.577 43.4303C221.62 43.386 221.661 43.342 221.701 43.2982C221.748 43.2463 221.794 43.1946 221.837 43.1432C222.118 42.8118 222.32 42.4922 222.443 42.1843C222.446 42.1774 222.448 42.1705 222.451 42.1637C222.497 42.0451 222.531 41.9283 222.554 41.8132C222.561 41.7763 222.566 41.7397 222.571 41.7032C222.591 41.5317 222.582 41.364 222.543 41.2001C222.509 41.0554 222.452 40.9136 222.372 40.7748C222.363 40.7592 222.353 40.7437 222.344 40.7281C222.257 40.5876 222.146 40.4501 222.012 40.3157C221.985 40.2886 221.957 40.2626 221.929 40.2379C221.702 40.0382 221.443 39.9169 221.153 39.8741C220.979 39.8485 220.806 39.8572 220.632 39.9002C220.478 39.9383 220.324 40.0032 220.169 40.0949C220.249 39.923 220.298 39.7531 220.317 39.5854C220.332 39.4501 220.327 39.3161 220.302 39.1835C220.259 38.9536 220.164 38.743 220.018 38.5518C219.972 38.4914 219.92 38.433 219.864 38.3766C219.675 38.188 219.473 38.0533 219.258 37.9726C219.129 37.9244 218.996 37.8954 218.858 37.8855C218.78 37.88 218.7 37.8806 218.619 37.8873C218.548 37.8931 218.476 37.9037 218.403 37.9189C218.287 37.9422 218.17 37.9767 218.051 38.0221C218.039 38.0269 218.026 38.0318 218.013 38.0369C217.752 38.1421 217.483 38.3007 217.207 38.5129C217.154 38.5542 217.1 38.5974 217.046 38.6427C216.937 38.7335 216.828 38.8323 216.717 38.9393C216.713 38.9433 216.709 38.9472 216.705 38.9512C216.681 38.9747 216.656 38.9986 216.632 39.0229L214.825 40.8296L219.503 45.5067ZM219.735 43.411L220.554 42.592C220.577 42.5696 220.598 42.5472 220.619 42.5249C220.628 42.5156 220.636 42.5063 220.644 42.497C220.686 42.4494 220.724 42.4021 220.758 42.3551C220.771 42.3372 220.783 42.3193 220.794 42.3015C220.822 42.2584 220.847 42.2156 220.867 42.173C220.906 42.0936 220.931 42.0152 220.944 41.9376C220.964 41.8056 220.949 41.6863 220.901 41.5797C220.887 41.5485 220.87 41.5184 220.85 41.4894C220.848 41.4871 220.847 41.4848 220.845 41.4825C220.844 41.4809 220.843 41.4792 220.841 41.4776C220.821 41.4492 220.797 41.4219 220.771 41.3956C220.518 41.1425 220.243 41.0942 219.945 41.2508C219.923 41.2623 219.901 41.2751 219.879 41.2889C219.872 41.2929 219.866 41.297 219.859 41.3012C219.829 41.3206 219.799 41.3421 219.768 41.3656C219.723 41.4006 219.677 41.44 219.631 41.484L218.72 42.3953L219.735 43.411ZM219.033 40.339C219.108 40.1044 219.052 39.8932 218.864 39.7054C218.827 39.6686 218.79 39.6361 218.753 39.608C218.75 39.605 218.746 39.6022 218.742 39.5993C218.722 39.5846 218.702 39.5711 218.682 39.5589C218.648 39.5388 218.615 39.5221 218.582 39.5089C218.578 39.5076 218.575 39.5063 218.572 39.505C218.48 39.4706 218.387 39.4625 218.294 39.4806C218.263 39.4858 218.231 39.4937 218.199 39.5043C218.135 39.525 218.069 39.5562 218.001 39.5976C217.99 39.6038 217.98 39.6102 217.97 39.6168C217.964 39.6204 217.959 39.624 217.953 39.6278C217.937 39.6389 217.92 39.6507 217.903 39.6631C217.886 39.6758 217.868 39.6892 217.85 39.7032C217.787 39.7533 217.722 39.8116 217.656 39.8781L216.929 40.6047L217.937 41.6124L218.651 40.8978C218.655 40.8938 218.659 40.8897 218.663 40.8857C218.695 40.8537 218.725 40.8219 218.753 40.7905C218.783 40.7566 218.811 40.723 218.837 40.6899C218.843 40.682 218.849 40.6741 218.855 40.6662C218.884 40.6271 218.911 40.5886 218.934 40.5506C218.936 40.5465 218.939 40.5424 218.941 40.5384C218.943 40.5361 218.944 40.5339 218.945 40.5316C218.984 40.4658 219.013 40.4016 219.033 40.339ZM219.378 36.2769L224.055 40.954L227.351 37.6579L226.42 36.7265L224.288 38.8583L220.542 35.1126L219.378 36.2769ZM227.885 37.124L231.322 33.6873L230.391 32.7559L228.118 35.0283L227.102 34.0125L229.034 32.0815L228.098 31.146L226.167 33.0771L225.312 32.222L227.588 29.9456L226.649 29.0062L223.208 32.4468L227.885 37.124ZM228.111 27.8238C228.103 27.8475 228.095 27.8713 228.088 27.8951C228.045 28.0307 228.015 28.1683 227.998 28.3076C227.955 28.6464 227.99 28.9539 228.102 29.2301C228.121 29.277 228.142 29.323 228.166 29.3681C228.238 29.5059 228.33 29.6353 228.444 29.7562C228.458 29.7713 228.473 29.7863 228.488 29.8011C228.536 29.8493 228.584 29.8942 228.633 29.9358C228.767 30.0498 228.902 30.1393 229.04 30.2041C229.07 30.2181 229.1 30.231 229.13 30.2427C229.318 30.3148 229.521 30.3465 229.738 30.3377C229.77 30.3364 229.803 30.3342 229.837 30.331C229.86 30.3289 229.883 30.3262 229.906 30.3232C229.972 30.3147 230.039 30.3028 230.107 30.2876C230.2 30.267 230.295 30.2402 230.394 30.2072C230.4 30.205 230.407 30.2028 230.413 30.2005C230.496 30.1721 230.581 30.1393 230.668 30.1022C230.693 30.091 230.718 30.0795 230.744 30.0676C230.748 30.0657 230.752 30.0638 230.756 30.0619C230.761 30.0595 230.766 30.0572 230.771 30.0548C230.816 30.0334 230.863 30.0108 230.91 29.9871C231.058 29.9132 231.215 29.8281 231.382 29.7319C231.409 29.7168 231.435 29.7014 231.462 29.6857C231.474 29.6784 231.486 29.6711 231.499 29.6637C231.513 29.6554 231.527 29.647 231.541 29.6385C231.592 29.6083 231.643 29.5773 231.695 29.5452C231.696 29.5445 231.697 29.5437 231.699 29.543C231.7 29.5421 231.702 29.5411 231.703 29.5401C231.707 29.5376 231.711 29.5351 231.716 29.5326C231.716 29.5323 231.717 29.5319 231.717 29.5315C231.723 29.5282 231.728 29.525 231.733 29.5217C231.736 29.5204 231.738 29.519 231.74 29.5177C231.753 29.5099 231.766 29.5022 231.778 29.4946C231.808 29.4769 231.837 29.4598 231.865 29.4433C231.867 29.4425 231.868 29.4418 231.869 29.4411C231.872 29.4395 231.875 29.438 231.877 29.4365C231.899 29.4241 231.92 29.4121 231.941 29.4004C232.038 29.3468 232.128 29.3006 232.212 29.262C232.215 29.2607 232.218 29.2594 232.22 29.2582C232.225 29.256 232.23 29.2538 232.235 29.2517C232.351 29.1996 232.455 29.1621 232.547 29.1392C232.575 29.1324 232.601 29.1268 232.627 29.1226C232.725 29.1062 232.817 29.1083 232.902 29.1287C232.919 29.1329 232.936 29.1378 232.953 29.1435C232.96 29.1459 232.967 29.1485 232.974 29.1511C232.977 29.1522 232.979 29.1532 232.982 29.1543C233.047 29.1803 233.107 29.2182 233.164 29.2681C233.175 29.278 233.186 29.2884 233.197 29.2992C233.233 29.3356 233.264 29.3741 233.288 29.4148C233.29 29.4178 233.292 29.4207 233.293 29.4236C233.313 29.458 233.329 29.4939 233.341 29.5314C233.365 29.6084 233.371 29.692 233.36 29.7821C233.358 29.7963 233.356 29.8106 233.353 29.8252C233.322 30.0091 233.222 30.1941 233.052 30.3801C233.048 30.3848 233.044 30.3896 233.039 30.3943C233.023 30.412 233.006 30.4297 232.988 30.4475C232.969 30.4665 232.95 30.485 232.931 30.503C232.915 30.5188 232.898 30.5341 232.882 30.5491C232.877 30.5537 232.872 30.5584 232.867 30.5629C232.76 30.6594 232.656 30.7395 232.555 30.8032C232.537 30.814 232.52 30.8243 232.503 30.8342C232.503 30.8345 232.502 30.8348 232.502 30.8351C232.495 30.8391 232.488 30.843 232.481 30.8469C232.378 30.9045 232.277 30.9446 232.179 30.9673C232.175 30.9683 232.17 30.9694 232.165 30.9704C232.153 30.973 232.141 30.9753 232.129 30.9774C232.091 30.9835 232.054 30.9867 232.017 30.9868C231.884 30.9874 231.752 30.9498 231.622 30.8739C231.592 30.8563 231.562 30.8367 231.532 30.8151C231.529 30.8124 231.525 30.8097 231.521 30.807C231.468 30.7673 231.415 30.7211 231.362 30.6683L230.198 31.8325C230.222 31.8572 230.247 31.881 230.272 31.9041C230.345 31.9704 230.419 32.0305 230.495 32.0842C230.611 32.1666 230.733 32.2343 230.859 32.2873C230.993 32.3437 231.133 32.3835 231.278 32.4066C231.405 32.426 231.534 32.4331 231.664 32.4278C231.678 32.4273 231.691 32.4266 231.705 32.4258C231.844 32.4175 231.984 32.3954 232.127 32.3594C232.199 32.3413 232.271 32.3197 232.344 32.2946C232.346 32.294 232.347 32.2934 232.349 32.2928C232.351 32.2922 232.353 32.2916 232.354 32.2909C232.417 32.2692 232.479 32.2449 232.542 32.218C232.627 32.182 232.71 32.1422 232.793 32.0988C232.889 32.0481 232.984 31.9924 233.078 31.9316C233.083 31.9282 233.088 31.9249 233.093 31.9215C233.112 31.9094 233.13 31.897 233.149 31.8845C233.35 31.7476 233.545 31.5871 233.734 31.4029C233.751 31.387 233.767 31.371 233.783 31.3548C233.802 31.3359 233.82 31.3171 233.839 31.2982C234.24 30.8856 234.515 30.4729 234.663 30.0603C234.665 30.0559 234.667 30.0515 234.668 30.0472C234.716 29.9129 234.75 29.7787 234.771 29.6445C234.83 29.2465 234.768 28.886 234.585 28.5629C234.511 28.4331 234.418 28.3093 234.305 28.1915C234.294 28.1806 234.284 28.1698 234.273 28.1591C233.863 27.7496 233.403 27.5595 232.892 27.589C232.821 27.5927 232.747 27.601 232.671 27.6137C232.658 27.6158 232.646 27.6181 232.633 27.6204C232.553 27.6352 232.471 27.6547 232.386 27.6792C232.377 27.6818 232.368 27.6845 232.358 27.6873C232.166 27.7446 231.961 27.8263 231.742 27.9324C231.708 27.9487 231.674 27.9655 231.64 27.983C231.632 27.9869 231.625 27.9909 231.617 27.9949C231.499 28.0556 231.377 28.1231 231.252 28.1974C231.203 28.2262 231.154 28.2561 231.104 28.287C231.097 28.2914 231.09 28.2958 231.083 28.3002C231.052 28.3197 231.02 28.3395 230.989 28.3598C230.986 28.3617 230.982 28.3636 230.979 28.3655C230.969 28.3716 230.959 28.3776 230.949 28.3836C230.944 28.3866 230.939 28.3897 230.933 28.3927C230.877 28.426 230.823 28.4572 230.77 28.4864C230.768 28.4874 230.767 28.4883 230.765 28.4893C230.718 28.5152 230.673 28.5394 230.63 28.5622C230.625 28.5645 230.62 28.5668 230.616 28.5692C230.615 28.5696 230.614 28.57 230.614 28.5704C230.577 28.5894 230.541 28.6073 230.506 28.624C230.449 28.6515 230.395 28.676 230.343 28.6973C230.312 28.7104 230.281 28.7224 230.252 28.7332C230.244 28.7361 230.236 28.739 230.228 28.7418C230.183 28.7576 230.141 28.7705 230.101 28.7805C230.094 28.7822 230.088 28.7838 230.081 28.7854C230.081 28.7855 230.08 28.7856 230.08 28.7857C229.938 28.8165 229.814 28.8089 229.707 28.7629C229.704 28.7615 229.701 28.7601 229.698 28.7586C229.696 28.7579 229.695 28.7571 229.693 28.7563C229.691 28.7554 229.689 28.7545 229.687 28.7535C229.654 28.7376 229.623 28.718 229.594 28.6946C229.578 28.6818 229.562 28.6679 229.547 28.6529C229.498 28.6036 229.46 28.5488 229.434 28.4887C229.389 28.3872 229.376 28.2703 229.396 28.138C229.397 28.1317 229.398 28.1253 229.399 28.1189C229.401 28.1094 229.402 28.0998 229.404 28.0903C229.413 28.0452 229.426 28.0005 229.443 27.9559C229.476 27.8658 229.524 27.7768 229.586 27.689C229.587 27.6878 229.588 27.6867 229.589 27.6855C229.598 27.6732 229.607 27.6609 229.616 27.6486C229.658 27.5935 229.706 27.5388 229.76 27.4846C229.762 27.4833 229.763 27.4819 229.764 27.4806C229.767 27.4776 229.77 27.4746 229.773 27.4716C229.779 27.4663 229.784 27.461 229.79 27.4557C229.791 27.4545 229.792 27.4534 229.793 27.4522C229.933 27.3182 230.076 27.2221 230.222 27.1637C230.227 27.1619 230.231 27.1602 230.235 27.1585C230.244 27.1551 230.253 27.1518 230.262 27.1487C230.276 27.1438 230.29 27.1392 230.304 27.135C230.366 27.1164 230.428 27.1045 230.491 27.0992C230.648 27.0843 230.79 27.1068 230.915 27.1668C230.92 27.1691 230.925 27.1715 230.93 27.1739C230.951 27.1845 230.971 27.1961 230.991 27.2089C231.04 27.2397 231.086 27.2767 231.129 27.32L232.29 26.1597C232.23 26.0998 232.168 26.0447 232.105 25.9943C232.05 25.9499 231.993 25.9093 231.936 25.8724C231.586 25.6488 231.196 25.5631 230.764 25.6152C230.739 25.6182 230.713 25.6218 230.688 25.6258C230.582 25.6414 230.476 25.6643 230.371 25.6943C230.367 25.6956 230.363 25.6969 230.358 25.6982C230.157 25.7569 229.959 25.8419 229.763 25.9533C229.709 25.9836 229.656 26.0159 229.603 26.0501C229.581 26.0643 229.559 26.0789 229.537 26.0939C229.523 26.1029 229.51 26.1121 229.497 26.1213C229.485 26.1293 229.474 26.1374 229.462 26.1456C229.284 26.2728 229.108 26.4221 228.933 26.5937C228.924 26.6029 228.914 26.6121 228.905 26.6214C228.904 26.6228 228.902 26.6241 228.901 26.6254C228.687 26.8396 228.51 27.0592 228.371 27.2844C228.261 27.4608 228.175 27.6406 228.111 27.8238ZM209.518 50.3927C209.548 50.363 209.576 50.3336 209.602 50.3043C209.607 50.2991 209.611 50.2939 209.616 50.2887C209.723 50.1665 209.802 50.0471 209.852 49.9305C209.911 49.792 209.93 49.6575 209.908 49.5269C209.886 49.4014 209.828 49.2796 209.731 49.1614C209.73 49.1599 209.729 49.1584 209.728 49.1569C209.703 49.127 209.676 49.0973 209.646 49.0678C209.602 49.0239 209.558 48.9855 209.512 48.9528C209.476 48.9261 209.438 48.9031 209.4 48.8839C209.397 48.8823 209.394 48.8807 209.391 48.8792C209.204 48.7877 209.006 48.7864 208.797 48.8752C208.722 48.907 208.645 48.9504 208.567 49.0053C208.49 49.0602 208.411 49.1266 208.33 49.2046C208.319 49.215 208.308 49.2256 208.297 49.2364L207.543 49.9912L208.731 51.1795L209.518 50.3927Z" fill="black"/>
<path d="M185.216 90.2267L118.355 158.333L51.4951 90.2267" stroke="white" stroke-width="0.830565" stroke-dasharray="1.66 1.66"/>
<path d="M185.216 90.2267L118.355 158.333L51.4951 90.2267" stroke="white" stroke-width="0.830565" stroke-dasharray="1.66 1.66"/>
<path d="M185.216 90.2267L118.355 158.333L51.4951 90.2267" stroke="white" stroke-width="0.830565" stroke-dasharray="1.66 1.66"/>
</svg>
