<svg width="301" height="153" viewBox="0 0 301 153" fill="none" xmlns="http://www.w3.org/2000/svg">
<path d="M65 40.5H223.925C225.858 40.5 227.425 42.067 227.425 44V57.25C227.425 58.0784 228.097 58.75 228.925 58.75H236C237.933 58.75 239.5 60.317 239.5 62.25V90.75C239.5 92.683 237.933 94.25 236 94.25H228.925C228.097 94.25 227.425 94.9216 227.425 95.75V109C227.425 110.933 225.858 112.5 223.925 112.5H65C63.067 112.5 61.5 110.933 61.5 109V44C61.5 42.067 63.067 40.5 65 40.5Z" stroke="white"/>
<mask id="mask0" mask-type="alpha" maskUnits="userSpaceOnUse" x="72" y="48" width="145" height="57">
<path d="M74 49H215C215.552 49 216 49.4477 216 50V103C216 103.552 215.552 104 215 104H74C73.4477 104 73 103.552 73 103V76.5V50C73 49.4477 73.4477 49 74 49Z" fill="url(#paint0_linear)" stroke="url(#paint1_linear)" stroke-width="2"/>
</mask>
<g mask="url(#mask0)">
<path d="M-184 135L-60.5276 11M-175.007 135L-51.5347 11M-166.014 135L-42.5417 11M-157.021 135L-33.5488 11M-148.028 135L-24.5558 11M-139.035 135L-15.5629 11M-130.042 135L-6.56991 11M-121.049 135L2.42304 11M-112.056 135L11.416 11M-103.063 135L20.4089 11M-94.0705 135L29.4019 11M-85.0776 135L38.3948 11M-76.0846 135L47.3878 11M-67.0917 135L56.3807 11M-58.0987 135L65.3737 11M-49.1058 135L74.3666 11M-40.1128 135L83.3596 11M-31.1199 135L92.3525 11M-22.1269 135L101.345 11M-13.134 135L110.338 11M-4.14101 135L119.331 11M4.85194 135L128.324 11M13.8449 135L137.317 11M22.8378 135L146.31 11M31.8308 135L155.303 11M40.8237 135L164.296 11M49.8167 135L173.289 11M58.8096 135L182.282 11M67.8026 135L191.275 11M76.7955 135L200.268 11M85.7885 135L209.261 11M94.7814 135L218.254 11M103.774 135L227.247 11M112.767 135L236.24 11M121.76 135L245.233 11M130.753 135L254.226 11M139.746 135L263.219 11M148.739 135L272.212 11M157.732 135L281.204 11M166.725 135L290.197 11M175.718 135L299.19 11M184.711 135L308.183 11M193.704 135L317.176 11M202.697 135L326.169 11M211.69 135L335.162 11M220.683 135L344.155 11M229.676 135L353.148 11M238.669 135L362.141 11M247.662 135L371.134 11M256.655 135L380.127 11M265.647 135L389.12 11M274.64 135L398.113 11M283.633 135L407.106 11M292.626 135L416.099 11M301.619 135L425.092 11M310.612 135L434.085 11M319.605 135L443.078 11M328.598 135L452.071 11M337.591 135L461.063 11M346.584 135L470.056 11M355.577 135L479.049 11M364.57 135L488.042 11M373.563 135L497.035 11M382.556 135L506.028 11M391.549 135L515.021 11M400.542 135L524.014 11M409.535 135L533.007 11M418.528 135L542 11" stroke="url(#paint2_linear)" stroke-width="2"/>
<path d="M74 49H215C215.552 49 216 49.4477 216 50V103C216 103.552 215.552 104 215 104H74C73.4477 104 73 103.552 73 103V50C73 49.4477 73.4477 49 74 49Z" stroke="url(#paint3_linear)" stroke-width="2"/>
</g>
<defs>
<linearGradient id="paint0_linear" x1="81.5" y1="129" x2="217" y2="48" gradientUnits="userSpaceOnUse">
<stop stop-color="#FF0F57"/>
<stop offset="0.505208" stop-color="#BB6BD9"/>
<stop offset="1" stop-color="#2BB2FF"/>
</linearGradient>
<linearGradient id="paint1_linear" x1="144.5" y1="48" x2="144.5" y2="105" gradientUnits="userSpaceOnUse">
<stop stop-color="#FF0F57"/>
<stop offset="0.510417" stop-color="#BB6BD9"/>
<stop offset="1" stop-color="#2BB2FF"/>
</linearGradient>
<linearGradient id="paint2_linear" x1="70" y1="85.0474" x2="224" y2="85.0474" gradientUnits="userSpaceOnUse">
<stop stop-color="#FF0F57"/>
<stop offset="0.510417" stop-color="#BB6BD9"/>
<stop offset="1" stop-color="#2BB2FF"/>
</linearGradient>
<linearGradient id="paint3_linear" x1="72" y1="77" x2="217" y2="77" gradientUnits="userSpaceOnUse">
<stop stop-color="#FF0F57"/>
<stop offset="0.510417" stop-color="#BB6BD9"/>
<stop offset="1" stop-color="#2BB2FF"/>
</linearGradient>
</defs>
</svg>
