<svg width="250" height="250" viewBox="0 0 250 250" fill="none" xmlns="http://www.w3.org/2000/svg">
<path d="M52.0717 94.424H186.84C188.48 94.424 189.808 95.7528 189.808 97.392V108.628C189.808 109.331 190.378 109.9 191.08 109.9H197.08C198.719 109.9 200.048 111.229 200.048 112.868V137.036C200.048 138.675 198.719 140.004 197.08 140.004H191.08C190.378 140.004 189.808 140.573 189.808 141.276V152.512C189.808 154.151 188.48 155.48 186.84 155.48H52.0717C50.4325 155.48 49.1037 154.151 49.1037 152.512V97.392C49.1037 95.7528 50.4325 94.424 52.0717 94.424Z" stroke="white" stroke-width="0.848"/>
<mask id="mask0" mask-type="alpha" maskUnits="userSpaceOnUse" x="58" y="100" width="123" height="50">
<path d="M59.7038 101.632H179.272C179.74 101.632 180.12 102.012 180.12 102.48V147.424C180.12 147.892 179.74 148.272 179.272 148.272H59.7038C59.2355 148.272 58.8558 147.892 58.8558 147.424V124.952V102.48C58.8558 102.012 59.2355 101.632 59.7038 101.632Z" fill="url(#paint0_linear)" stroke="url(#paint1_linear)" stroke-width="1.696"/>
</mask>
<g mask="url(#mask0)">
<path d="M-159.08 174.56L-54.3755 69.408M-151.454 174.56L-46.7495 69.408M-143.828 174.56L-39.1234 69.408M-136.202 174.56L-31.4974 69.408M-128.576 174.56L-23.8714 69.408M-120.95 174.56L-16.2454 69.408M-113.324 174.56L-8.61937 69.408M-105.698 174.56L-0.993345 69.408M-98.0719 174.56L6.63268 69.408M-90.4459 174.56L14.2587 69.408M-82.8199 174.56L21.8847 69.408M-75.1938 174.56L29.5107 69.408M-67.5678 174.56L37.1368 69.408M-59.9418 174.56L44.7628 69.408M-52.3158 174.56L52.3888 69.408M-44.6898 174.56L60.0148 69.408M-37.0637 174.56L67.6408 69.408M-29.4377 174.56L75.2669 69.408M-21.8117 174.56L82.8929 69.408M-14.1857 174.56L90.5189 69.408M-6.55966 174.56L98.1449 69.408M1.06636 174.56L105.771 69.408M8.69238 174.56L113.397 69.408M16.3184 174.56L121.023 69.408M23.9444 174.56L128.649 69.408M31.5704 174.56L136.275 69.408M39.1965 174.56L143.901 69.408M46.8225 174.56L151.527 69.408M54.4485 174.56L159.153 69.408M62.0745 174.56L166.779 69.408M69.7005 174.56L174.405 69.408M77.3266 174.56L182.031 69.408M84.9526 174.56L189.657 69.408M92.5786 174.56L197.283 69.408M100.205 174.56L204.909 69.408M107.831 174.56L212.535 69.408M115.457 174.56L220.161 69.408M123.083 174.56L227.787 69.408M130.709 174.56L235.413 69.408M138.335 174.56L243.039 69.408M145.961 174.56L250.665 69.408M153.587 174.56L258.291 69.408M161.213 174.56L265.917 69.408M168.839 174.56L273.543 69.408M176.465 174.56L281.169 69.408M184.091 174.56L288.795 69.408M191.717 174.56L296.421 69.408M199.343 174.56L304.047 69.408M206.969 174.56L311.674 69.408M214.595 174.56L319.3 69.408M222.221 174.56L326.926 69.408M229.847 174.56L334.552 69.408M237.473 174.56L342.178 69.408M245.099 174.56L349.804 69.408M252.725 174.56L357.43 69.408M260.351 174.56L365.056 69.408M267.977 174.56L372.682 69.408M275.603 174.56L380.308 69.408M283.229 174.56L387.934 69.408M290.855 174.56L395.56 69.408M298.481 174.56L403.186 69.408M306.107 174.56L410.812 69.408M313.733 174.56L418.438 69.408M321.359 174.56L426.064 69.408M328.985 174.56L433.69 69.408M336.611 174.56L441.316 69.408M344.237 174.56L448.942 69.408M351.863 174.56L456.568 69.408" stroke="url(#paint2_linear)" stroke-width="1.696"/>
<path d="M59.7038 101.632H179.272C179.74 101.632 180.12 102.012 180.12 102.48V147.424C180.12 147.892 179.74 148.272 179.272 148.272H59.7038C59.2355 148.272 58.8558 147.892 58.8558 147.424V102.48C58.8558 102.012 59.2355 101.632 59.7038 101.632Z" stroke="url(#paint3_linear)" stroke-width="1.696"/>
</g>
<defs>
<linearGradient id="paint0_linear" x1="66.0638" y1="169.472" x2="180.968" y2="100.784" gradientUnits="userSpaceOnUse">
<stop stop-color="#FF0F57"/>
<stop offset="0.505208" stop-color="#BB6BD9"/>
<stop offset="1" stop-color="#2BB2FF"/>
</linearGradient>
<linearGradient id="paint1_linear" x1="119.488" y1="100.784" x2="119.488" y2="149.12" gradientUnits="userSpaceOnUse">
<stop stop-color="#FF0F57"/>
<stop offset="0.510417" stop-color="#BB6BD9"/>
<stop offset="1" stop-color="#2BB2FF"/>
</linearGradient>
<linearGradient id="paint2_linear" x1="56.3119" y1="132.2" x2="186.904" y2="132.2" gradientUnits="userSpaceOnUse">
<stop stop-color="#FF0F57"/>
<stop offset="0.510417" stop-color="#BB6BD9"/>
<stop offset="1" stop-color="#2BB2FF"/>
</linearGradient>
<linearGradient id="paint3_linear" x1="58.0078" y1="125.376" x2="180.968" y2="125.376" gradientUnits="userSpaceOnUse">
<stop stop-color="#FF0F57"/>
<stop offset="0.510417" stop-color="#BB6BD9"/>
<stop offset="1" stop-color="#2BB2FF"/>
</linearGradient>
</defs>
</svg>
