<svg width="250" height="250" viewBox="0 0 250 250" fill="none" xmlns="http://www.w3.org/2000/svg">
<path d="M49.1037 107.392C49.1037 105.753 50.4325 104.424 52.0717 104.424H186.84C188.48 104.424 189.808 105.753 189.808 107.392V118.628C189.808 119.331 190.378 119.9 191.08 119.9H197.08C198.719 119.9 200.048 121.229 200.048 122.868V147.036C200.048 148.675 198.719 150.004 197.08 150.004H191.08C190.378 150.004 189.808 150.574 189.808 151.276V162.512C189.808 164.151 188.48 165.48 186.84 165.48H52.0717C50.4325 165.48 49.1037 164.151 49.1037 162.512V107.392Z" stroke="white" stroke-width="0.848"/>
<mask id="mask0" mask-type="alpha" maskUnits="userSpaceOnUse" x="58" y="110" width="123" height="50">
<path d="M59.7038 111.632H179.272C179.74 111.632 180.12 112.012 180.12 112.48V157.424C180.12 157.892 179.74 158.272 179.272 158.272H59.7038C59.2355 158.272 58.8558 157.892 58.8558 157.424V134.952V112.48C58.8558 112.012 59.2355 111.632 59.7038 111.632Z" fill="url(#paint0_linear)" stroke="url(#paint1_linear)" stroke-width="1.696"/>
</mask>
<g mask="url(#mask0)">
<path d="M-159.08 184.56L-54.3755 79.408M-151.454 184.56L-46.7495 79.408M-143.828 184.56L-39.1234 79.408M-136.202 184.56L-31.4974 79.408M-128.576 184.56L-23.8714 79.408M-120.95 184.56L-16.2454 79.408M-113.324 184.56L-8.61937 79.408M-105.698 184.56L-0.993345 79.408M-98.0719 184.56L6.63268 79.408M-90.4459 184.56L14.2587 79.408M-82.8199 184.56L21.8847 79.408M-75.1938 184.56L29.5107 79.408M-67.5678 184.56L37.1368 79.408M-59.9418 184.56L44.7628 79.408M-52.3158 184.56L52.3888 79.408M-44.6898 184.56L60.0148 79.408M-37.0637 184.56L67.6408 79.408M-29.4377 184.56L75.2669 79.408M-21.8117 184.56L82.8929 79.408M-14.1857 184.56L90.5189 79.408M-6.55966 184.56L98.1449 79.408M1.06636 184.56L105.771 79.408M8.69238 184.56L113.397 79.408M16.3184 184.56L121.023 79.408M23.9444 184.56L128.649 79.408M31.5704 184.56L136.275 79.408M39.1965 184.56L143.901 79.408M46.8225 184.56L151.527 79.408M54.4485 184.56L159.153 79.408M62.0745 184.56L166.779 79.408M69.7005 184.56L174.405 79.408M77.3266 184.56L182.031 79.408M84.9526 184.56L189.657 79.408M92.5786 184.56L197.283 79.408M100.205 184.56L204.909 79.408M107.831 184.56L212.535 79.408M115.457 184.56L220.161 79.408M123.083 184.56L227.787 79.408M130.709 184.56L235.413 79.408M138.335 184.56L243.039 79.408M145.961 184.56L250.665 79.408M153.587 184.56L258.291 79.408M161.213 184.56L265.917 79.408M168.839 184.56L273.543 79.408M176.465 184.56L281.169 79.408M184.091 184.56L288.795 79.408M191.717 184.56L296.421 79.408M199.343 184.56L304.047 79.408M206.969 184.56L311.674 79.408M214.595 184.56L319.3 79.408M222.221 184.56L326.926 79.408M229.847 184.56L334.552 79.408M237.473 184.56L342.178 79.408M245.099 184.56L349.804 79.408M252.725 184.56L357.43 79.408M260.351 184.56L365.056 79.408M267.977 184.56L372.682 79.408M275.603 184.56L380.308 79.408M283.229 184.56L387.934 79.408M290.855 184.56L395.56 79.408M298.481 184.56L403.186 79.408M306.107 184.56L410.812 79.408M313.733 184.56L418.438 79.408M321.359 184.56L426.064 79.408M328.985 184.56L433.69 79.408M336.611 184.56L441.316 79.408M344.237 184.56L448.942 79.408M351.863 184.56L456.568 79.408" stroke="url(#paint2_linear)" stroke-width="1.696"/>
<path d="M59.7038 111.632H179.272C179.74 111.632 180.12 112.012 180.12 112.48V157.424C180.12 157.892 179.74 158.272 179.272 158.272H59.7038C59.2355 158.272 58.8558 157.892 58.8558 157.424V112.48C58.8558 112.012 59.2355 111.632 59.7038 111.632Z" stroke="url(#paint3_linear)" stroke-width="1.696"/>
</g>
<defs>
<linearGradient id="paint0_linear" x1="66.0638" y1="179.472" x2="180.968" y2="110.784" gradientUnits="userSpaceOnUse">
<stop stop-color="#FF0F57"/>
<stop offset="0.505208" stop-color="#BB6BD9"/>
<stop offset="1" stop-color="#2BB2FF"/>
</linearGradient>
<linearGradient id="paint1_linear" x1="119.488" y1="110.784" x2="119.488" y2="159.12" gradientUnits="userSpaceOnUse">
<stop stop-color="#FF0F57"/>
<stop offset="0.510417" stop-color="#BB6BD9"/>
<stop offset="1" stop-color="#2BB2FF"/>
</linearGradient>
<linearGradient id="paint2_linear" x1="56.3119" y1="142.2" x2="186.904" y2="142.2" gradientUnits="userSpaceOnUse">
<stop stop-color="#FF0F57"/>
<stop offset="0.510417" stop-color="#BB6BD9"/>
<stop offset="1" stop-color="#2BB2FF"/>
</linearGradient>
<linearGradient id="paint3_linear" x1="58.0078" y1="135.376" x2="180.968" y2="135.376" gradientUnits="userSpaceOnUse">
<stop stop-color="#FF0F57"/>
<stop offset="0.510417" stop-color="#BB6BD9"/>
<stop offset="1" stop-color="#2BB2FF"/>
</linearGradient>
</defs>
</svg>
