<svg width="250" height="250" viewBox="0 0 250 250" fill="none" xmlns="http://www.w3.org/2000/svg">
<path d="M125.349 86.5966L125.865 85.4821L125.349 85.2431L124.832 85.4821L125.349 86.5966ZM163.832 100.399H165.06V99.4683L164.164 99.2166L163.832 100.399ZM125.349 175.845L124.783 176.935L125.349 177.229L125.915 176.935L125.349 175.845ZM86.8654 100.399L86.5332 99.2166L85.6372 99.4683V100.399H86.8654ZM125.349 99.6973L125.858 98.5796L125.349 98.3476L124.839 98.5796L125.349 99.6973ZM151.55 108.941H152.778V108.006L151.877 107.757L151.55 108.941ZM125.349 159.469L124.79 160.563L125.349 160.848L125.907 160.563L125.349 159.469ZM99.1473 108.941L98.8201 107.757L97.9191 108.006V108.941H99.1473ZM152.851 75.8115L151.665 76.1293L151.983 77.3157L153.169 76.9978L152.851 75.8115ZM157.827 75.7498C158.482 75.5742 158.871 74.9008 158.695 74.2456C158.52 73.5904 157.846 73.2015 157.191 73.3771L157.827 75.7498ZM152.789 70.8359C152.614 70.1807 151.94 69.7919 151.285 69.9674C150.63 70.143 150.241 70.8164 150.417 71.4716L152.789 70.8359ZM160.734 64.6141C161.073 64.0267 160.872 63.2755 160.285 62.9364C159.697 62.5972 158.946 62.7985 158.607 63.3859L160.734 64.6141ZM97.6144 75.8115L97.2965 76.9978L98.4828 77.3157L98.8007 76.1293L97.6144 75.8115ZM93.2746 73.3771C92.6194 73.2015 91.9459 73.5904 91.7703 74.2456C91.5948 74.9008 91.9836 75.5742 92.6388 75.7498L93.2746 73.3771ZM100.049 71.4716C100.224 70.8164 99.8355 70.143 99.1803 69.9674C98.5251 69.7919 97.8516 70.1807 97.6761 70.8359L100.049 71.4716ZM91.8587 63.3859C91.5195 62.7985 90.7684 62.5972 90.1809 62.9364C89.5935 63.2755 89.3922 64.0267 89.7314 64.6141L91.8587 63.3859ZM66.3956 128.355L67.2641 129.223L68.1325 128.355L67.2641 127.487L66.3956 128.355ZM62.252 130.762C61.7723 131.241 61.7723 132.019 62.252 132.499C62.7316 132.978 63.5092 132.978 63.9889 132.499L62.252 130.762ZM63.9889 124.211C63.5092 123.732 62.7316 123.732 62.252 124.211C61.7723 124.691 61.7723 125.469 62.252 125.948L63.9889 124.211ZM53.2949 127.127C52.6166 127.127 52.0667 127.677 52.0667 128.355C52.0667 129.033 52.6166 129.583 53.2949 129.583V127.127ZM184.302 128.355L183.433 127.487L182.565 128.355L183.433 129.223L184.302 128.355ZM186.708 132.499C187.188 132.978 187.966 132.978 188.445 132.499C188.925 132.019 188.925 131.241 188.445 130.762L186.708 132.499ZM188.445 125.948C188.925 125.469 188.925 124.691 188.445 124.211C187.966 123.732 187.188 123.732 186.708 124.211L188.445 125.948ZM197.402 129.583C198.081 129.583 198.63 129.033 198.63 128.355C198.63 127.677 198.081 127.127 197.402 127.127V129.583ZM155.579 173.792L155.897 172.605L154.71 172.287L154.392 173.474L155.579 173.792ZM159.919 176.226C160.574 176.402 161.247 176.013 161.423 175.358C161.598 174.702 161.21 174.029 160.554 173.853L159.919 176.226ZM153.144 178.131C152.969 178.787 153.358 179.46 154.013 179.636C154.668 179.811 155.342 179.422 155.517 178.767L153.144 178.131ZM161.335 186.217C161.674 186.805 162.425 187.006 163.012 186.667C163.6 186.328 163.801 185.576 163.462 184.989L161.335 186.217ZM96.9324 173.792L98.1188 173.474L97.8009 172.287L96.6146 172.605L96.9324 173.792ZM91.9569 173.853C91.3017 174.029 90.9128 174.702 91.0884 175.358C91.264 176.013 91.9374 176.402 92.5926 176.226L91.9569 173.853ZM96.9941 178.767C97.1697 179.422 97.8431 179.811 98.4983 179.636C99.1535 179.46 99.5424 178.787 99.3668 178.131L96.9941 178.767ZM89.0494 184.989C88.7103 185.576 88.9116 186.328 89.499 186.667C90.0864 187.006 90.8376 186.805 91.1767 186.217L89.0494 184.989ZM125.349 86.5966C124.832 87.711 124.833 87.7111 124.833 87.7112C124.833 87.7113 124.833 87.7114 124.834 87.7116C124.834 87.7119 124.835 87.7123 124.836 87.7128C124.839 87.7139 124.842 87.7154 124.846 87.7174C124.855 87.7213 124.867 87.7271 124.884 87.7347C124.917 87.7498 124.965 87.7721 125.029 87.8012C125.157 87.8595 125.347 87.9454 125.596 88.0565C126.093 88.2788 126.825 88.6023 127.773 89.0096C129.668 89.824 132.422 90.9733 135.867 92.3167C142.757 95.0028 152.416 98.4675 163.5 101.581L164.164 99.2166C153.176 96.1294 143.594 92.6929 136.76 90.0281C133.343 88.696 130.615 87.5574 128.743 86.7528C127.807 86.3505 127.085 86.0318 126.598 85.8141C126.355 85.7053 126.17 85.6218 126.047 85.5657C125.986 85.5377 125.94 85.5165 125.909 85.5025C125.894 85.4955 125.882 85.4902 125.875 85.4868C125.871 85.4851 125.869 85.4839 125.867 85.4831C125.866 85.4827 125.865 85.4824 125.865 85.4823C125.865 85.4822 125.865 85.4822 125.865 85.4821C125.865 85.4821 125.865 85.4821 125.349 86.5966ZM162.604 100.399C162.604 127.821 153.099 146.416 143.634 158.15C138.896 164.024 134.161 168.188 130.619 170.878C128.848 172.223 127.376 173.199 126.353 173.835C125.842 174.153 125.443 174.387 125.175 174.539C125.041 174.615 124.94 174.67 124.873 174.706C124.84 174.724 124.816 174.737 124.801 174.745C124.793 174.749 124.788 174.752 124.785 174.754C124.783 174.755 124.782 174.755 124.782 174.755C124.782 174.755 124.782 174.755 124.782 174.755C124.782 174.755 124.783 174.755 125.349 175.845C125.915 176.935 125.915 176.935 125.916 176.934C125.917 176.934 125.918 176.933 125.919 176.933C125.921 176.932 125.923 176.93 125.926 176.929C125.933 176.925 125.941 176.921 125.952 176.915C125.974 176.904 126.005 176.887 126.045 176.865C126.124 176.822 126.239 176.759 126.387 176.675C126.682 176.508 127.11 176.257 127.651 175.921C128.733 175.248 130.268 174.229 132.104 172.834C135.777 170.045 140.663 165.746 145.546 159.692C155.323 147.57 165.06 128.442 165.06 100.399H162.604ZM125.349 86.5966C124.832 85.4821 124.832 85.4821 124.832 85.4821C124.832 85.4822 124.832 85.4822 124.832 85.4823C124.832 85.4824 124.831 85.4827 124.83 85.4831C124.829 85.4839 124.826 85.4851 124.822 85.4868C124.815 85.4902 124.804 85.4955 124.788 85.5025C124.758 85.5165 124.712 85.5377 124.65 85.5657C124.527 85.6218 124.342 85.7053 124.099 85.8141C123.612 86.0318 122.89 86.3505 121.954 86.7528C120.082 87.5574 117.354 88.696 113.938 90.0281C107.103 92.6929 97.5212 96.1294 86.5332 99.2166L87.1976 101.581C98.2809 98.4675 107.941 95.0028 114.83 92.3167C118.275 90.9733 121.029 89.824 122.924 89.0096C123.872 88.6023 124.605 88.2788 125.102 88.0565C125.35 87.9454 125.54 87.8595 125.668 87.8012C125.732 87.7721 125.781 87.7498 125.813 87.7347C125.83 87.7271 125.842 87.7213 125.851 87.7174C125.855 87.7154 125.859 87.7139 125.861 87.7128C125.862 87.7123 125.863 87.7119 125.864 87.7116C125.864 87.7114 125.864 87.7113 125.864 87.7112C125.865 87.7111 125.865 87.711 125.349 86.5966ZM85.6372 100.399C85.6372 128.442 95.3738 147.57 105.151 159.692C110.034 165.746 114.92 170.045 118.593 172.834C120.43 174.229 121.965 175.248 123.046 175.921C123.587 176.257 124.015 176.508 124.31 176.675C124.458 176.759 124.573 176.822 124.653 176.865C124.692 176.887 124.723 176.904 124.745 176.915C124.756 176.921 124.765 176.925 124.771 176.929C124.774 176.93 124.776 176.932 124.778 176.933C124.779 176.933 124.781 176.934 124.781 176.934C124.782 176.935 124.783 176.935 125.349 175.845C125.915 174.755 125.915 174.755 125.915 174.755C125.915 174.755 125.915 174.755 125.915 174.755C125.915 174.755 125.914 174.755 125.912 174.754C125.909 174.752 125.904 174.749 125.896 174.745C125.881 174.737 125.857 174.724 125.824 174.706C125.758 174.67 125.656 174.615 125.522 174.539C125.254 174.387 124.855 174.153 124.344 173.835C123.321 173.199 121.849 172.223 120.078 170.878C116.536 168.188 111.801 164.024 107.063 158.15C97.5986 146.416 88.0936 127.821 88.0936 100.399H85.6372ZM125.349 99.6973C124.839 100.815 124.84 100.815 124.84 100.815C124.84 100.815 124.84 100.815 124.84 100.815C124.841 100.816 124.842 100.816 124.842 100.816C124.844 100.817 124.846 100.818 124.849 100.819C124.855 100.822 124.864 100.826 124.875 100.831C124.898 100.842 124.932 100.857 124.976 100.876C125.064 100.916 125.194 100.974 125.364 101.048C125.704 101.198 126.204 101.415 126.851 101.689C128.145 102.236 130.024 103.007 132.374 103.909C137.073 105.711 143.662 108.035 151.223 110.125L151.877 107.757C144.411 105.694 137.899 103.396 133.254 101.615C130.932 100.725 129.079 99.9637 127.808 99.4263C127.172 99.1577 126.682 98.9449 126.353 98.7999C126.188 98.7274 126.063 98.6718 125.98 98.6346C125.938 98.6159 125.907 98.6019 125.887 98.5927C125.877 98.5881 125.869 98.5847 125.864 98.5825C125.862 98.5814 125.86 98.5806 125.859 98.5801C125.858 98.5799 125.858 98.5797 125.858 98.5796C125.858 98.5796 125.858 98.5796 125.858 98.5796C125.858 98.5796 125.858 98.5796 125.349 99.6973ZM150.322 108.941C150.322 127.198 143.891 139.561 137.5 147.356C134.298 151.261 131.099 154.028 128.708 155.814C127.512 156.707 126.521 157.353 125.833 157.774C125.49 157.984 125.223 158.138 125.044 158.237C124.955 158.287 124.889 158.323 124.846 158.346C124.824 158.357 124.809 158.366 124.799 158.37C124.795 158.373 124.791 158.374 124.79 158.375C124.789 158.376 124.789 158.376 124.789 158.376C124.789 158.376 124.789 158.376 124.789 158.376C124.789 158.376 124.79 158.375 125.349 159.469C125.907 160.563 125.908 160.563 125.909 160.562C125.909 160.562 125.91 160.561 125.911 160.561C125.912 160.56 125.914 160.559 125.917 160.558C125.922 160.555 125.928 160.552 125.936 160.548C125.952 160.54 125.974 160.528 126.002 160.513C126.058 160.483 126.138 160.44 126.241 160.382C126.447 160.267 126.743 160.097 127.116 159.869C127.861 159.413 128.916 158.724 130.178 157.782C132.699 155.898 136.05 152.998 139.399 148.914C146.108 140.732 152.778 127.83 152.778 108.941H150.322ZM125.349 99.6973C124.839 98.5796 124.839 98.5796 124.84 98.5796C124.839 98.5796 124.839 98.5796 124.839 98.5796C124.839 98.5797 124.839 98.5799 124.838 98.5801C124.837 98.5806 124.835 98.5814 124.833 98.5825C124.828 98.5847 124.821 98.5881 124.81 98.5927C124.79 98.6019 124.759 98.6159 124.717 98.6346C124.634 98.6718 124.509 98.7274 124.345 98.7999C124.015 98.9449 123.525 99.1577 122.89 99.4263C121.619 99.9637 119.765 100.725 117.443 101.615C112.799 103.396 106.287 105.694 98.8201 107.757L99.4744 110.125C107.035 108.035 113.624 105.711 118.323 103.909C120.673 103.007 122.552 102.236 123.846 101.689C124.493 101.415 124.994 101.198 125.334 101.048C125.504 100.974 125.634 100.916 125.721 100.876C125.765 100.857 125.799 100.842 125.822 100.831C125.833 100.826 125.842 100.822 125.848 100.819C125.851 100.818 125.853 100.817 125.855 100.816C125.856 100.816 125.856 100.816 125.857 100.815C125.857 100.815 125.857 100.815 125.857 100.815C125.858 100.815 125.858 100.815 125.349 99.6973ZM97.9191 108.941C97.9191 127.83 104.589 140.732 111.298 148.914C114.647 152.998 117.998 155.898 120.52 157.782C121.781 158.724 122.836 159.413 123.582 159.869C123.955 160.097 124.25 160.267 124.456 160.382C124.559 160.44 124.639 160.483 124.695 160.513C124.723 160.528 124.745 160.54 124.761 160.548C124.769 160.552 124.776 160.555 124.78 160.558C124.783 160.559 124.785 160.56 124.786 160.561C124.787 160.561 124.788 160.562 124.788 160.562C124.789 160.563 124.79 160.563 125.349 159.469C125.907 158.375 125.908 158.376 125.908 158.376C125.908 158.376 125.908 158.376 125.908 158.376C125.908 158.376 125.908 158.376 125.907 158.375C125.906 158.374 125.903 158.373 125.898 158.37C125.889 158.366 125.873 158.357 125.852 158.346C125.809 158.323 125.742 158.287 125.653 158.237C125.475 158.138 125.207 157.984 124.864 157.774C124.177 157.353 123.185 156.707 121.99 155.814C119.599 154.028 116.399 151.261 113.198 147.356C106.806 139.561 100.375 127.198 100.375 108.941H97.9191ZM153.169 76.9978L157.827 75.7498L157.191 73.3771L152.533 74.6251L153.169 76.9978ZM154.037 75.4936L152.789 70.8359L150.417 71.4716L151.665 76.1293L154.037 75.4936ZM158.607 63.3859L151.787 75.1974L153.915 76.4256L160.734 64.6141L158.607 63.3859ZM97.9323 74.6251L93.2746 73.3771L92.6388 75.7498L97.2965 76.9978L97.9323 74.6251ZM98.8007 76.1293L100.049 71.4716L97.6761 70.8359L96.428 75.4936L98.8007 76.1293ZM89.7314 64.6141L96.5507 76.4256L98.678 75.1974L91.8587 63.3859L89.7314 64.6141ZM65.5271 127.487L62.252 130.762L63.9889 132.499L67.2641 129.223L65.5271 127.487ZM67.2641 127.487L63.9889 124.211L62.252 125.948L65.5271 129.223L67.2641 127.487ZM53.2949 129.583H66.3956V127.127H53.2949V129.583ZM183.433 129.223L186.708 132.499L188.445 130.762L185.17 127.487L183.433 129.223ZM185.17 129.223L188.445 125.948L186.708 124.211L183.433 127.487L185.17 129.223ZM197.402 127.127H184.302V129.583H197.402V127.127ZM155.261 174.978L159.919 176.226L160.554 173.853L155.897 172.605L155.261 174.978ZM154.392 173.474L153.144 178.131L155.517 178.767L156.765 174.11L154.392 173.474ZM163.462 184.989L156.642 173.178L154.515 174.406L161.335 186.217L163.462 184.989ZM96.6146 172.605L91.9569 173.853L92.5926 176.226L97.2503 174.978L96.6146 172.605ZM95.7461 174.11L96.9941 178.767L99.3668 178.131L98.1188 173.474L95.7461 174.11ZM91.1767 186.217L97.9961 174.406L95.8688 173.178L89.0494 184.989L91.1767 186.217Z" fill="url(#paint0_linear)"/>
<defs>
<linearGradient id="paint0_linear" x1="100.785" y1="88.6437" x2="147.865" y2="169.295" gradientUnits="userSpaceOnUse">
<stop stop-color="#FF0F57"/>
<stop offset="0.523158" stop-color="#BB6BD9"/>
<stop offset="1" stop-color="#2BB2FF"/>
</linearGradient>
</defs>
</svg>
