<svg width="298" height="149" viewBox="0 0 298 149" fill="none" xmlns="http://www.w3.org/2000/svg">
<g clip-path="url(#clip0)">
<path d="M149 27.5975L149.63 26.2364L149 25.9444L148.37 26.2364L149 27.5975ZM196 44.4545H197.5V43.3178L196.406 43.0104L196 44.4545ZM149 136.597L148.309 137.929L149 138.288L149.691 137.929L149 136.597ZM102 44.4545L101.594 43.0104L100.5 43.3178V44.4545H102ZM149 43.5975L149.622 42.2325L149 41.9491L148.378 42.2325L149 43.5975ZM181 54.887H182.5V53.7453L181.4 53.4412L181 54.887ZM149 116.597L148.318 117.933L149 118.282L149.682 117.933L149 116.597ZM117 54.887L116.6 53.4412L115.5 53.7453V54.887H117ZM182.589 14.4255L181.14 14.8137L181.528 16.2626L182.977 15.8744L182.589 14.4255ZM188.666 14.3501C189.466 14.1357 189.941 13.3132 189.726 12.513C189.512 11.7128 188.69 11.238 187.889 11.4524L188.666 14.3501ZM182.514 8.34875C182.299 7.54855 181.477 7.07367 180.677 7.28808C179.876 7.5025 179.402 8.325 179.616 9.1252L182.514 8.34875ZM192.217 0.75C192.631 0.0325607 192.385 -0.884825 191.668 -1.29904C190.95 -1.71325 190.033 -1.46744 189.619 -0.75L192.217 0.75ZM115.128 14.4255L114.74 15.8744L116.189 16.2626L116.577 14.8137L115.128 14.4255ZM109.828 11.4524C109.027 11.238 108.205 11.7128 107.99 12.513C107.776 13.3132 108.251 14.1357 109.051 14.3501L109.828 11.4524ZM118.101 9.1252C118.315 8.325 117.841 7.5025 117.04 7.28808C116.24 7.07367 115.418 7.54855 115.203 8.34875L118.101 9.1252ZM108.098 -0.75C107.684 -1.46744 106.767 -1.71325 106.049 -1.29904C105.332 -0.884824 105.086 0.0325613 105.5 0.75L108.098 -0.75ZM77 78.5975L78.0607 79.6581L79.1213 78.5975L78.0607 77.5368L77 78.5975ZM71.9393 81.5368C71.3536 82.1226 71.3536 83.0723 71.9393 83.6581C72.5251 84.2439 73.4749 84.2439 74.0607 83.6581L71.9393 81.5368ZM74.0607 73.5368C73.4749 72.951 72.5251 72.951 71.9393 73.5368C71.3536 74.1226 71.3536 75.0723 71.9393 75.6581L74.0607 73.5368ZM61 77.0975C60.1716 77.0975 59.5 77.769 59.5 78.5975C59.5 79.4259 60.1716 80.0975 61 80.0975V77.0975ZM221 78.5975L219.939 77.5368L218.879 78.5975L219.939 79.6581L221 78.5975ZM223.939 83.6581C224.525 84.2439 225.475 84.2439 226.061 83.6581C226.646 83.0723 226.646 82.1226 226.061 81.5368L223.939 83.6581ZM226.061 75.6581C226.646 75.0723 226.646 74.1226 226.061 73.5368C225.475 72.951 224.525 72.951 223.939 73.5368L226.061 75.6581ZM237 80.0975C237.828 80.0975 238.5 79.4259 238.5 78.5975C238.5 77.769 237.828 77.0975 237 77.0975V80.0975ZM185.921 134.09L186.309 132.641L184.86 132.253L184.472 133.702L185.921 134.09ZM191.221 137.063C192.021 137.277 192.844 136.802 193.058 136.002C193.272 135.202 192.797 134.38 191.997 134.165L191.221 137.063ZM182.947 139.39C182.733 140.19 183.208 141.013 184.008 141.227C184.808 141.442 185.631 140.967 185.845 140.167L182.947 139.39ZM192.95 149.265C193.364 149.983 194.282 150.228 194.999 149.814C195.717 149.4 195.962 148.483 195.548 147.765L192.95 149.265ZM114.295 134.09L115.744 133.702L115.356 132.253L113.907 132.641L114.295 134.09ZM108.218 134.165C107.418 134.38 106.943 135.202 107.158 136.002C107.372 136.802 108.195 137.277 108.995 137.063L108.218 134.165ZM114.37 140.167C114.585 140.967 115.407 141.442 116.207 141.227C117.008 141.013 117.483 140.19 117.268 139.39L114.37 140.167ZM104.667 147.765C104.253 148.483 104.499 149.4 105.216 149.814C105.934 150.228 106.851 149.983 107.265 149.265L104.667 147.765ZM149 27.5975C148.37 28.9586 148.37 28.9587 148.37 28.9588C148.37 28.9589 148.371 28.9591 148.371 28.9592C148.372 28.9596 148.373 28.9601 148.374 28.9608C148.377 28.9621 148.381 28.9639 148.386 28.9663C148.397 28.9711 148.412 28.9782 148.432 28.9874C148.472 29.0059 148.532 29.0331 148.61 29.0687C148.766 29.1399 148.998 29.2447 149.302 29.3805C149.909 29.652 150.804 30.0471 151.961 30.5445C154.275 31.5391 157.639 32.9428 161.847 34.5835C170.261 37.8641 182.058 42.0955 195.594 45.8986L196.406 43.0104C182.986 39.24 171.283 35.0429 162.936 31.7884C158.764 30.1615 155.432 28.7709 153.145 27.7883C152.002 27.2969 151.121 26.9077 150.526 26.6418C150.229 26.5089 150.004 26.4069 149.853 26.3384C149.778 26.3042 149.722 26.2784 149.684 26.2612C149.666 26.2527 149.652 26.2463 149.643 26.2421C149.638 26.2401 149.635 26.2385 149.633 26.2376C149.632 26.2371 149.631 26.2367 149.631 26.2365C149.631 26.2364 149.63 26.2364 149.63 26.2364C149.63 26.2363 149.63 26.2364 149 27.5975ZM194.5 44.4545C194.5 77.9453 182.891 100.655 171.332 114.987C165.546 122.161 159.763 127.246 155.437 130.531C153.274 132.174 151.476 133.366 150.227 134.143C149.603 134.532 149.115 134.816 148.788 135.002C148.624 135.095 148.5 135.163 148.42 135.207C148.379 135.229 148.35 135.245 148.331 135.255C148.322 135.259 148.315 135.263 148.311 135.265C148.31 135.266 148.308 135.266 148.308 135.267C148.308 135.267 148.308 135.267 148.308 135.267C148.308 135.267 148.309 135.266 149 136.597C149.691 137.929 149.692 137.928 149.693 137.928C149.694 137.927 149.695 137.927 149.696 137.926C149.699 137.925 149.702 137.923 149.706 137.921C149.713 137.917 149.724 137.912 149.737 137.905C149.764 137.89 149.802 137.87 149.85 137.844C149.947 137.791 150.087 137.714 150.268 137.612C150.629 137.407 151.151 137.101 151.812 136.69C153.133 135.868 155.008 134.624 157.251 132.921C161.737 129.514 167.704 124.264 173.668 116.87C185.609 102.065 197.5 78.7035 197.5 44.4545H194.5ZM149 27.5975C148.37 26.2364 148.37 26.2363 148.37 26.2364C148.37 26.2364 148.369 26.2364 148.369 26.2365C148.369 26.2367 148.368 26.2371 148.367 26.2376C148.365 26.2385 148.362 26.2401 148.357 26.2421C148.348 26.2463 148.334 26.2527 148.316 26.2612C148.278 26.2784 148.222 26.3042 148.147 26.3384C147.996 26.4069 147.771 26.5089 147.474 26.6418C146.879 26.9077 145.998 27.2969 144.855 27.7883C142.568 28.7709 139.236 30.1615 135.064 31.7884C126.717 35.0429 115.014 39.24 101.594 43.0104L102.406 45.8986C115.942 42.0955 127.739 37.8641 136.153 34.5835C140.361 32.9428 143.725 31.5391 146.039 30.5445C147.196 30.0471 148.091 29.652 148.698 29.3805C149.002 29.2447 149.234 29.1399 149.39 29.0687C149.468 29.0331 149.528 29.0059 149.568 28.9874C149.588 28.9782 149.603 28.9711 149.614 28.9663C149.619 28.9639 149.623 28.9621 149.626 28.9608C149.627 28.9601 149.628 28.9596 149.629 28.9592C149.629 28.9591 149.63 28.9589 149.63 28.9588C149.63 28.9587 149.63 28.9586 149 27.5975ZM100.5 44.4545C100.5 78.7035 112.391 102.065 124.332 116.87C130.296 124.264 136.263 129.514 140.749 132.921C142.992 134.624 144.867 135.868 146.188 136.69C146.849 137.101 147.371 137.407 147.732 137.612C147.913 137.714 148.053 137.791 148.15 137.844C148.198 137.87 148.236 137.89 148.263 137.905C148.276 137.912 148.287 137.917 148.294 137.921C148.298 137.923 148.301 137.925 148.304 137.926C148.305 137.927 148.306 137.927 148.307 137.928C148.308 137.928 148.309 137.929 149 136.597C149.691 135.266 149.692 135.267 149.692 135.267C149.692 135.267 149.692 135.267 149.692 135.267C149.692 135.266 149.69 135.266 149.689 135.265C149.685 135.263 149.678 135.259 149.669 135.255C149.65 135.245 149.621 135.229 149.58 135.207C149.5 135.163 149.376 135.095 149.212 135.002C148.885 134.816 148.397 134.532 147.773 134.143C146.524 133.366 144.726 132.174 142.563 130.531C138.237 127.246 132.454 122.161 126.668 114.987C115.109 100.655 103.5 77.9453 103.5 44.4545H100.5ZM149 43.5975C148.378 44.9625 148.378 44.9626 148.379 44.9627C148.379 44.9627 148.379 44.9629 148.379 44.963C148.38 44.9633 148.381 44.9636 148.382 44.9641C148.384 44.965 148.387 44.9663 148.39 44.968C148.398 44.9713 148.408 44.9761 148.422 44.9824C148.45 44.995 148.491 45.0134 148.545 45.0375C148.652 45.0856 148.811 45.1562 149.018 45.2476C149.434 45.4302 150.045 45.6958 150.835 46.0298C152.415 46.6978 154.71 47.6399 157.581 48.7407C163.32 50.9418 171.367 53.7809 180.6 56.3328L181.4 53.4412C172.281 50.9211 164.327 48.1153 158.655 45.9397C155.819 44.8522 153.556 43.9229 152.003 43.2666C151.227 42.9385 150.629 42.6787 150.226 42.5015C150.025 42.4129 149.872 42.345 149.771 42.2996C149.72 42.2769 149.682 42.2598 149.657 42.2485C149.645 42.2429 149.636 42.2387 149.63 42.236C149.627 42.2347 149.625 42.2337 149.623 42.2331C149.623 42.2328 149.622 42.2326 149.622 42.2325C149.622 42.2324 149.622 42.2324 149.622 42.2324C149.622 42.2324 149.622 42.2325 149 43.5975ZM179.5 54.887C179.5 77.1844 171.646 92.2832 163.84 101.804C159.93 106.573 156.023 109.952 153.102 112.133C151.643 113.224 150.431 114.014 149.592 114.527C149.172 114.784 148.846 114.972 148.628 115.093C148.52 115.154 148.438 115.198 148.386 115.226C148.359 115.24 148.34 115.25 148.329 115.256C148.323 115.259 148.32 115.261 148.318 115.262C148.317 115.262 148.316 115.262 148.316 115.262C148.316 115.262 148.317 115.262 148.317 115.262C148.317 115.262 148.318 115.262 149 116.597C149.682 117.933 149.683 117.933 149.684 117.932C149.685 117.932 149.686 117.932 149.687 117.931C149.689 117.93 149.691 117.929 149.694 117.927C149.7 117.924 149.708 117.92 149.717 117.915C149.737 117.905 149.764 117.891 149.798 117.873C149.867 117.836 149.965 117.783 150.09 117.713C150.341 117.573 150.703 117.365 151.158 117.086C152.069 116.529 153.357 115.687 154.898 114.537C157.977 112.236 162.07 108.694 166.16 103.706C174.354 93.7131 182.5 77.9567 182.5 54.887H179.5ZM149 43.5975C148.378 42.2325 148.378 42.2324 148.378 42.2324C148.378 42.2324 148.378 42.2324 148.378 42.2325C148.378 42.2326 148.377 42.2328 148.377 42.2331C148.375 42.2337 148.373 42.2347 148.37 42.236C148.364 42.2387 148.355 42.2429 148.343 42.2485C148.318 42.2598 148.28 42.2769 148.229 42.2996C148.128 42.345 147.975 42.4129 147.774 42.5015C147.371 42.6787 146.773 42.9385 145.997 43.2666C144.444 43.9229 142.181 44.8522 139.345 45.9397C133.673 48.1153 125.719 50.9211 116.6 53.4412L117.4 56.3328C126.633 53.7809 134.68 50.9418 140.419 48.7407C143.29 47.6399 145.585 46.6978 147.165 46.0298C147.955 45.6958 148.566 45.4302 148.982 45.2476C149.189 45.1562 149.348 45.0856 149.455 45.0375C149.509 45.0134 149.55 44.995 149.578 44.9824C149.592 44.9761 149.602 44.9713 149.61 44.968C149.613 44.9663 149.616 44.965 149.618 44.9641C149.619 44.9636 149.62 44.9633 149.621 44.963C149.621 44.9629 149.621 44.9627 149.621 44.9627C149.622 44.9626 149.622 44.9625 149 43.5975ZM115.5 54.887C115.5 77.9567 123.646 93.7131 131.84 103.706C135.93 108.694 140.023 112.236 143.102 114.537C144.643 115.687 145.931 116.529 146.842 117.086C147.297 117.365 147.659 117.573 147.91 117.713C148.035 117.783 148.133 117.836 148.202 117.873C148.236 117.891 148.263 117.905 148.283 117.915C148.292 117.92 148.3 117.924 148.306 117.927C148.309 117.929 148.311 117.93 148.313 117.931C148.314 117.932 148.315 117.932 148.316 117.932C148.317 117.933 148.318 117.933 149 116.597C149.682 115.262 149.683 115.262 149.683 115.262C149.683 115.262 149.684 115.262 149.684 115.262C149.684 115.262 149.683 115.262 149.682 115.262C149.68 115.261 149.677 115.259 149.671 115.256C149.66 115.25 149.641 115.24 149.614 115.226C149.562 115.198 149.48 115.154 149.372 115.093C149.154 114.972 148.828 114.784 148.408 114.527C147.569 114.014 146.357 113.224 144.898 112.133C141.977 109.952 138.07 106.573 134.16 101.804C126.354 92.2832 118.5 77.1844 118.5 54.887H115.5ZM182.977 15.8744L188.666 14.3501L187.889 11.4524L182.201 12.9766L182.977 15.8744ZM184.038 14.0373L182.514 8.34875L179.616 9.1252L181.14 14.8137L184.038 14.0373ZM189.619 -0.75L181.29 13.6755L183.888 15.1755L192.217 0.75L189.619 -0.75ZM115.516 12.9766L109.828 11.4524L109.051 14.3501L114.74 15.8744L115.516 12.9766ZM116.577 14.8137L118.101 9.1252L115.203 8.34875L113.679 14.0373L116.577 14.8137ZM105.5 0.75L113.829 15.1755L116.427 13.6755L108.098 -0.75L105.5 0.75ZM75.9393 77.5368L71.9393 81.5368L74.0607 83.6581L78.0607 79.6581L75.9393 77.5368ZM78.0607 77.5368L74.0607 73.5368L71.9393 75.6581L75.9393 79.6581L78.0607 77.5368ZM61 80.0975H77V77.0975H61V80.0975ZM219.939 79.6581L223.939 83.6581L226.061 81.5368L222.061 77.5368L219.939 79.6581ZM222.061 79.6581L226.061 75.6581L223.939 73.5368L219.939 77.5368L222.061 79.6581ZM237 77.0975H221V80.0975H237V77.0975ZM185.532 135.539L191.221 137.063L191.997 134.165L186.309 132.641L185.532 135.539ZM184.472 133.702L182.947 139.39L185.845 140.167L187.369 134.478L184.472 133.702ZM195.548 147.765L187.22 133.34L184.621 134.84L192.95 149.265L195.548 147.765ZM113.907 132.641L108.218 134.165L108.995 137.063L114.683 135.539L113.907 132.641ZM112.846 134.478L114.37 140.167L117.268 139.39L115.744 133.702L112.846 134.478ZM107.265 149.265L115.594 134.84L112.996 133.34L104.667 147.765L107.265 149.265Z" fill="url(#paint0_linear)"/>
</g>
<defs>
<linearGradient id="paint0_linear" x1="119" y1="30.0977" x2="176.5" y2="128.598" gradientUnits="userSpaceOnUse">
<stop stop-color="#FF0F57"/>
<stop offset="0.523158" stop-color="#BB6BD9"/>
<stop offset="1" stop-color="#2BB2FF"/>
</linearGradient>
<clipPath id="clip0">
<rect width="298" height="149" fill="white"/>
</clipPath>
</defs>
</svg>
