<svg width="6138" height="2008" viewBox="0 0 6138 2008" fill="none" xmlns="http://www.w3.org/2000/svg">
<g clip-path="url(#clip0)">
<path d="M6117.75 1736.39V1738.89C6116.41 1876.53 6004.42 1987.73 5866.5 1987.73H271.32C132.548 1987.74 20 1875.19 20 1736.39V271.32C20 132.546 132.546 20 271.32 20H5866.49C6005.25 20 6117.75 132.541 6117.75 271.32V1736.39Z" fill="black" stroke="#8F8F8F" stroke-width="40"/>
<path d="M460.38 386.532V1746.17L1145.99 1066.36L460.38 386.532Z" fill="url(#paint0_linear)"/>
<path d="M1330.13 883.752L1053.37 723.972L460.38 381.588V386.532L1145.99 1066.36L1330.13 883.752Z" fill="url(#paint1_linear)"/>
<path d="M460.38 1746.17V1751.11L1053.37 1408.72L1330.12 1248.94L1145.99 1066.36L460.38 1746.17Z" fill="url(#paint2_linear)"/>
<path d="M1330.13 883.752L1145.99 1066.36L1330.12 1248.94L1646.4 1066.34L1330.13 883.752Z" fill="url(#paint3_linear)"/>
<path d="M4776.7 1332.13C4750.94 1332.13 4727.45 1327.38 4706.17 1317.89C4684.9 1308.38 4667.02 1293.77 4652.58 1274.06H4648.26C4651.14 1297.15 4652.58 1319.04 4652.58 1339.72V1502.42H4592.72V929.508H4641.42L4649.7 983.628H4652.58C4667.99 961.968 4685.92 946.356 4706.35 936.732C4726.79 927.108 4750.25 922.296 4776.68 922.296C4829.12 922.296 4869.6 940.224 4898.09 976.056C4926.59 1011.89 4940.84 1062.17 4940.84 1126.85C4940.84 1191.79 4926.35 1242.23 4897.39 1278.22C4868.41 1314.17 4828.19 1332.13 4776.7 1332.13V1332.13ZM4768.03 973.164C4727.63 973.164 4698.41 984.36 4680.37 1006.72C4662.34 1029.08 4653.07 1064.69 4652.58 1113.52V1126.85C4652.58 1182.42 4661.84 1222.16 4680.37 1246.1C4698.9 1270.05 4728.61 1281.98 4769.47 1281.98C4803.65 1281.98 4830.41 1268.17 4849.78 1240.51C4869.12 1212.86 4878.8 1174.74 4878.8 1126.13C4878.8 1076.84 4869.12 1039 4849.78 1012.67C4830.42 986.316 4803.16 973.164 4768.03 973.164V973.164ZM5079.52 1324.91H5019.64V763.548H5079.52V1324.91ZM5423.83 1324.91L5411.92 1268.63H5409.04C5389.31 1293.42 5369.65 1310.21 5350.04 1318.96C5330.45 1327.75 5305.97 1332.13 5276.64 1332.13C5237.44 1332.13 5206.72 1322.03 5184.46 1301.83C5162.2 1281.64 5151.08 1252.91 5151.08 1215.61C5151.08 1135.78 5214.95 1093.92 5342.65 1090.06L5409.78 1087.88V1063.36C5409.78 1032.32 5403.1 1009.4 5389.74 994.632C5376.41 979.823 5355.02 972.432 5325.71 972.432C5292.74 972.432 5255.46 982.536 5213.87 1002.73L5195.46 956.916C5214.96 946.332 5236.28 938.041 5259.52 932.028C5282.72 926.016 5305.98 923.005 5329.32 923.005C5376.46 923.005 5411.39 933.457 5434.13 954.385C5456.84 975.313 5468.21 1008.86 5468.21 1055.05V1324.9H5423.83V1324.91H5423.83ZM5288.54 1282.72C5325.8 1282.72 5355.08 1272.49 5376.38 1252.06C5397.65 1231.62 5408.32 1202.99 5408.32 1166.17V1130.46L5348.4 1132.97C5300.79 1134.68 5266.48 1142.05 5245.41 1155.19C5224.37 1168.3 5213.84 1188.68 5213.84 1216.34C5213.84 1237.98 5220.38 1254.47 5233.51 1265.75C5246.63 1277.06 5264.95 1282.72 5288.54 1282.72ZM5502.97 929.508H5567.17L5653.76 1155C5672.76 1206.48 5684.56 1243.63 5689.14 1266.49H5692.02C5695.15 1254.2 5701.72 1233.24 5711.68 1203.5C5721.66 1173.79 5754.32 1082.48 5809.62 929.508H5873.87L5703.92 1379.76C5687.1 1424.26 5667.43 1455.83 5644.92 1474.5C5622.44 1493.12 5594.83 1502.42 5562.16 1502.42C5543.87 1502.42 5525.83 1500.38 5508.01 1496.3V1448.33C5521.23 1451.21 5536.04 1452.66 5552.4 1452.66C5593.54 1452.66 5622.85 1429.57 5640.43 1383.38L5662.43 1327.11L5502.97 929.508V929.508ZM3667.31 966.252C3686.32 981.983 3726.01 1015.03 3726.01 1077.92C3726.01 1139.09 3691.27 1168.09 3656.53 1195.34C3645.78 1206.08 3633.37 1217.7 3633.37 1235.91C3633.37 1254.07 3645.77 1264.01 3654.9 1271.46L3684.68 1294.57C3721.07 1325.18 3754.12 1353.32 3754.12 1410.41C3754.12 1488.14 3678.85 1566.68 3536.63 1566.68C3416.69 1566.68 3358.82 1509.63 3358.82 1448.4C3358.82 1418.64 3373.64 1376.48 3422.51 1347.5C3473.75 1316.07 3543.26 1311.98 3580.46 1309.44C3568.85 1294.57 3555.65 1278.85 3555.65 1253.26C3555.65 1239.22 3559.8 1230.94 3563.92 1220.96C3554.78 1221.8 3545.7 1222.63 3537.42 1222.63C3449.78 1222.63 3400.17 1157.29 3400.17 1092.82C3400.17 1054.76 3417.55 1012.56 3453.07 981.996C3500.23 943.129 3556.46 936.492 3601.17 936.492H3771.49L3718.56 966.264H3667.31V966.252H3667.31ZM3608.57 1333.48C3601.96 1332.61 3597.8 1332.61 3589.57 1332.61C3582.13 1332.61 3537.41 1334.3 3502.72 1345.91C3484.52 1352.47 3431.58 1372.32 3431.58 1431.07C3431.58 1489.76 3488.68 1532 3577.18 1532C3656.52 1532 3698.75 1493.88 3698.75 1442.65C3698.75 1400.39 3671.45 1378.15 3608.57 1333.48ZM3632.57 1176.31C3651.56 1157.27 3653.2 1130.83 3653.2 1115.93C3653.2 1056.4 3617.65 963.768 3549.02 963.768C3527.49 963.768 3504.36 974.508 3491.12 991.068C3477.08 1008.43 3472.91 1030.74 3472.91 1052.27C3472.91 1107.67 3505.16 1199.48 3576.32 1199.48C3597 1199.48 3619.28 1189.56 3632.57 1176.31V1176.31ZM3146.64 1320.24C3015.37 1320.24 2945.18 1217.84 2945.18 1125.35C2945.18 1017.17 3033.52 924.732 3159.07 924.732C3280.39 924.732 3356.36 1019.65 3356.36 1119.59C3356.38 1216.98 3281.27 1320.24 3146.64 1320.24ZM3249.84 1253.36C3269.69 1226.92 3274.64 1193.9 3274.64 1161.67C3274.64 1088.99 3239.96 950.293 3137.57 950.293C3110.33 950.293 3083.09 961.045 3063.28 978.421C3031.07 1007.28 3025.26 1043.63 3025.26 1079.17C3025.26 1160.86 3065.72 1295.41 3165.66 1295.41C3197.86 1295.41 3230.89 1279.75 3249.84 1253.36V1253.36ZM2699.1 1320.24C2567.81 1320.24 2497.61 1217.84 2497.61 1125.35C2497.61 1017.17 2585.97 924.732 2711.5 924.732C2832.85 924.732 2908.81 1019.65 2908.81 1119.59C2908.82 1216.98 2833.7 1320.24 2699.1 1320.24ZM2802.32 1253.36C2822.14 1226.92 2827.1 1193.9 2827.1 1161.67C2827.1 1088.99 2792.4 950.293 2690 950.293C2662.77 950.293 2635.51 961.045 2615.71 978.421C2583.5 1007.28 2577.73 1043.63 2577.73 1079.17C2577.73 1160.86 2618.17 1295.41 2718.12 1295.41C2750.33 1295.41 2783.34 1279.75 2802.32 1253.36V1253.36ZM2434.54 1307.29L2315.81 1334.69C2267.64 1342.18 2224.49 1348.76 2178.85 1348.76C1949.7 1348.76 1862.57 1180.24 1862.57 1048.24C1862.57 887.209 1986.24 737.82 2197.96 737.82C2242.8 737.82 2285.93 744.444 2324.94 755.244C2387.2 772.681 2416.25 794.244 2434.52 806.713L2365.6 872.292L2336.56 878.904L2357.3 845.688C2329.09 818.316 2277.58 767.688 2179.66 767.688C2048.48 767.688 1949.68 867.348 1949.68 1012.61C1949.68 1168.63 2062.6 1315.57 2243.53 1315.57C2296.72 1315.57 2324.05 1304.8 2348.98 1294.81V1161.19L2223.65 1167.83L2290.03 1132.09H2466.04L2444.47 1152.84C2438.62 1157.84 2437.81 1159.52 2436.16 1166.1C2435.29 1173.59 2434.51 1197.68 2434.51 1205.98V1307.29H2434.54V1307.29Z" fill="#F9F9F9"/>
<path d="M3929.69 1283.39C3902.28 1280.89 3896.54 1275.94 3896.54 1243.52V773.676C3896.71 771.888 3896.82 770.052 3896.99 768.323C3900.33 739.283 3908.63 734.303 3934.39 719.34H3815.64L3753.36 749.232H3816.83V749.604L3816.78 749.304V1261.81C3816.78 1278.38 3813.5 1280.9 3794.39 1305.78H3941.34L3972.06 1287.56C3957.96 1285.85 3943.82 1285.04 3929.69 1283.39V1283.39ZM4267.49 1291.02C4258.45 1295.98 4249.38 1301.77 4240.34 1305.86C4213.09 1318.22 4185.07 1321.54 4160.29 1321.54C4133.97 1321.54 4092.72 1319.83 4050.64 1289.36C3992.15 1248.11 3966.59 1177.21 3966.59 1115.4C3966.59 987.636 4070.46 924.984 4155.37 924.984C4185.06 924.984 4215.6 932.388 4240.33 948.085C4281.52 975.24 4292.23 1010.69 4297.97 1029.66L4104.28 1108.01L4040.78 1112.95C4061.36 1217.65 4132.26 1278.61 4210.61 1278.61C4252.64 1278.61 4283.16 1263.8 4311.18 1249.81L4267.49 1291.02V1291.02ZM4190.02 1045.31C4205.65 1039.56 4213.89 1034.59 4213.89 1023.06C4213.89 990.108 4176.82 952.164 4132.26 952.164C4099.25 952.164 4037.46 977.736 4037.46 1066.75C4037.46 1080.77 4039.11 1095.6 4039.97 1110.49L4190.02 1045.31V1045.31ZM4347.06 930.624V985.02H4340.45V930.624H4322.45V924.983H4365.05V930.624H4347.06V930.624ZM4421.22 985.02V930.12H4420.92L4404.17 985.02H4399L4382.1 930.12H4381.88V985.02H4375.88V924.984H4386.17L4401.45 973.512H4401.67L4416.73 924.984H4427.16V985.02H4421.22V985.02Z" fill="#F9F9F9"/>
<path d="M2027.45 576.18H1986.19C1986.19 570.504 1982.28 554.436 1974.46 527.964H1914.9C1906.82 554.004 1902.78 570.071 1902.78 576.18H1863.98C1863.98 572.831 1874.02 545.327 1894.08 493.68C1914.14 442.032 1924.18 413.579 1924.18 408.348H1972.91C1972.91 413.244 1981.99 441.276 2000.17 492.456C2018.35 543.636 2027.45 571.536 2027.45 576.18V576.18ZM1967.89 503.34C1953.19 458.999 1945.85 435.024 1945.85 431.411H1943.78C1943.78 434.76 1936.18 458.735 1920.97 503.34H1967.89V503.34ZM2193.67 576.18H2161.84C2161.84 572.652 2150.02 554.052 2126.39 520.368C2101.64 484.872 2087.54 460.608 2084.11 447.541H2082.05C2084.2 466.356 2085.28 483.372 2085.28 498.589C2085.28 519.817 2085.88 545.689 2087.08 576.193H2055.36C2056.64 549.553 2057.29 520.297 2057.29 488.413C2057.29 457.046 2056.65 430.357 2055.36 408.361H2093.64C2093.64 412.921 2104.25 431.101 2125.48 462.889C2148.07 496.657 2161.06 519.565 2164.41 531.601H2166.34C2164.27 512.437 2163.24 495.252 2163.24 480.037C2163.24 456.758 2162.64 432.853 2161.44 408.361H2193.67C2192.46 429.673 2191.87 456.361 2191.87 488.413C2191.86 520.704 2192.46 549.96 2193.67 576.18V576.18ZM2380.5 486.457C2380.5 510.864 2372.68 532.177 2357.04 550.393C2341.39 568.621 2319.48 577.717 2291.29 577.717C2278.57 577.717 2261.04 577.2 2238.7 576.168C2239.81 550.213 2240.38 520.944 2240.38 488.389C2240.38 457.117 2239.81 430.429 2238.7 408.336H2261.26C2264.95 408.336 2270.45 408.204 2277.76 407.952C2285.05 407.7 2289.83 407.568 2292.06 407.568C2323.08 407.568 2345.57 415.308 2359.55 430.776C2373.52 446.244 2380.5 464.796 2380.5 486.457V486.457ZM2345.31 491.999C2345.31 475.499 2340.5 461.603 2330.88 450.287C2321.25 438.995 2306.55 433.344 2286.79 433.344C2283.1 433.344 2278.03 433.728 2271.57 434.508C2272.43 451.703 2272.86 469.655 2272.86 488.388C2272.86 508.932 2273.29 529.296 2274.14 549.492C2279.66 550.603 2285.27 551.166 2290.89 551.172C2309.37 551.172 2323.05 545.425 2331.95 533.952C2340.84 522.48 2345.31 508.499 2345.31 491.999V491.999ZM2552.78 576.18H2514.62C2504.65 545.76 2497.01 526.98 2491.68 519.852C2486.35 512.712 2477.76 509.148 2465.9 509.148C2460.91 509.148 2456.15 509.196 2451.6 509.28C2451.6 531.373 2451.98 553.668 2452.76 576.18H2416.93C2418.05 550.224 2418.61 520.956 2418.61 488.4C2418.61 457.129 2418.05 430.44 2416.93 408.348H2439.23C2441.81 408.348 2447.2 408.216 2455.4 407.964C2463.61 407.712 2471.2 407.579 2478.16 407.579C2517.6 407.579 2537.33 421.067 2537.33 448.056C2537.33 469.452 2526.07 484.356 2503.56 492.792V494.724C2512.24 497.124 2519.84 503.904 2526.37 515.016C2532.89 526.14 2541.7 546.528 2552.78 576.18V576.18ZM2504.45 457.583C2504.45 440.483 2493.44 431.928 2471.45 431.928C2463.37 431.928 2456.23 432.528 2450.05 433.728C2451 447.048 2451.47 464.412 2451.47 485.808C2456.2 485.988 2460.19 486.06 2463.46 486.06C2490.78 486.072 2504.45 476.58 2504.45 457.583V457.583ZM2737.56 489.167C2737.56 515.544 2729.48 537.419 2713.32 554.783C2697.16 572.136 2677.18 580.823 2653.38 580.823C2630.69 580.823 2611.69 572.855 2596.4 556.907C2581.1 540.971 2573.46 520.704 2573.46 496.139C2573.46 469.763 2581.54 447.887 2597.7 430.523C2613.85 413.171 2633.83 404.483 2657.64 404.483C2680.33 404.483 2699.32 412.427 2714.62 428.327C2729.92 444.228 2737.56 464.496 2737.56 489.167V489.167ZM2701.99 492.9C2701.99 474.936 2697.39 460.368 2688.2 449.196C2679 438.024 2667.66 432.444 2654.17 432.444C2641.62 432.444 2630.96 438.072 2622.2 449.328C2613.44 460.584 2609.04 474.805 2609.04 492C2609.04 509.868 2613.66 524.412 2622.9 535.633C2632.14 546.853 2643.46 552.457 2656.87 552.457C2669.41 552.457 2680.08 546.805 2688.84 535.5C2697.6 524.208 2701.99 509.999 2701.99 492.9V492.9ZM2810.45 576.18H2773.97C2775.08 549.54 2775.65 520.284 2775.65 488.4C2775.65 457.032 2775.08 430.344 2773.97 408.348H2810.45C2809.33 430.008 2808.77 456.684 2808.77 488.4C2808.77 520.788 2809.33 550.056 2810.45 576.18ZM2997.29 486.457C2997.29 510.864 2989.46 532.177 2973.83 550.393C2958.18 568.621 2936.27 577.717 2908.08 577.717C2895.36 577.717 2877.83 577.2 2855.48 576.168C2856.6 550.213 2857.16 520.944 2857.16 488.389C2857.16 457.117 2856.6 430.429 2855.48 408.336H2878.04C2881.74 408.336 2887.24 408.204 2894.54 407.952C2901.84 407.7 2906.62 407.568 2908.85 407.568C2939.87 407.568 2962.36 415.308 2976.34 430.776C2990.3 446.244 2997.29 464.796 2997.29 486.457V486.457ZM2962.1 491.999C2962.1 475.499 2957.29 461.603 2947.67 450.287C2938.04 438.995 2923.34 433.344 2903.58 433.344C2899.88 433.344 2894.82 433.728 2888.36 434.508C2889.21 451.703 2889.65 469.655 2889.65 488.388C2889.65 508.932 2890.08 529.296 2890.93 549.492C2896.44 550.603 2902.06 551.166 2907.68 551.172C2926.16 551.172 2939.84 545.425 2948.73 533.952C2957.63 522.48 2962.1 508.499 2962.1 491.999ZM3245.16 576.18H3203.9C3203.9 570.504 3199.99 554.436 3192.16 527.964H3132.6C3124.52 554.004 3120.48 570.071 3120.48 576.18H3081.7C3081.7 572.831 3091.73 545.327 3111.79 493.68C3131.86 442.032 3141.89 413.579 3141.89 408.348H3190.62C3190.62 413.244 3199.72 441.276 3217.88 492.456C3236.05 543.636 3245.16 571.536 3245.16 576.18ZM3185.6 503.34C3170.9 458.999 3163.55 435.024 3163.55 431.411H3161.48C3161.48 434.76 3153.89 458.735 3138.68 503.34H3185.6V503.34ZM3395.52 452.292C3395.52 472.836 3387.89 488.004 3372.64 497.796C3357.38 507.588 3338.67 512.495 3316.5 512.495C3312.45 512.495 3309.59 512.411 3307.86 512.243C3307.86 528.407 3308.33 549.708 3309.27 576.18H3273.05C3274.16 551.352 3274.73 522.083 3274.73 488.4C3274.73 457.464 3274.16 430.776 3273.05 408.348H3295.47C3298.65 408.348 3304.75 408.216 3313.77 407.964C3322.8 407.712 3330.61 407.579 3337.23 407.579C3353.55 407.579 3367.35 411.275 3378.61 418.667C3389.87 426.06 3395.52 437.256 3395.52 452.292V452.292ZM3362.27 459.384C3362.27 440.999 3350.06 431.796 3325.66 431.796C3319.55 431.796 3313.1 432.443 3306.32 433.728C3307.27 449.976 3307.74 468.36 3307.74 488.904C3309.89 489.084 3312.38 489.156 3315.22 489.156C3346.58 489.167 3362.27 479.244 3362.27 459.384V459.384ZM3550.13 452.292C3550.13 472.836 3542.5 488.004 3527.26 497.796C3512 507.588 3493.28 512.495 3471.11 512.495C3467.06 512.495 3464.2 512.411 3462.47 512.243C3462.47 528.407 3462.94 549.708 3463.88 576.18H3427.66C3428.77 551.352 3429.34 522.083 3429.34 488.4C3429.34 457.464 3428.77 430.776 3427.66 408.348H3450.08C3453.26 408.348 3459.36 408.216 3468.38 407.964C3477.41 407.712 3485.22 407.579 3491.84 407.579C3508.16 407.579 3521.96 411.275 3533.22 418.667C3544.47 426.06 3550.13 437.256 3550.13 452.292V452.292ZM3516.88 459.384C3516.88 440.999 3504.67 431.796 3480.26 431.796C3474.16 431.796 3467.71 432.443 3460.93 433.728C3461.88 449.976 3462.35 468.36 3462.35 488.904C3464.5 489.084 3466.99 489.156 3469.82 489.156C3501.19 489.167 3516.88 479.244 3516.88 459.384V459.384ZM3802.91 489.167C3802.91 515.544 3794.83 537.419 3778.67 554.783C3762.5 572.147 3742.52 580.823 3718.73 580.823C3696.04 580.823 3677.04 572.855 3661.75 556.907C3646.46 540.971 3638.81 520.704 3638.81 496.139C3638.81 469.763 3646.88 447.887 3663.05 430.523C3679.21 413.159 3699.19 404.483 3722.99 404.483C3745.68 404.483 3764.68 412.427 3779.96 428.327C3795.25 444.228 3802.91 464.496 3802.91 489.167V489.167ZM3767.33 492.9C3767.33 474.936 3762.73 460.368 3753.54 449.196C3744.35 438.024 3733 432.444 3719.51 432.444C3706.96 432.444 3696.3 438.072 3687.54 449.328C3678.78 460.584 3674.39 474.805 3674.39 492C3674.39 509.868 3679.01 524.412 3688.25 535.633C3697.49 546.853 3708.8 552.457 3722.21 552.457C3734.76 552.457 3745.42 546.805 3754.18 535.501C3762.95 524.208 3767.33 509.999 3767.33 492.9V492.9ZM3977.63 576.18H3945.79C3945.79 572.652 3933.98 554.052 3910.34 520.368C3885.6 484.872 3871.5 460.608 3868.07 447.541H3866C3868.15 466.356 3869.23 483.372 3869.23 498.589C3869.23 519.817 3869.83 545.689 3871.03 576.193H3839.32C3840.6 549.553 3841.25 520.297 3841.25 488.413C3841.25 457.046 3840.6 430.357 3839.32 408.361H3877.6C3877.6 412.921 3888.22 431.101 3909.43 462.889C3932.04 496.657 3945.01 519.565 3948.36 531.601H3950.29C3948.23 512.437 3947.2 495.252 3947.2 480.037C3947.2 456.758 3946.6 432.853 3945.4 408.361H3977.63C3976.42 429.673 3975.83 456.361 3975.83 488.413C3975.83 520.704 3976.43 549.96 3977.63 576.18V576.18Z" fill="#F9F9FA"/>
</g>
<defs>
<linearGradient id="paint0_linear" x1="803.183" y1="386.534" x2="803.183" y2="1746.17" gradientUnits="userSpaceOnUse">
<stop stop-color="#257CB0"/>
<stop offset="0.286" stop-color="#4A93B5"/>
<stop offset="0.767" stop-color="#78BCBB"/>
<stop offset="1" stop-color="#89CFBD"/>
</linearGradient>
<linearGradient id="paint1_linear" x1="460.391" y1="723.962" x2="1330.14" y2="723.962" gradientUnits="userSpaceOnUse">
<stop stop-color="#52C1AD"/>
<stop offset="1" stop-color="#DEE89A"/>
</linearGradient>
<linearGradient id="paint2_linear" x1="895.247" y1="1066.36" x2="895.247" y2="1751.11" gradientUnits="userSpaceOnUse">
<stop stop-color="#EC413D"/>
<stop offset="0.167" stop-color="#DA4452"/>
<stop offset="0.575" stop-color="#B0487A"/>
<stop offset="0.862" stop-color="#954A92"/>
<stop offset="1" stop-color="#8A4A9D"/>
</linearGradient>
<linearGradient id="paint3_linear" x1="1396.2" y1="883.754" x2="1396.2" y2="1248.93" gradientUnits="userSpaceOnUse">
<stop stop-color="#F58879"/>
<stop offset="0.119" stop-color="#F69079"/>
<stop offset="0.713" stop-color="#FCB877"/>
<stop offset="1" stop-color="#FEC874"/>
</linearGradient>
<clipPath id="clip0">
<rect width="6137.76" height="2007.73" fill="white"/>
</clipPath>
</defs>
</svg>
