<svg width="250" height="250" viewBox="0 0 250 250" fill="none" xmlns="http://www.w3.org/2000/svg">
<path d="M167.794 208.73C167.794 210.525 166.954 212.269 165.366 213.893C163.777 215.518 161.456 217.001 158.557 218.255C152.758 220.763 144.719 222.324 135.817 222.324C126.915 222.324 118.875 220.763 113.077 218.255C110.177 217.001 107.857 215.518 106.267 213.893C104.68 212.269 103.84 210.525 103.84 208.73V177.668H167.794V208.73Z" fill="black" stroke="white" stroke-width="0.830565"/>
<path d="M167.794 177.749C167.794 179.436 166.962 181.083 165.374 182.623C163.786 184.163 161.465 185.57 158.564 186.76C152.763 189.14 144.721 190.621 135.817 190.621C126.912 190.621 118.87 189.14 113.07 186.76C110.169 185.57 107.848 184.163 106.259 182.623C104.672 181.083 103.84 179.436 103.84 177.749C103.84 177.21 104.05 176.583 104.482 175.87C104.912 175.16 105.546 174.394 106.352 173.585C107.964 171.968 110.224 170.223 112.798 168.474C117.942 164.978 124.279 161.502 129.035 159.039C133.303 156.828 138.331 156.828 142.599 159.039C147.355 161.502 153.692 164.978 158.836 168.474C161.41 170.223 163.67 171.968 165.282 173.585C166.088 174.394 166.722 175.16 167.152 175.87C167.584 176.583 167.794 177.21 167.794 177.749Z" fill="black" stroke="white" stroke-width="0.830565"/>
<path d="M160.902 176.68C160.902 177.94 160.267 179.183 159.028 180.357C157.788 181.532 155.973 182.609 153.694 183.522C149.14 185.347 142.82 186.486 135.817 186.486C128.815 186.486 122.495 185.347 117.941 183.522C115.662 182.609 113.847 181.532 112.607 180.357C111.368 179.183 110.733 177.94 110.733 176.68C110.733 175.5 111.546 174.508 113.122 173.678C114.692 172.852 116.913 172.247 119.476 171.813C124.594 170.945 130.94 170.776 135.817 170.776C140.695 170.776 147.041 170.945 152.159 171.813C154.722 172.247 156.943 172.852 158.513 173.678C160.089 174.508 160.902 175.5 160.902 176.68Z" fill="black" stroke="white" stroke-width="0.830565"/>
<line x1="135.322" y1="159.273" x2="100.403" y2="34.6165" stroke="white" stroke-width="0.830565"/>
<circle cx="100.103" cy="34.6445" r="2.07641" fill="black" stroke="white" stroke-width="0.830565"/>
<line x1="110.409" y1="84.8128" x2="119.145" y2="79.9595" stroke="black" stroke-width="8.30565"/>
<path d="M104.671 32.6901C128.712 24.4908 228.677 19.9748 114.666 82.0434C71.507 105.54 64.7634 129.589 124.596 115.284C167.334 105.065 153.884 136.023 135.777 158.833" stroke="url(#paint0_linear)" stroke-width="2.49169" stroke-linecap="round"/>
<path d="M119.58 102.77L126.225 126.857" stroke="black" stroke-width="6.64452"/>
<path d="M116.258 91.1424L127.886 132.671" stroke="white" stroke-width="0.830565"/>
<defs>
<linearGradient id="paint0_linear" x1="127.471" y1="28.122" x2="127.471" y2="159.161" gradientUnits="userSpaceOnUse">
<stop stop-color="#00A3FF"/>
<stop offset="0.473958" stop-color="#BB6BD9"/>
<stop offset="1" stop-color="#FF0F57"/>
</linearGradient>
</defs>
</svg>
