<svg width="301" height="244" viewBox="0 0 301 244" fill="none" xmlns="http://www.w3.org/2000/svg">
<path d="M202.5 222.599C202.5 224.76 201.489 226.86 199.578 228.815C197.664 230.772 194.87 232.557 191.379 234.067C184.397 237.086 174.718 238.966 164 238.966C153.282 238.966 143.603 237.086 136.621 234.067C133.13 232.557 130.336 230.772 128.422 228.815C126.511 226.86 125.5 224.76 125.5 222.599V185.2H202.5V222.599Z" fill="black" stroke="white"/>
<path d="M202.5 185.297C202.5 187.329 201.498 189.312 199.587 191.166C197.674 193.021 194.881 194.714 191.387 196.147C184.404 199.012 174.721 200.796 164 200.796C153.279 200.796 143.596 199.012 136.613 196.147C133.119 194.714 130.326 193.021 128.413 191.166C126.502 189.312 125.5 187.329 125.5 185.297C125.5 184.649 125.752 183.894 126.272 183.036C126.79 182.181 127.554 181.258 128.524 180.285C130.465 178.338 133.186 176.237 136.285 174.131C142.478 169.921 150.109 165.737 155.835 162.771C160.973 160.109 167.027 160.109 172.165 162.771C177.891 165.737 185.522 169.921 191.715 174.131C194.814 176.237 197.535 178.338 199.476 180.285C200.446 181.258 201.21 182.181 201.728 183.036C202.248 183.894 202.5 184.649 202.5 185.297Z" fill="black" stroke="white"/>
<path d="M194.202 184.01C194.202 185.528 193.437 187.025 191.945 188.438C190.453 189.852 188.267 191.149 185.524 192.248C180.04 194.446 172.431 195.817 164 195.817C155.569 195.817 147.96 194.446 142.476 192.248C139.733 191.149 137.547 189.852 136.055 188.438C134.563 187.025 133.798 185.528 133.798 184.01C133.798 182.59 134.777 181.396 136.675 180.397C138.565 179.402 141.239 178.674 144.325 178.151C150.487 177.106 158.127 176.902 164 176.902C169.873 176.902 177.513 177.106 183.675 178.151C186.761 178.674 189.435 179.402 191.325 180.397C193.223 181.396 194.202 182.59 194.202 184.01Z" fill="black" stroke="white"/>
<line x1="163.403" y1="163.053" x2="121.361" y2="12.9662" stroke="white"/>
<circle cx="121" cy="13" r="2.5" fill="black" stroke="white"/>
<line x1="133.409" y1="73.4025" x2="143.927" y2="67.5592" stroke="black" stroke-width="10"/>
<path d="M126.5 10.6469C155.445 0.774907 275.803 -4.66233 138.534 70.0682C86.5705 98.3579 78.4512 127.314 150.49 110.09C201.946 97.7867 185.753 135.06 163.951 162.523" stroke="url(#paint0_linear)" stroke-width="3" stroke-linecap="round"/>
<path d="M144.451 95.0234L152.451 124.023" stroke="black" stroke-width="8"/>
<path d="M140.451 81.0234L154.451 131.023" stroke="white"/>
<defs>
<linearGradient id="paint0_linear" x1="153.951" y1="5.14685" x2="153.951" y2="162.918" gradientUnits="userSpaceOnUse">
<stop stop-color="#00A3FF"/>
<stop offset="0.473958" stop-color="#BB6BD9"/>
<stop offset="1" stop-color="#FF0F57"/>
</linearGradient>
</defs>
</svg>
