<svg width="250" height="250" viewBox="0 0 250 250" fill="none" xmlns="http://www.w3.org/2000/svg">
<path d="M145.423 146.924C145.423 148.221 144.816 149.483 143.666 150.659C142.515 151.837 140.833 152.912 138.73 153.821C134.525 155.64 128.693 156.773 122.235 156.773C115.777 156.773 109.945 155.64 105.74 153.821C103.637 152.912 101.955 151.837 100.803 150.659C99.6532 149.483 99.0467 148.221 99.0467 146.924V124.4H145.423V146.924Z" fill="black" stroke="white" stroke-width="0.635294"/>
<path d="M145.423 124.442C145.423 125.661 144.823 126.852 143.673 127.967C142.522 129.084 140.84 130.103 138.736 130.967C134.529 132.692 128.695 133.767 122.235 133.767C115.775 133.767 109.942 132.692 105.735 130.967C103.631 130.103 101.949 129.084 100.798 127.967C99.648 126.852 99.0471 125.661 99.0471 124.442C99.0471 124.061 99.1937 123.615 99.4982 123.108C99.8014 122.602 100.249 122.056 100.819 121.479C101.96 120.324 103.562 119.078 105.393 117.826C109.053 115.322 113.582 112.824 117.046 111.022C120.308 109.326 124.163 109.326 127.424 111.022C130.889 112.824 135.418 115.322 139.077 117.826C140.908 119.078 142.51 120.324 143.651 121.479C144.222 122.056 144.669 122.602 144.972 123.108C145.277 123.615 145.423 124.061 145.423 124.442Z" fill="black" stroke="white" stroke-width="0.635294"/>
<path d="M140.422 123.667C140.422 124.576 139.964 125.473 139.067 126.323C138.169 127.174 136.854 127.954 135.201 128.617C131.899 129.94 127.315 130.766 122.235 130.766C117.155 130.766 112.571 129.94 109.269 128.617C107.616 127.954 106.301 127.174 105.403 126.323C104.506 125.473 104.048 124.576 104.048 123.667C104.048 122.819 104.631 122.104 105.774 121.503C106.91 120.905 108.52 120.466 110.379 120.151C114.092 119.521 118.695 119.399 122.235 119.399C125.775 119.399 130.378 119.521 134.091 120.151C135.95 120.466 137.56 120.905 138.696 121.503C139.839 122.104 140.422 122.819 140.422 123.667Z" fill="black" stroke="white" stroke-width="0.635294"/>
<path d="M167.023 194.559C167.023 200.306 162.06 205.606 153.808 209.488C145.582 213.358 134.195 215.761 121.6 215.761C109.005 215.761 97.6174 213.358 89.3909 209.488C81.1395 205.606 76.176 200.306 76.176 194.559V187.172H167.023V194.559Z" fill="black" stroke="white" stroke-width="0.635294"/>
<path d="M167.023 187.172C167.023 192.852 162.062 198.093 153.809 201.933C145.583 205.761 134.195 208.137 121.6 208.137C109.004 208.137 97.6165 205.761 89.3897 201.933C81.1367 198.093 76.176 192.852 76.176 187.172C76.176 181.493 81.1367 176.252 89.3897 172.412C97.6165 168.584 109.004 166.208 121.6 166.208C134.195 166.208 145.583 168.584 153.809 172.412C162.062 176.252 167.023 181.493 167.023 187.172Z" fill="black" stroke="white" stroke-width="0.635294"/>
<path d="M130.176 187.172C130.176 188.115 129.34 189.068 127.755 189.804C126.196 190.528 124.02 190.984 121.6 190.984C119.179 190.984 117.003 190.528 115.444 189.804C113.859 189.068 113.023 188.115 113.023 187.172C113.023 186.23 113.859 185.277 115.444 184.541C117.003 183.817 119.179 183.361 121.6 183.361C124.02 183.361 126.196 183.817 127.755 184.541C129.34 185.277 130.176 186.23 130.176 187.172Z" fill="black" stroke="white" stroke-width="0.635294"/>
<rect x="54.5764" y="31.447" width="141.035" height="8.25882" stroke="url(#paint0_linear)" stroke-width="0.635294"/>
<rect x="74.906" y="0.317647" width="13.3412" height="70.5176" rx="2.22353" fill="black" stroke="white" stroke-width="0.635294"/>
<rect x="62.2" y="27.6353" width="12.7059" height="15.8824" rx="0.952941" fill="black" stroke="white" stroke-width="0.635294"/>
<line x1="121.918" y1="112.129" x2="121.918" y2="79.0941" stroke="white" stroke-width="0.635294" stroke-linecap="round"/>
<path d="M117.153 71.1529C117.153 70.4512 117.722 69.8823 118.423 69.8823H125.412C126.113 69.8823 126.682 70.4512 126.682 71.1529V72.4235H117.153V71.1529Z" fill="white"/>
<path d="M117.153 76.2354H126.682V77.5059C126.682 78.2077 126.113 78.7765 125.412 78.7765H118.423C117.722 78.7765 117.153 78.2077 117.153 77.5059V76.2354Z" fill="white"/>
<rect x="117.153" y="73.6941" width="2.54118" height="3.81176" fill="white"/>
<rect x="124.141" y="73.6941" width="2.54118" height="3.81176" fill="white"/>
<path d="M121.918 62.2589V49.553M121.918 49.553L118.741 52.7294M121.918 49.553L125.094 52.7294" stroke="url(#paint1_linear)" stroke-width="1.90588" stroke-linecap="round"/>
<path d="M121.918 169.623L121.918 182.329M121.918 182.329L125.094 179.153M121.918 182.329L118.741 179.153" stroke="black" stroke-width="5.08235" stroke-linecap="round"/>
<path d="M106.989 165.176L106.989 177.882M106.989 177.882L110.165 174.706M106.989 177.882L103.812 174.706" stroke="black" stroke-width="5.08235" stroke-linecap="round"/>
<path d="M136.847 165.176L136.847 177.882M136.847 177.882L140.024 174.706M136.847 177.882L133.671 174.706" stroke="black" stroke-width="5.08235" stroke-linecap="round"/>
<path d="M121.918 169.623L121.918 182.329M121.918 182.329L125.094 179.153M121.918 182.329L118.741 179.153" stroke="url(#paint2_linear)" stroke-width="1.90588" stroke-linecap="round"/>
<path d="M106.989 165.176L106.989 177.882M106.989 177.882L110.165 174.706M106.989 177.882L103.812 174.706" stroke="url(#paint3_linear)" stroke-width="1.90588" stroke-linecap="round"/>
<path d="M136.847 165.176L136.847 177.882M136.847 177.882L140.024 174.706M136.847 177.882L133.671 174.706" stroke="url(#paint4_linear)" stroke-width="1.90588" stroke-linecap="round"/>
<defs>
<linearGradient id="paint0_linear" x1="55.9588" y1="35.5765" x2="169.295" y2="35.5765" gradientUnits="userSpaceOnUse">
<stop offset="0.702989" stop-color="white"/>
<stop offset="1" stop-color="white" stop-opacity="0"/>
</linearGradient>
<linearGradient id="paint1_linear" x1="121.918" y1="49.553" x2="121.918" y2="66.0706" gradientUnits="userSpaceOnUse">
<stop stop-color="#FF0F57"/>
<stop offset="0.463542" stop-color="#BB6BD9"/>
<stop offset="1" stop-color="#2BB2FF"/>
</linearGradient>
<linearGradient id="paint2_linear" x1="121.918" y1="182.329" x2="121.918" y2="165.812" gradientUnits="userSpaceOnUse">
<stop stop-color="#FF0F57"/>
<stop offset="0.463542" stop-color="#BB6BD9"/>
<stop offset="1" stop-color="#2BB2FF"/>
</linearGradient>
<linearGradient id="paint3_linear" x1="106.989" y1="177.882" x2="106.989" y2="161.365" gradientUnits="userSpaceOnUse">
<stop stop-color="#FF0F57"/>
<stop offset="0.463542" stop-color="#BB6BD9"/>
<stop offset="1" stop-color="#2BB2FF"/>
</linearGradient>
<linearGradient id="paint4_linear" x1="136.847" y1="177.882" x2="136.847" y2="161.365" gradientUnits="userSpaceOnUse">
<stop stop-color="#FF0F57"/>
<stop offset="0.463542" stop-color="#BB6BD9"/>
<stop offset="1" stop-color="#2BB2FF"/>
</linearGradient>
</defs>
</svg>
