<svg width="250" height="250" viewBox="0 0 250 250" fill="none" xmlns="http://www.w3.org/2000/svg">
<path d="M59.97 23.4356H190.657C194.265 23.4356 197.191 26.3611 197.191 29.97V119.708C197.191 123.317 194.265 126.242 190.657 126.242H118.779C114.689 126.242 111.373 129.558 111.373 133.648V141.079C111.373 142.798 109.474 143.84 108.024 142.915L83.6996 127.404C82.5101 126.645 81.1287 126.242 79.7179 126.242H59.97C56.3611 126.242 53.4356 123.317 53.4356 119.708V29.97C53.4356 26.3611 56.3611 23.4356 59.97 23.4356Z" stroke="white" stroke-width="0.871245"/>
<line x1="53.8711" y1="64.3841" x2="196.755" y2="64.3841" stroke="white" stroke-width="0.871245" stroke-dasharray="1.74 1.74"/>
<path d="M132.21 42.4679H130.594V46.8412H127.607V34.4532H132.483C133.952 34.4532 135.1 34.7793 135.928 35.4316C136.757 36.0839 137.171 37.0057 137.171 38.1968C137.171 39.059 136.995 39.7737 136.643 40.3409C136.297 40.9081 135.753 41.3675 135.01 41.7192L137.596 46.7136V46.8412H134.397L132.21 42.4679ZM130.594 40.1622H132.483C133.05 40.1622 133.475 40.0147 133.759 39.7198C134.048 39.4192 134.193 39.0023 134.193 38.4691C134.193 37.9359 134.048 37.519 133.759 37.2184C133.47 36.9121 133.044 36.7589 132.483 36.7589H130.594V40.1622ZM146.657 41.5916H141.961V44.544H147.508V46.8412H138.974V34.4532H147.525V36.7589H141.961V39.3709H146.657V41.5916ZM151.711 42.6381V46.8412H148.725V34.4532H153.668C154.615 34.4532 155.452 34.629 156.178 34.9807C156.91 35.3267 157.474 35.823 157.871 36.4696C158.274 37.1106 158.475 37.8395 158.475 38.6563C158.475 39.8644 158.041 40.8315 157.174 41.5576C156.311 42.2779 155.126 42.6381 153.617 42.6381H151.711ZM151.711 40.3324H153.668C154.247 40.3324 154.686 40.1877 154.987 39.8985C155.293 39.6092 155.446 39.2008 155.446 38.6733C155.446 38.0947 155.29 37.6324 154.978 37.2864C154.666 36.9404 154.241 36.7646 153.702 36.7589H151.711V40.3324ZM171.161 34.2745V36.5292H171.034C169.961 36.5292 169.079 36.7873 168.387 37.3034C167.701 37.8139 167.279 38.5258 167.12 39.439C167.766 38.8037 168.583 38.4861 169.57 38.4861C170.642 38.4861 171.496 38.8775 172.131 39.6602C172.766 40.443 173.084 41.4696 173.084 42.7402C173.084 43.5286 172.897 44.2518 172.522 44.9098C172.154 45.5678 171.635 46.084 170.965 46.4583C170.302 46.827 169.564 47.0114 168.753 47.0114C167.874 47.0114 167.089 46.8128 166.397 46.4158C165.705 46.0131 165.166 45.4402 164.78 44.6971C164.394 43.9541 164.196 43.0976 164.184 42.1276V40.979C164.184 39.7028 164.457 38.557 165.001 37.5417C165.551 36.5207 166.334 35.7209 167.349 35.1423C168.365 34.5638 169.491 34.2745 170.727 34.2745H171.161ZM168.575 40.6812C168.195 40.6812 167.877 40.7691 167.622 40.945C167.366 41.1208 167.176 41.3363 167.052 41.5916V42.4509C167.052 44.0164 167.593 44.7992 168.677 44.7992C169.114 44.7992 169.477 44.6035 169.766 44.2121C170.061 43.8208 170.208 43.3301 170.208 42.7402C170.208 42.1333 170.058 41.6398 169.757 41.2598C169.462 40.8741 169.068 40.6812 168.575 40.6812ZM175.356 47.9047H173.322L177.551 34.4532H179.593L175.356 47.9047ZM188.807 37.7629C188.807 38.3641 188.657 38.8945 188.356 39.3539C188.061 39.8134 187.653 40.1821 187.131 40.46C187.721 40.7493 188.189 41.1463 188.535 41.6512C188.881 42.1503 189.054 42.743 189.054 43.4294C189.054 44.5355 188.671 45.409 187.905 46.0499C187.145 46.6909 186.096 47.0114 184.757 47.0114C183.413 47.0114 182.352 46.6909 181.575 46.0499C180.798 45.4033 180.41 44.5298 180.41 43.4294C180.41 42.7657 180.58 42.1787 180.92 41.6682C181.26 41.1577 181.743 40.755 182.367 40.46C181.839 40.1821 181.425 39.8134 181.124 39.3539C180.824 38.8945 180.673 38.3641 180.673 37.7629C180.673 36.6852 181.039 35.8343 181.771 35.2104C182.503 34.5865 183.49 34.2745 184.732 34.2745C185.985 34.2745 186.978 34.5865 187.71 35.2104C188.441 35.8343 188.807 36.6852 188.807 37.7629ZM186.178 43.1997C186.178 42.6892 186.045 42.2978 185.778 42.0255C185.517 41.7476 185.171 41.6086 184.74 41.6086C184.309 41.6086 183.96 41.7476 183.694 42.0255C183.427 42.2978 183.294 42.6892 183.294 43.1997C183.294 43.6931 183.427 44.0845 183.694 44.3738C183.966 44.6574 184.321 44.7992 184.757 44.7992C185.183 44.7992 185.526 44.6574 185.787 44.3738C186.048 44.0902 186.178 43.6988 186.178 43.1997ZM184.732 36.4866C184.346 36.4866 184.051 36.6143 183.847 36.8695C183.648 37.1191 183.549 37.4679 183.549 37.916C183.549 38.3585 183.651 38.7158 183.855 38.9881C184.06 39.2603 184.36 39.3965 184.757 39.3965C185.149 39.3965 185.441 39.2603 185.634 38.9881C185.832 38.7158 185.931 38.3585 185.931 37.916C185.931 37.4736 185.829 37.1248 185.625 36.8695C185.427 36.6143 185.129 36.4866 184.732 36.4866Z" fill="white"/>
<path d="M67.811 61.3347C67.811 58.9289 69.7614 56.9785 72.1673 56.9785C74.5731 56.9785 76.5235 58.9289 76.5235 61.3347V105.768C76.5235 108.174 74.5731 110.124 72.1673 110.124C69.7614 110.124 67.811 108.174 67.811 105.768V61.3347Z" fill="url(#paint0_linear)"/>
<path d="M82.6222 56.1073C82.6222 53.7014 84.5725 51.751 86.9784 51.751C89.3843 51.751 91.3346 53.7014 91.3346 56.1073V105.768C91.3346 108.174 89.3843 110.124 86.9784 110.124C84.5725 110.124 82.6222 108.174 82.6222 105.768V56.1073Z" fill="url(#paint1_linear)"/>
<path d="M96.5621 60.0279C96.5621 57.3814 98.7075 55.236 101.354 55.236C104 55.236 106.146 57.3814 106.146 60.0279V105.333C106.146 107.979 104 110.124 101.354 110.124C98.7075 110.124 96.5621 107.979 96.5621 105.333V60.0279Z" fill="url(#paint2_linear)"/>
<path d="M111.373 66.1266C111.373 63.4801 113.519 61.3347 116.165 61.3347C118.812 61.3347 120.957 63.4801 120.957 66.1266V105.333C120.957 107.979 118.812 110.124 116.165 110.124C113.519 110.124 111.373 107.979 111.373 105.333V66.1266Z" fill="url(#paint3_linear)"/>
<path d="M126.184 72.2253C126.184 69.5788 128.33 67.4334 130.976 67.4334C133.623 67.4334 135.768 69.5788 135.768 72.2253V105.333C135.768 107.979 133.623 110.124 130.976 110.124C128.33 110.124 126.184 107.979 126.184 105.333V72.2253Z" fill="url(#paint4_linear)"/>
<path d="M140.996 80.9377C140.996 78.2913 143.141 76.1459 145.787 76.1459C148.434 76.1459 150.579 78.2913 150.579 80.9377V105.333C150.579 107.979 148.434 110.124 145.787 110.124C143.141 110.124 140.996 107.979 140.996 105.333V80.9377Z" fill="url(#paint5_linear)"/>
<path d="M157.549 105.768C157.549 103.844 159.11 102.283 161.034 102.283C162.959 102.283 164.519 103.844 164.519 105.768C164.519 107.693 162.959 109.253 161.034 109.253C159.11 109.253 157.549 107.693 157.549 105.768Z" stroke="#FF0F57" stroke-width="1.74249"/>
<path d="M172.361 105.768C172.361 103.844 173.921 102.283 175.845 102.283C177.77 102.283 179.33 103.844 179.33 105.768C179.33 107.693 177.77 109.253 175.845 109.253C173.921 109.253 172.361 107.693 172.361 105.768Z" stroke="#FF0F57" stroke-width="1.74249"/>
<path d="M158.856 211.583C158.856 213.466 157.976 215.295 156.31 216.998C154.643 218.703 152.209 220.258 149.167 221.574C143.085 224.205 134.651 225.843 125.314 225.843C115.976 225.843 107.542 224.205 101.46 221.574C98.418 220.258 95.984 218.703 94.3166 216.998C92.6512 215.295 91.7706 213.466 91.7706 211.583V178.999H158.856V211.583Z" fill="black" stroke="white" stroke-width="0.871245"/>
<path d="M158.856 179.084C158.856 180.854 157.984 182.582 156.319 184.197C154.652 185.813 152.218 187.288 149.175 188.537C143.09 191.033 134.654 192.587 125.314 192.587C115.973 192.587 107.537 191.033 101.452 188.537C98.409 187.288 95.9749 185.813 94.3084 184.197C92.6433 182.582 91.7706 180.854 91.7706 179.084C91.7706 178.519 91.9904 177.861 92.4436 177.113C92.8949 176.369 93.5598 175.565 94.4053 174.717C96.0964 173.02 98.4672 171.19 101.167 169.355C106.563 165.687 113.211 162.042 118.199 159.458C122.676 157.138 127.951 157.138 132.428 159.458C137.416 162.042 144.064 165.687 149.46 169.355C152.16 171.19 154.531 173.02 156.222 174.717C157.067 175.565 157.732 176.369 158.183 177.113C158.637 177.861 158.856 178.519 158.856 179.084Z" fill="black" stroke="white" stroke-width="0.871245"/>
<path d="M151.627 177.963C151.627 179.285 150.961 180.589 149.661 181.82C148.361 183.052 146.456 184.182 144.066 185.14C139.289 187.055 132.659 188.249 125.314 188.249C117.969 188.249 111.339 187.055 106.562 185.14C104.172 184.182 102.267 183.052 100.967 181.82C99.6674 180.589 99.0006 179.285 99.0006 177.963C99.0006 176.725 99.8534 175.685 101.507 174.814C103.154 173.947 105.484 173.313 108.172 172.857C113.541 171.947 120.197 171.77 125.314 171.77C130.431 171.77 137.087 171.947 142.456 172.857C145.144 173.313 147.474 173.947 149.121 174.814C150.775 175.685 151.627 176.725 151.627 177.963Z" fill="black" stroke="white" stroke-width="0.871245"/>
<defs>
<linearGradient id="paint0_linear" x1="109.195" y1="110.124" x2="109.195" y2="64.8197" gradientUnits="userSpaceOnUse">
<stop stop-color="#FF0F57"/>
<stop offset="0.498396" stop-color="#BB6BD9"/>
<stop offset="1" stop-color="#2BB2FF"/>
</linearGradient>
<linearGradient id="paint1_linear" x1="109.195" y1="110.124" x2="109.195" y2="64.8197" gradientUnits="userSpaceOnUse">
<stop stop-color="#FF0F57"/>
<stop offset="0.498396" stop-color="#BB6BD9"/>
<stop offset="1" stop-color="#2BB2FF"/>
</linearGradient>
<linearGradient id="paint2_linear" x1="109.195" y1="110.124" x2="109.195" y2="64.8197" gradientUnits="userSpaceOnUse">
<stop stop-color="#FF0F57"/>
<stop offset="0.498396" stop-color="#BB6BD9"/>
<stop offset="1" stop-color="#2BB2FF"/>
</linearGradient>
<linearGradient id="paint3_linear" x1="109.195" y1="110.124" x2="109.195" y2="64.8197" gradientUnits="userSpaceOnUse">
<stop stop-color="#FF0F57"/>
<stop offset="0.498396" stop-color="#BB6BD9"/>
<stop offset="1" stop-color="#2BB2FF"/>
</linearGradient>
<linearGradient id="paint4_linear" x1="109.195" y1="110.124" x2="109.195" y2="64.8197" gradientUnits="userSpaceOnUse">
<stop stop-color="#FF0F57"/>
<stop offset="0.498396" stop-color="#BB6BD9"/>
<stop offset="1" stop-color="#2BB2FF"/>
</linearGradient>
<linearGradient id="paint5_linear" x1="109.195" y1="110.124" x2="109.195" y2="64.8197" gradientUnits="userSpaceOnUse">
<stop stop-color="#FF0F57"/>
<stop offset="0.498396" stop-color="#BB6BD9"/>
<stop offset="1" stop-color="#2BB2FF"/>
</linearGradient>
</defs>
</svg>
