<svg width="302" height="233" viewBox="0 0 302 233" fill="none" xmlns="http://www.w3.org/2000/svg">
<g clip-path="url(#clip0)">
<path d="M76 0.5H226C230.142 0.5 233.5 3.85787 233.5 8V111C233.5 115.142 230.142 118.5 226 118.5H143.5C138.806 118.5 135 122.306 135 127V135.529C135 137.503 132.82 138.698 131.156 137.637L103.236 119.833C101.871 118.963 100.286 118.5 98.6663 118.5H76C71.8579 118.5 68.5 115.142 68.5 111V8C68.5 3.85786 71.8579 0.5 76 0.5Z" stroke="white"/>
<line x1="69" y1="47.5" x2="233" y2="47.5" stroke="white" stroke-dasharray="2 2"/>
<path d="M158.916 22.9805H157.061V28H153.633V13.7812H159.229C160.915 13.7812 162.233 14.1556 163.184 14.9043C164.134 15.653 164.609 16.7109 164.609 18.0781C164.609 19.0677 164.408 19.888 164.004 20.5391C163.607 21.1901 162.982 21.7174 162.129 22.1211L165.098 27.8535V28H161.426L158.916 22.9805ZM157.061 20.334H159.229C159.88 20.334 160.368 20.1647 160.693 19.8262C161.025 19.4811 161.191 19.0026 161.191 18.3906C161.191 17.7786 161.025 17.3001 160.693 16.9551C160.361 16.6035 159.873 16.4277 159.229 16.4277H157.061V20.334ZM175.498 21.9746H170.107V25.3633H176.475V28H166.68V13.7812H176.494V16.4277H170.107V19.4258H175.498V21.9746ZM181.299 23.1758V28H177.871V13.7812H183.545C184.632 13.7812 185.592 13.9831 186.426 14.3867C187.266 14.7839 187.913 15.3535 188.369 16.0957C188.831 16.8314 189.062 17.668 189.062 18.6055C189.062 19.9922 188.564 21.1022 187.568 21.9355C186.579 22.7624 185.218 23.1758 183.486 23.1758H181.299ZM181.299 20.5293H183.545C184.209 20.5293 184.714 20.3633 185.059 20.0312C185.41 19.6992 185.586 19.2305 185.586 18.625C185.586 17.9609 185.407 17.4303 185.049 17.0332C184.691 16.6361 184.202 16.4342 183.584 16.4277H181.299V20.5293ZM203.623 13.5762V16.1641H203.477C202.246 16.1641 201.234 16.4603 200.439 17.0527C199.652 17.6387 199.167 18.4557 198.984 19.5039C199.727 18.7747 200.664 18.4102 201.797 18.4102C203.027 18.4102 204.007 18.8594 204.736 19.7578C205.465 20.6562 205.83 21.8346 205.83 23.293C205.83 24.1979 205.615 25.028 205.186 25.7832C204.762 26.5384 204.167 27.1309 203.398 27.5605C202.637 27.9837 201.79 28.1953 200.859 28.1953C199.85 28.1953 198.949 27.9674 198.154 27.5117C197.36 27.0495 196.742 26.3919 196.299 25.5391C195.856 24.6862 195.628 23.7031 195.615 22.5898V21.2715C195.615 19.8066 195.928 18.4915 196.553 17.3262C197.184 16.1543 198.083 15.2363 199.248 14.5723C200.413 13.9082 201.706 13.5762 203.125 13.5762H203.623ZM200.654 20.9297C200.218 20.9297 199.854 21.0306 199.561 21.2324C199.268 21.4342 199.049 21.6816 198.906 21.9746V22.9609C198.906 24.7578 199.528 25.6562 200.771 25.6562C201.273 25.6562 201.689 25.4316 202.021 24.9824C202.36 24.5332 202.529 23.9701 202.529 23.293C202.529 22.5964 202.357 22.0299 202.012 21.5938C201.673 21.151 201.221 20.9297 200.654 20.9297ZM208.438 29.2207H206.104L210.957 13.7812H213.301L208.438 29.2207ZM223.877 17.5801C223.877 18.2702 223.704 18.8789 223.359 19.4062C223.021 19.9336 222.552 20.3568 221.953 20.6758C222.63 21.0078 223.167 21.4635 223.564 22.043C223.962 22.6159 224.16 23.2962 224.16 24.084C224.16 25.3535 223.721 26.3561 222.842 27.0918C221.969 27.8275 220.765 28.1953 219.229 28.1953C217.686 28.1953 216.468 27.8275 215.576 27.0918C214.684 26.3496 214.238 25.347 214.238 24.084C214.238 23.3223 214.434 22.6484 214.824 22.0625C215.215 21.4766 215.768 21.0143 216.484 20.6758C215.879 20.3568 215.404 19.9336 215.059 19.4062C214.714 18.8789 214.541 18.2702 214.541 17.5801C214.541 16.3431 214.961 15.3665 215.801 14.6504C216.641 13.9342 217.773 13.5762 219.199 13.5762C220.638 13.5762 221.777 13.9342 222.617 14.6504C223.457 15.3665 223.877 16.3431 223.877 17.5801ZM220.859 23.8203C220.859 23.2344 220.706 22.7852 220.4 22.4727C220.101 22.1536 219.704 21.9941 219.209 21.9941C218.714 21.9941 218.314 22.1536 218.008 22.4727C217.702 22.7852 217.549 23.2344 217.549 23.8203C217.549 24.3867 217.702 24.8359 218.008 25.168C218.32 25.4935 218.727 25.6562 219.229 25.6562C219.717 25.6562 220.111 25.4935 220.41 25.168C220.71 24.8424 220.859 24.3932 220.859 23.8203ZM219.199 16.1152C218.757 16.1152 218.418 16.2617 218.184 16.5547C217.956 16.8411 217.842 17.2415 217.842 17.7559C217.842 18.2637 217.959 18.6738 218.193 18.9863C218.428 19.2988 218.773 19.4551 219.229 19.4551C219.678 19.4551 220.013 19.2988 220.234 18.9863C220.462 18.6738 220.576 18.2637 220.576 17.7559C220.576 17.248 220.459 16.8477 220.225 16.5547C219.997 16.2617 219.655 16.1152 219.199 16.1152Z" fill="white"/>
<path d="M85 44C85 41.2386 87.2386 39 90 39C92.7614 39 95 41.2386 95 44V95C95 97.7614 92.7614 100 90 100C87.2386 100 85 97.7614 85 95V44Z" fill="url(#paint0_linear)"/>
<path d="M102 38C102 35.2386 104.239 33 107 33C109.761 33 112 35.2386 112 38V95C112 97.7614 109.761 100 107 100C104.239 100 102 97.7614 102 95V38Z" fill="url(#paint1_linear)"/>
<path d="M118 42.5C118 39.4624 120.462 37 123.5 37C126.538 37 129 39.4624 129 42.5V94.5C129 97.5376 126.538 100 123.5 100C120.462 100 118 97.5376 118 94.5V42.5Z" fill="url(#paint2_linear)"/>
<path d="M135 49.5C135 46.4624 137.462 44 140.5 44C143.538 44 146 46.4624 146 49.5V94.5C146 97.5376 143.538 100 140.5 100C137.462 100 135 97.5376 135 94.5V49.5Z" fill="url(#paint3_linear)"/>
<path d="M152 56.5C152 53.4624 154.462 51 157.5 51C160.538 51 163 53.4624 163 56.5V94.5C163 97.5376 160.538 100 157.5 100C154.462 100 152 97.5376 152 94.5V56.5Z" fill="url(#paint4_linear)"/>
<path d="M169 66.5C169 63.4624 171.462 61 174.5 61C177.538 61 180 63.4624 180 66.5V94.5C180 97.5376 177.538 100 174.5 100C171.462 100 169 97.5376 169 94.5V66.5Z" fill="url(#paint5_linear)"/>
<path d="M188 95C188 92.7909 189.791 91 192 91C194.209 91 196 92.7909 196 95C196 97.2091 194.209 99 192 99C189.791 99 188 97.2091 188 95Z" stroke="#FF0F57" stroke-width="2"/>
<path d="M205 95C205 92.7909 206.791 91 209 91C211.209 91 213 92.7909 213 95C213 97.2091 211.209 99 209 99C206.791 99 205 97.2091 205 95Z" stroke="#FF0F57" stroke-width="2"/>
<path d="M189.5 216.452C189.5 218.613 188.489 220.713 186.578 222.668C184.664 224.625 181.87 226.41 178.379 227.92C171.397 230.939 161.718 232.819 151 232.819C140.282 232.819 130.603 230.939 123.621 227.92C120.13 226.41 117.336 224.625 115.422 222.668C113.511 220.713 112.5 218.613 112.5 216.452V179.053H189.5V216.452Z" fill="black" stroke="white"/>
<path d="M189.5 179.15C189.5 181.182 188.498 183.165 186.587 185.019C184.674 186.874 181.881 188.568 178.387 190C171.404 192.865 161.721 194.649 151 194.649C140.279 194.649 130.596 192.865 123.613 190C120.119 188.568 117.326 186.874 115.413 185.019C113.502 183.165 112.5 181.182 112.5 179.15C112.5 178.502 112.752 177.747 113.272 176.889C113.79 176.034 114.554 175.111 115.524 174.138C117.465 172.191 120.186 170.09 123.285 167.984C129.478 163.774 137.109 159.59 142.835 156.624C147.973 153.962 154.027 153.962 159.165 156.624C164.891 159.59 172.522 163.774 178.715 167.984C181.814 170.09 184.535 172.191 186.476 174.138C187.446 175.111 188.21 176.034 188.728 176.889C189.248 177.747 189.5 178.502 189.5 179.15Z" fill="black" stroke="white"/>
<path d="M181.202 177.864C181.202 179.381 180.437 180.878 178.945 182.291C177.453 183.705 175.267 185.002 172.524 186.102C167.04 188.3 159.431 189.67 151 189.67C142.569 189.67 134.96 188.3 129.476 186.102C126.733 185.002 124.547 183.705 123.055 182.291C121.563 180.878 120.798 179.381 120.798 177.864C120.798 176.443 121.777 175.249 123.675 174.25C125.565 173.255 128.239 172.527 131.325 172.004C137.487 170.959 145.127 170.755 151 170.755C156.873 170.755 164.513 170.959 170.675 172.004C173.761 172.527 176.435 173.255 178.325 174.25C180.223 175.249 181.202 176.443 181.202 177.864Z" fill="black" stroke="white"/>
</g>
<defs>
<linearGradient id="paint0_linear" x1="132.5" y1="100" x2="132.5" y2="48" gradientUnits="userSpaceOnUse">
<stop stop-color="#FF0F57"/>
<stop offset="0.498396" stop-color="#BB6BD9"/>
<stop offset="1" stop-color="#2BB2FF"/>
</linearGradient>
<linearGradient id="paint1_linear" x1="132.5" y1="100" x2="132.5" y2="48" gradientUnits="userSpaceOnUse">
<stop stop-color="#FF0F57"/>
<stop offset="0.498396" stop-color="#BB6BD9"/>
<stop offset="1" stop-color="#2BB2FF"/>
</linearGradient>
<linearGradient id="paint2_linear" x1="132.5" y1="100" x2="132.5" y2="48" gradientUnits="userSpaceOnUse">
<stop stop-color="#FF0F57"/>
<stop offset="0.498396" stop-color="#BB6BD9"/>
<stop offset="1" stop-color="#2BB2FF"/>
</linearGradient>
<linearGradient id="paint3_linear" x1="132.5" y1="100" x2="132.5" y2="48" gradientUnits="userSpaceOnUse">
<stop stop-color="#FF0F57"/>
<stop offset="0.498396" stop-color="#BB6BD9"/>
<stop offset="1" stop-color="#2BB2FF"/>
</linearGradient>
<linearGradient id="paint4_linear" x1="132.5" y1="100" x2="132.5" y2="48" gradientUnits="userSpaceOnUse">
<stop stop-color="#FF0F57"/>
<stop offset="0.498396" stop-color="#BB6BD9"/>
<stop offset="1" stop-color="#2BB2FF"/>
</linearGradient>
<linearGradient id="paint5_linear" x1="132.5" y1="100" x2="132.5" y2="48" gradientUnits="userSpaceOnUse">
<stop stop-color="#FF0F57"/>
<stop offset="0.498396" stop-color="#BB6BD9"/>
<stop offset="1" stop-color="#2BB2FF"/>
</linearGradient>
<clipPath id="clip0">
<rect width="302" height="233" fill="white"/>
</clipPath>
</defs>
</svg>
