<svg width="285" height="104" viewBox="0 0 285 104" fill="none" xmlns="http://www.w3.org/2000/svg">
<path d="M95.4453 65.9961C95.4453 64.6367 94.8711 63.5469 93.7227 62.7266C92.5742 61.9062 90.6172 61.168 87.8516 60.5117C85.0859 59.8555 82.7539 59.1641 80.8555 58.4375C78.9805 57.6875 77.4336 56.8086 76.2148 55.8008C74.9961 54.793 74.0938 53.6328 73.5078 52.3203C72.9219 50.9844 72.6289 49.4023 72.6289 47.5742C72.6289 44.3633 73.8594 41.6562 76.3203 39.4531C78.8047 37.25 82.1094 35.9609 86.2344 35.5859V27.957H91.8594V35.6914C96.0312 36.2305 99.3008 37.6133 101.668 39.8398C104.035 42.0664 105.219 44.8789 105.219 48.2773H95.0586C95.0586 46.7773 94.4492 45.5234 93.2305 44.5156C92.0352 43.5078 90.418 43.0039 88.3789 43.0039C86.5742 43.0039 85.1094 43.4023 83.9844 44.1992C82.8594 44.9961 82.2969 45.9922 82.2969 47.1875C82.2969 48.3828 82.8828 49.3555 84.0547 50.1055C85.2266 50.832 87.1719 51.5352 89.8906 52.2148C95.3516 53.4102 99.2539 55.0625 101.598 57.1719C103.965 59.2812 105.148 62.1289 105.148 65.7148C105.148 69.0664 103.953 71.7617 101.562 73.8008C99.1953 75.8398 95.9609 77.0469 91.8594 77.4219V85.332H86.2344V77.4219C81.5938 76.9766 77.9258 75.5703 75.2305 73.2031C72.5586 70.8125 71.2227 67.7305 71.2227 63.957H81.418C81.418 66.1367 82.0859 67.707 83.4219 68.668C84.7812 69.6289 86.8086 70.1094 89.5039 70.1094C91.332 70.1094 92.7734 69.7344 93.8281 68.9844C94.9062 68.2344 95.4453 67.2383 95.4453 65.9961Z" fill="url(#paint0_linear)"/>
<path d="M121.602 46.9062H127.016C129.594 46.9062 131.504 46.2617 132.746 44.9727C133.988 43.6836 134.609 41.9727 134.609 39.8398C134.609 37.7773 133.988 36.1719 132.746 35.0234C131.527 33.875 129.84 33.3008 127.684 33.3008C125.738 33.3008 124.109 33.8398 122.797 34.918C121.484 35.9727 120.828 37.3555 120.828 39.0664H110.668C110.668 36.3945 111.383 34.0039 112.812 31.8945C114.266 29.7617 116.281 28.0977 118.859 26.9023C121.461 25.707 124.32 25.1094 127.438 25.1094C132.852 25.1094 137.094 26.4102 140.164 29.0117C143.234 31.5898 144.77 35.1523 144.77 39.6992C144.77 42.043 144.055 44.1992 142.625 46.168C141.195 48.1367 139.32 49.6484 137 50.7031C139.883 51.7344 142.027 53.2812 143.434 55.3438C144.863 57.4062 145.578 59.8438 145.578 62.6562C145.578 67.2031 143.914 70.8477 140.586 73.5898C137.281 76.332 132.898 77.7031 127.438 77.7031C122.328 77.7031 118.145 76.3555 114.887 73.6602C111.652 70.9648 110.035 67.4023 110.035 62.9727H120.195C120.195 64.8945 120.91 66.4648 122.34 67.6836C123.793 68.9023 125.574 69.5117 127.684 69.5117C130.098 69.5117 131.984 68.8789 133.344 67.6133C134.727 66.3242 135.418 64.625 135.418 62.5156C135.418 57.4062 132.605 54.8516 126.98 54.8516H121.602V46.9062Z" fill="url(#paint1_linear)"/>
<path d="M176.375 56.5391C173.727 59.1406 170.633 60.4414 167.094 60.4414C162.57 60.4414 158.949 58.8945 156.23 55.8008C153.512 52.6836 152.152 48.4883 152.152 43.2148C152.152 39.8633 152.879 36.793 154.332 34.0039C155.809 31.1914 157.859 29.0117 160.484 27.4648C163.109 25.8945 166.062 25.1094 169.344 25.1094C172.719 25.1094 175.719 25.9531 178.344 27.6406C180.969 29.3281 183.008 31.7539 184.461 34.918C185.914 38.082 186.652 41.7031 186.676 45.7812V49.543C186.676 58.0742 184.555 64.7773 180.312 69.6523C176.07 74.5273 170.059 77.1289 162.277 77.457L159.781 77.4922V69.0195L162.031 68.9844C170.867 68.5859 175.648 64.4375 176.375 56.5391ZM169.59 52.6719C171.23 52.6719 172.637 52.25 173.809 51.4062C175.004 50.5625 175.906 49.543 176.516 48.3477V44.1641C176.516 40.7188 175.859 38.0469 174.547 36.1484C173.234 34.25 171.477 33.3008 169.273 33.3008C167.234 33.3008 165.559 34.2383 164.246 36.1133C162.934 37.9648 162.277 40.2969 162.277 43.1094C162.277 45.8984 162.91 48.1953 164.176 50C165.465 51.7812 167.27 52.6719 169.59 52.6719Z" fill="url(#paint2_linear)"/>
<path d="M217.719 56.5391C215.07 59.1406 211.977 60.4414 208.438 60.4414C203.914 60.4414 200.293 58.8945 197.574 55.8008C194.855 52.6836 193.496 48.4883 193.496 43.2148C193.496 39.8633 194.223 36.793 195.676 34.0039C197.152 31.1914 199.203 29.0117 201.828 27.4648C204.453 25.8945 207.406 25.1094 210.688 25.1094C214.062 25.1094 217.062 25.9531 219.688 27.6406C222.312 29.3281 224.352 31.7539 225.805 34.918C227.258 38.082 227.996 41.7031 228.02 45.7812V49.543C228.02 58.0742 225.898 64.7773 221.656 69.6523C217.414 74.5273 211.402 77.1289 203.621 77.457L201.125 77.4922V69.0195L203.375 68.9844C212.211 68.5859 216.992 64.4375 217.719 56.5391ZM210.934 52.6719C212.574 52.6719 213.98 52.25 215.152 51.4062C216.348 50.5625 217.25 49.543 217.859 48.3477V44.1641C217.859 40.7188 217.203 38.0469 215.891 36.1484C214.578 34.25 212.82 33.3008 210.617 33.3008C208.578 33.3008 206.902 34.2383 205.59 36.1133C204.277 37.9648 203.621 40.2969 203.621 43.1094C203.621 45.8984 204.254 48.1953 205.52 50C206.809 51.7812 208.613 52.6719 210.934 52.6719Z" fill="url(#paint3_linear)"/>
<path d="M56.0639 6.87827L57.1403 5.26289L57.5564 5.54013L58.0945 4.73243C58.3119 4.40617 58.5476 4.09602 58.7997 3.80297L58.4207 3.47686C58.9597 2.8505 59.5701 2.29822 60.2356 1.82882L60.5238 2.2374C61.1605 1.78828 61.8502 1.41902 62.577 1.13818L62.3968 0.671783C63.1564 0.37826 63.9545 0.176493 64.7746 0.0752923L64.8358 0.571528C65.2195 0.524179 65.6083 0.5 66.0004 0.5L66.995 0.5V0L68.9841 0V0.5L70.9733 0.5V0L72.9624 0V0.5L74.9515 0.5V0L76.9406 0V0.5L78.9297 0.5V0L80.9189 0V0.5L82.908 0.5V0L84.8971 0V0.5L86.8862 0.5V0L88.8754 0V0.5L90.8645 0.5V0L92.8536 0V0.5L94.8427 0.5V0L96.8318 0V0.5L98.8209 0.5V0L100.81 0V0.5L102.799 0.5V0L104.788 0V0.5L106.777 0.5V0L108.767 0V0.5L110.756 0.5V0L112.745 0V0.5L114.734 0.5V0L116.723 0V0.5L118.712 0.5V0L120.701 0V0.5L122.69 0.5V0L124.68 0V0.5L126.669 0.5V0L128.658 0V0.5L130.647 0.5V0L132.636 0V0.5L134.625 0.5V0L136.614 0V0.5L138.603 0.5V0L140.593 0V0.5L142.582 0.5V0L144.571 0V0.5L146.56 0.5V0L148.549 0V0.5L150.538 0.5V0L152.527 0V0.5L154.516 0.5V0L156.506 0V0.5L158.495 0.5V0L160.484 0V0.5L162.473 0.5V0L164.462 0V0.5L166.451 0.5V0L168.44 0V0.5L170.429 0.5V0L172.419 0V0.5L174.408 0.5V0L176.397 0V0.5L178.386 0.5V0L180.375 0V0.5L182.364 0.5V0L184.353 0V0.5L186.342 0.5V0L188.332 0V0.5L190.321 0.5V0L192.31 0V0.5L194.299 0.5V0L196.288 0V0.5L198.277 0.5V0L200.266 0V0.5L202.256 0.5V0L204.245 0V0.5L206.234 0.5V0L208.223 0V0.5L210.212 0.5V0L212.201 0V0.5L214.19 0.5V0L216.179 0V0.5L218.169 0.5V0L220.158 0V0.5L222.147 0.5V0L224.136 0V0.5L226.125 0.5V0L228.114 0V0.5L230.103 0.5V0L232.092 0V0.5L234.082 0.5V0L236.071 0V0.5L238.06 0.5V0L240.049 0V0.5L242.038 0.5V0L244.027 0V0.5L246.016 0.5V0L248.005 0V0.5L249 0.5C249.315 0.5 249.626 0.51528 249.932 0.545112L249.981 0.0474628C250.643 0.111902 251.286 0.240919 251.904 0.428133L251.759 0.906653C252.359 1.0886 252.935 1.32845 253.479 1.61977L253.715 1.17901C254.294 1.48945 254.84 1.85534 255.344 2.2696L255.027 2.65593C255.508 3.05105 255.949 3.49248 256.344 3.97338L256.73 3.65597C257.145 4.16017 257.511 4.7056 257.821 5.2852L257.38 5.52127C257.672 6.06516 257.911 6.64061 258.093 7.24115L258.572 7.09617C258.759 7.7141 258.888 8.35732 258.953 9.01945L258.455 9.06788C258.485 9.37442 258.5 9.68535 258.5 10V11H259V13H258.5V15H259V17H258.5V19H259V21H258.5V23H259V25H258.5V27H259V29H258.5V31H259V33H258.5V35H259V37H258.5V39H259V41H258.5V43H259V45H258.5V47H259V49H258.5V51H259V53H258.5V55H259V57H258.5V59H259V61H258.5V63H259V65H258.5V67H259V69H258.5V71H259V73H258.5V75H259V77H258.5V79H259V81H258.5V83H259V85H258.5V87H259V89H258.5V91H259V93H258.5V94C258.5 94.3147 258.485 94.6256 258.455 94.9321L258.953 94.9806C258.888 95.6427 258.759 96.2859 258.572 96.9038L258.093 96.7589C257.911 97.3594 257.672 97.9348 257.38 98.4787L257.821 98.7148C257.511 99.2944 257.145 99.8398 256.73 100.344L256.344 100.027C255.949 100.508 255.508 100.949 255.027 101.344L255.344 101.73C254.84 102.145 254.294 102.511 253.715 102.821L253.479 102.38C252.935 102.672 252.359 102.911 251.759 103.093L251.904 103.572C251.286 103.759 250.643 103.888 249.981 103.953L249.932 103.455C249.626 103.485 249.315 103.5 249 103.5H248.005V104H246.016V103.5H244.027V104H242.038V103.5H240.049V104H238.06V103.5H236.071V104H234.082V103.5H232.092V104H230.103V103.5H228.114V104H226.125V103.5H224.136V104H222.147V103.5H220.158V104H218.169V103.5H216.179V104H214.19V103.5H212.201V104H210.212V103.5H208.223V104H206.234V103.5H204.245V104H202.256V103.5H200.266V104L198.277 104V103.5H196.288V104H194.299V103.5H192.31V104H190.321V103.5H188.332V104H186.343V103.5H184.353V104H182.364V103.5H180.375V104H178.386V103.5H176.397V104H174.408V103.5H172.419V104H170.43V103.5H168.44V104H166.451V103.5H164.462V104H162.473V103.5H160.484V104H158.495V103.5H156.506V104H154.517V103.5H152.527V104H150.538V103.5H148.549V104H146.56V103.5H144.571V104H142.582V103.5H140.593V104H138.604V103.5H136.614V104H134.625V103.5H132.636V104H130.647V103.5H128.658V104H126.669V103.5H124.68V104H122.69V103.5H120.701V104H118.712V103.5H116.723V104H114.734V103.5H112.745V104H110.756V103.5H108.767V104H106.777V103.5H104.788V104H102.799V103.5H100.81V104H98.821V103.5H96.8318V104H94.8427V103.5H92.8536V104H90.8645V103.5H88.8753V104H86.8862V103.5H84.8971V104L82.908 104V103.5H80.9188V104H78.9297V103.5H76.9406V104H74.9514V103.5H72.9623V104H70.9732V103.5H68.9841V104H66.9949V103.5H66.0004C65.6083 103.5 65.2195 103.476 64.8358 103.428L64.7746 103.925C63.9545 103.824 63.1564 103.622 62.3968 103.328L62.577 102.862C61.8502 102.581 61.1605 102.212 60.5238 101.763L60.2356 102.171C59.5701 101.702 58.9597 101.149 58.4207 100.523L58.7997 100.197C58.5476 99.904 58.3119 99.5938 58.0945 99.2676L57.5563 98.4599L57.1403 98.7371L56.0639 97.1217L56.48 96.8445L55.4037 95.2291L54.9876 95.5063L53.9113 93.891L54.3274 93.6137L53.2511 91.9983L52.835 92.2756L51.7587 90.6602L52.1748 90.3829L51.0985 88.7676L50.6824 89.0448L49.6061 87.4294L50.0222 87.1522L48.9459 85.5368L48.5298 85.814L47.4535 84.1986L47.8696 83.9214L46.7933 82.306L46.3772 82.5833L45.3009 80.9679L45.717 80.6906L44.6407 79.0753L44.2246 79.3525L43.1483 77.7371L43.5644 77.4599L42.4881 75.8445L42.072 76.1217L40.9956 74.5063L41.4117 74.2291L40.3354 72.6137L39.9193 72.891L38.843 71.2756L39.2591 70.9983L38.1828 69.3829L37.7667 69.6602L36.6904 68.0448L37.1065 67.7676L36.0302 66.1522L35.6141 66.4294L34.5378 64.814L34.9539 64.5368L33.8776 62.9214L33.4615 63.1987L32.3852 61.5833L32.8013 61.306L31.725 59.6906L31.3089 59.9679L30.2326 58.3525L30.6487 58.0753L30.1105 57.2676C29.9371 57.0074 29.7779 56.7408 29.6329 56.4689L29.1917 56.7042C28.8812 56.122 28.6321 55.5164 28.4446 54.8967L28.9232 54.7519C28.7427 54.1551 28.6222 53.5445 28.5619 52.9292L28.0642 52.978C28.0004 52.3276 28.0004 51.6724 28.0642 51.022L28.5619 51.0708C28.6222 50.4555 28.7427 49.8449 28.9232 49.2481L28.4446 49.1033C28.6321 48.4836 28.8812 47.878 29.1917 47.2958L29.6329 47.5311C29.7779 47.2592 29.9371 46.9926 30.1105 46.7324L30.6487 45.9247L30.2326 45.6475L31.3089 44.0321L31.725 44.3094L32.8013 42.694L32.3852 42.4167L33.4615 40.8013L33.8776 41.0786L34.9539 39.4632L34.5378 39.186L35.6141 37.5706L36.0302 37.8478L37.1065 36.2324L36.6904 35.9552L37.7667 34.3398L38.1828 34.617L39.2591 33.0017L38.843 32.7244L39.9193 31.109L40.3354 31.3863L41.4117 29.7709L40.9957 29.4937L42.072 27.8783L42.4881 28.1555L43.5644 26.5401L43.1483 26.2629L44.2246 24.6475L44.6407 24.9247L45.717 23.3094L45.3009 23.0321L46.3772 21.4167L46.7933 21.694L47.8696 20.0786L47.4535 19.8013L48.5298 18.186L48.9459 18.4632L50.0222 16.8478L49.6061 16.5706L50.6824 14.9552L51.0985 15.2324L52.1748 13.6171L51.7587 13.3398L52.835 11.7244L53.2511 12.0017L54.3274 10.3863L53.9113 10.109L54.9876 8.49366L55.4037 8.7709L56.48 7.15551L56.0639 6.87827Z" stroke="white" stroke-dasharray="2 2"/>
<defs>
<linearGradient id="paint0_linear" x1="85.6628" y1="20.9771" x2="209.545" y2="73.116" gradientUnits="userSpaceOnUse">
<stop stop-color="#FF0F57"/>
<stop offset="0.51721" stop-color="#BB6BD9"/>
<stop offset="1" stop-color="#2AB2FF"/>
</linearGradient>
<linearGradient id="paint1_linear" x1="85.6628" y1="20.9771" x2="209.545" y2="73.116" gradientUnits="userSpaceOnUse">
<stop stop-color="#FF0F57"/>
<stop offset="0.51721" stop-color="#BB6BD9"/>
<stop offset="1" stop-color="#2AB2FF"/>
</linearGradient>
<linearGradient id="paint2_linear" x1="85.6628" y1="20.9771" x2="209.545" y2="73.116" gradientUnits="userSpaceOnUse">
<stop stop-color="#FF0F57"/>
<stop offset="0.51721" stop-color="#BB6BD9"/>
<stop offset="1" stop-color="#2AB2FF"/>
</linearGradient>
<linearGradient id="paint3_linear" x1="85.6628" y1="20.9771" x2="209.545" y2="73.116" gradientUnits="userSpaceOnUse">
<stop stop-color="#FF0F57"/>
<stop offset="0.51721" stop-color="#BB6BD9"/>
<stop offset="1" stop-color="#2AB2FF"/>
</linearGradient>
</defs>
</svg>
